<?xml version="1.0" encoding="UTF-8" standalone="no"?>
<svg
   xmlns:dc="http://purl.org/dc/elements/1.1/"
   xmlns:cc="http://creativecommons.org/ns#"
   xmlns:rdf="http://www.w3.org/1999/02/22-rdf-syntax-ns#"
   xmlns:svg="http://www.w3.org/2000/svg"
   xmlns="http://www.w3.org/2000/svg"
   xmlns:sodipodi="http://sodipodi.sourceforge.net/DTD/sodipodi-0.dtd"
   xmlns:inkscape="http://www.inkscape.org/namespaces/inkscape"
   version="1.1"
   id="svg2"
   width="100"
   height="100"
   viewBox="0 0 100 100"
   sodipodi:docname="bridge.svg"
   inkscape:version="1.0.2 (e86c870879, 2021-01-15)">
  <metadata
     id="metadata8">
    <rdf:RDF>
      <cc:Work
         rdf:about="">
        <dc:format>image/svg+xml</dc:format>
        <dc:type
           rdf:resource="http://purl.org/dc/dcmitype/StillImage" />
        <dc:title></dc:title>
      </cc:Work>
    </rdf:RDF>
  </metadata>
  <defs
     id="defs6" />
  <sodipodi:namedview
     pagecolor="#ffffff"
     bordercolor="#666666"
     borderopacity="1"
     objecttolerance="10"
     gridtolerance="10"
     guidetolerance="10"
     inkscape:pageopacity="0"
     inkscape:pageshadow="2"
     inkscape:window-width="1360"
     inkscape:window-height="731"
     id="namedview4"
     showgrid="false"
     borderlayer="true"
     inkscape:zoom="3.3207071"
     inkscape:cx="66.832623"
     inkscape:cy="20.534972"
     inkscape:window-x="0"
     inkscape:window-y="0"
     inkscape:window-maximized="1"
     inkscape:current-layer="g10" />
  <g
     inkscape:groupmode="layer"
     inkscape:label="Image"
     id="g10">
    <path
       style="fill:#000000;stroke-width:1"
       d="m 63.659321,72.50462 c -0.814465,-1.967992 -2.07084,-5.383223 -2.791942,-7.589403 -1.499596,-4.587935 -7.996441,-9.750942 -12.270056,-9.750942 -4.096962,0 -10.796617,8.157365 -10.796617,13.145743 0,1.621455 6.576017,2.272644 8.816927,0.873094 1.778698,-1.110878 2.3814,-1.057473 3.316033,0.293828 0.859084,1.242072 1.279591,1.310304 1.69631,0.275244 0.72907,-1.810888 2.348529,-1.743419 4.254236,0.177236 0.847749,0.854399 2.533175,1.292054 3.74539,0.972565 1.212216,-0.319487 2.204028,-0.0451 2.204028,0.60976 0,1.767229 -3.72508,3.451006 -5.36918,2.426926 -0.785421,-0.489225 -4.329123,-0.688295 -7.874894,-0.442381 -3.54577,0.245915 -7.348496,-0.0392 -8.450501,-0.633612 -1.343381,-0.724594 -2.387409,-0.693955 -3.168219,0.09298 -0.640516,0.64554 -1.72777,0.822904 -2.416119,0.394143 -2.702444,-1.683303 2.022402,-13.730113 7.33068,-18.690835 7.01171,-6.552621 18.207402,-1.168136 22.798072,10.964564 1.374705,3.633215 2.524828,7.472863 2.555827,8.532551 0.09222,3.152337 -1.989281,2.192131 -3.579975,-1.651462 z m -35.027188,0.735685 c -0.364693,-0.95783 -0.663078,-3.077065 -0.663078,-4.709411 0,-6.93653 -5.612746,-10.0375 -13.322419,-7.360467 -5.5023535,1.910585 -7.8709741,0.559899 -3.768724,-2.149083 3.713295,-2.452128 11.803314,-2.514717 15.43061,-0.119379 3.410513,2.252181 4.93775,5.8857 4.93775,11.747623 0,4.388988 -1.400853,5.77729 -2.614139,2.590717 z M 18.915826,73.1974 c -1.830483,-1.844841 -0.507286,-3.291805 3.1046,-3.394991 3.053616,-0.08724 3.809962,0.277697 3.540978,1.708505 -0.349973,1.861612 -5.240401,3.102684 -6.645578,1.686486 z M 69.48047,67.129701 c 0,-9.043963 2.946861,-14.167375 8.14873,-14.167375 4.886489,0 11.514572,2.92818 11.514572,5.086952 0,1.248178 -0.551674,1.518718 -1.91171,0.937501 -8.993513,-3.843411 -9.423937,-3.877819 -12.016463,-0.960595 -3.089817,3.476797 -3.444719,10.284228 -0.546202,10.476779 3.941097,0.261812 4.618618,0.444594 4.630514,1.249221 0.0067,0.454152 0.01221,1.321169 0.01221,1.926705 0,1.598045 -5.178824,1.353585 -5.830955,-0.275244 -0.32916,-0.822142 -0.585716,-0.600513 -0.637237,0.550488 -0.04743,1.059687 -0.823616,1.926704 -1.724851,1.926704 -1.278391,0 -1.638608,-1.484108 -1.638608,-6.751136 z M 5.275446,53.788057 c 0.2359377,-0.75692 1.9974418,-2.084926 3.9144531,-2.951125 2.0694259,-0.935068 3.4854769,-2.388777 3.4854769,-3.578167 0,-2.235336 -2.192657,-2.655936 -4.0559584,-0.77802 -1.2100501,1.219542 -3.5908816,0.499301 -3.5908816,-1.086301 0,-0.457647 1.8434346,-1.725686 4.0965212,-2.817867 C 26.434831,34.18569 48.157215,32.15642 74.037803,36.512534 c 13.286366,2.236306 23.845214,5.218381 23.845214,6.734467 0,1.733215 -2.174391,1.915687 -6.165014,0.517358 -2.317062,-0.811908 -5.477724,-1.786861 -7.023694,-2.166562 -2.615103,-0.64229 -2.777243,-0.459562 -2.328219,2.623831 0.415105,2.850471 1.154309,3.495253 5.283007,4.608173 4.994233,1.346231 5.964043,3.719665 1.388037,3.396969 C 87.593727,52.124985 82.471564,50.812169 77.654549,49.309406 65.62758,45.557357 52.82062,44.136467 42.407668,45.398882 c -10.106699,1.225285 -24.1077,4.709863 -30.690461,7.638261 -5.57432,2.479785 -7.0336905,2.649903 -6.441761,0.750914 z m 16.228519,-7.431576 c 1.506894,0 2.095467,-0.773102 2.095467,-2.752436 0,-3.092051 -0.476741,-3.237999 -5.179678,-1.585686 -2.56465,0.901054 -3.190993,1.667385 -2.750462,3.365192 0.353311,1.361655 1.173492,1.96521 2.15482,1.585686 0.871413,-0.337016 2.527348,-0.612756 3.679853,-0.612756 z m 57.808156,-2.617627 c 0,-2.372991 -2.290084,-3.626065 -7.998079,-4.376339 -4.619859,-0.607248 -5.22227,-0.456831 -4.902519,1.224118 0.636382,3.345503 12.900598,6.342225 12.900598,3.152221 z M 33.157982,43.460603 c 3.4613,-0.934869 3.313252,-4.810942 -0.183757,-4.810942 -4.073081,0 -6.097576,1.135733 -6.097576,3.420715 0,2.171414 1.862669,2.583671 6.281333,1.390227 z m 15.56678,-3.709968 c 0,-1.875734 -0.728271,-2.201949 -4.915825,-2.201949 -4.187555,0 -4.915826,0.326215 -4.915826,2.201949 0,1.875734 0.728271,2.201948 4.915826,2.201948 4.187554,0 4.915825,-0.326214 4.915825,-2.201948 z m 14.201274,0.115641 c 0,-1.641828 -0.989113,-2.193152 -4.642724,-2.587817 -5.129191,-0.55406 -6.910073,0.3338 -5.914467,2.948659 0.462752,1.215371 2.120357,1.725465 5.60708,1.725465 4.130381,0 4.950111,-0.345489 4.950111,-2.086307 z"
       id="path837" />
  </g>
</svg>
