<?xml version="1.0" encoding="UTF-8" standalone="no"?>
<svg
   xmlns:dc="http://purl.org/dc/elements/1.1/"
   xmlns:cc="http://creativecommons.org/ns#"
   xmlns:rdf="http://www.w3.org/1999/02/22-rdf-syntax-ns#"
   xmlns:svg="http://www.w3.org/2000/svg"
   xmlns="http://www.w3.org/2000/svg"
   xmlns:sodipodi="http://sodipodi.sourceforge.net/DTD/sodipodi-0.dtd"
   xmlns:inkscape="http://www.inkscape.org/namespaces/inkscape"
   version="1.1"
   id="svg2"
   width="100"
   height="100"
   viewBox="0 0 100 100"
   sodipodi:docname="triangle.svg"
   inkscape:version="1.0.2 (e86c870879, 2021-01-15)">
  <metadata
     id="metadata8">
    <rdf:RDF>
      <cc:Work
         rdf:about="">
        <dc:format>image/svg+xml</dc:format>
        <dc:type
           rdf:resource="http://purl.org/dc/dcmitype/StillImage" />
        <dc:title></dc:title>
      </cc:Work>
    </rdf:RDF>
  </metadata>
  <defs
     id="defs6" />
  <sodipodi:namedview
     pagecolor="#ffffff"
     bordercolor="#666666"
     borderopacity="1"
     objecttolerance="10"
     gridtolerance="10"
     guidetolerance="10"
     inkscape:pageopacity="0"
     inkscape:pageshadow="2"
     inkscape:window-width="1360"
     inkscape:window-height="731"
     id="namedview4"
     showgrid="false"
     borderlayer="true"
     inkscape:zoom="3.5030233"
     inkscape:cx="56.919558"
     inkscape:cy="50.876255"
     inkscape:window-x="0"
     inkscape:window-y="0"
     inkscape:window-maximized="1"
     inkscape:current-layer="g10" />
  <g
     inkscape:groupmode="layer"
     inkscape:label="Image"
     id="g10">
    <path
       style="fill:#000000;stroke-width:0.999999"
       d="M 5.4119339,82.046437 C 8.7564757,71.99844 14.869553,56.790466 17.117844,52.924741 c 1.166524,-2.005729 3.353948,-6.62577 4.860941,-10.266758 3.358249,-8.113735 7.943799,-17.187488 13.68666,-27.082762 L 40.014836,8.0809743 44.84041,13.413798 C 55.868512,25.601142 97.848689,85.76761 96.361108,87.25385 95.998716,87.615915 74.935888,87.94734 49.554824,87.990349 L 3.4074343,88.06855 Z M 82.681052,83.7333 c 0.762925,-0.755917 1.639493,-3.042834 1.94793,-5.08204 C 85.122801,75.386411 84.1182,73.323235 76.217223,61.375795 71.282319,53.913495 62.742354,41.710216 57.239523,34.2574 41.030154,12.304069 40.095763,12.523351 26.62688,41.441561 21.366875,52.734995 15.344995,65.266381 13.244924,69.289084 9.2497145,76.941945 8.436435,81.962518 10.865415,83.978393 c 0.939673,0.77986 10.968362,1.321649 28.909028,1.561778 32.262741,0.431827 41.01933,0.06307 42.906609,-1.806871 z M 36.200062,82.239853 C 17.052335,81.955006 14.776953,81.726706 13.851516,79.99751 c -1.17513,-2.195751 1.859682,-9.594013 14.042624,-34.233103 4.114603,-8.321478 7.478497,-15.702562 7.475321,-16.402411 -0.008,-1.766609 5.275488,-5.752172 7.625432,-5.752172 1.240394,0 5.064294,4.438686 10.64101,12.351817 4.787666,6.7935 9.233019,12.678246 9.878562,13.077213 0.645544,0.398969 3.937365,4.359525 7.315161,8.801238 3.377795,4.441713 7.478826,9.814633 9.113402,11.939822 3.436664,4.468171 3.822896,8.921817 0.995615,11.480471 -1.603866,1.451479 -3.997082,1.742205 -12.698358,1.542583 -5.897109,-0.13529 -20.315209,-0.388692 -32.040223,-0.563115 z m 42.932433,-5.863607 c 0,-2.827006 -1.430187,-4.835768 -16.751026,-23.527573 -3.269152,-3.988447 -8.861833,-11.452659 -12.42818,-16.587139 -3.74096,-5.385869 -7.154378,-9.233565 -8.068187,-9.094672 -0.871156,0.132409 -2.210044,1.453104 -2.975306,2.934876 -1.671984,3.23745 -16.112422,33.671813 -20.111471,42.386515 l -2.840653,6.190331 20.239943,0.336169 c 11.131968,0.184893 25.346303,0.317165 31.587411,0.293938 l 11.347469,-0.04223 z m -58.899298,0.259463 c 6.44e-4,-0.569417 2.261908,-5.380599 12.593822,-26.79526 4.367123,-9.05161 7.940223,-16.954312 7.940223,-17.56156 0,-2.827429 3.220316,-0.57138 6.522777,4.569649 2.004562,3.120554 7.557566,10.586107 12.34001,16.590117 9.832937,12.344537 16.239358,21.130297 16.25187,22.287797 0.0046,0.430562 -12.51452,0.916882 -27.820386,1.080711 -15.305866,0.163831 -27.828608,0.08667 -27.828316,-0.171454 z m 43.708058,-5.71505 C 66.462423,67.321188 66.063733,65.710006 60.912036,58.678997 49.920461,43.677757 43.43869,39.081909 39.672822,43.619502 37.427065,46.325474 28.889541,65.059973 28.884295,67.293538 c -0.0027,1.14198 0.799976,2.96568 1.783687,4.052667 1.567993,1.732614 3.626217,1.976342 16.689745,1.976342 14.173344,0 14.983354,-0.117319 16.583528,-2.401888 z m -31.00917,-0.860301 c -2.712918,-1.675535 -2.413126,-3.26836 2.480231,-13.177729 5.246113,-10.623724 6.041389,-11.658578 8.959508,-11.658578 2.85406,0 12.332883,9.901842 15.880553,16.589265 2.340962,4.412757 2.457425,5.159791 1.027365,6.589852 -2.067983,2.067982 -25.467657,3.435916 -28.347657,1.65719 z m 25.024397,-3.136083 c 1.213628,-0.768336 0.496581,-2.394309 -3.567462,-8.089554 -2.797514,-3.920364 -6.504657,-7.86135 -8.238096,-8.757746 l -3.151707,-1.629811 -4.358121,9.131157 c -2.396967,5.022137 -4.358121,9.403298 -4.358121,9.735914 0,1.006772 22.040775,0.643707 23.673507,-0.38996 z M 38.550867,63.200326 c 1.794259,-4.719261 4.140171,-8.868716 5.786361,-10.234933 1.271416,-1.055182 2.373532,-0.19795 6.112607,4.754418 2.50884,3.322934 4.385951,6.217274 4.171358,6.431867 -0.214591,0.214591 -4.162945,0.732047 -8.774119,1.1499 l -8.383952,0.759735 z m 10.133204,-1.123709 c 0.320703,-0.83574 -0.277158,-2.298049 -1.328582,-3.249575 -1.772778,-1.604342 -2.003055,-1.529502 -3.169252,1.030023 -1.675472,3.67726 -1.653507,3.739079 1.328582,3.739079 1.422385,0 2.848549,-0.683787 3.169252,-1.519527 z"
       id="path837" />
  </g>
</svg>
