<?xml version="1.0" encoding="UTF-8" standalone="no"?>
<svg
   xmlns:dc="http://purl.org/dc/elements/1.1/"
   xmlns:cc="http://creativecommons.org/ns#"
   xmlns:rdf="http://www.w3.org/1999/02/22-rdf-syntax-ns#"
   xmlns:svg="http://www.w3.org/2000/svg"
   xmlns="http://www.w3.org/2000/svg"
   xmlns:sodipodi="http://sodipodi.sourceforge.net/DTD/sodipodi-0.dtd"
   xmlns:inkscape="http://www.inkscape.org/namespaces/inkscape"
   version="1.1"
   id="svg2"
   width="100"
   height="100"
   viewBox="0 0 100 100"
   sodipodi:docname="house.svg"
   inkscape:version="1.0.2 (e86c870879, 2021-01-15)">
  <metadata
     id="metadata8">
    <rdf:RDF>
      <cc:Work
         rdf:about="">
        <dc:format>image/svg+xml</dc:format>
        <dc:type
           rdf:resource="http://purl.org/dc/dcmitype/StillImage" />
        <dc:title></dc:title>
      </cc:Work>
    </rdf:RDF>
  </metadata>
  <defs
     id="defs6" />
  <sodipodi:namedview
     pagecolor="#ffffff"
     bordercolor="#666666"
     borderopacity="1"
     objecttolerance="10"
     gridtolerance="10"
     guidetolerance="10"
     inkscape:pageopacity="0"
     inkscape:pageshadow="2"
     inkscape:window-width="1360"
     inkscape:window-height="731"
     id="namedview4"
     showgrid="false"
     borderlayer="true"
     inkscape:zoom="2.8733333"
     inkscape:cx="38.04047"
     inkscape:cy="77.288282"
     inkscape:window-x="0"
     inkscape:window-y="0"
     inkscape:window-maximized="1"
     inkscape:current-layer="g10" />
  <g
     inkscape:groupmode="layer"
     inkscape:label="Image"
     id="g10">
    <path
       style="fill:#000000;stroke-width:1"
       d="M 21.77474,95.947084 C 18.111524,95.515277 17.811419,94.867042 16.923729,85.468741 16.403304,79.958807 15.937408,68.382597 15.888404,59.743828 15.809432,45.82175 15.560658,44.376934 13.69908,47.028757 8.2958115,54.72573 7.1540652,55.927962 6.176238,54.950136 4.2196707,52.993568 17.849748,35.689908 38.082797,14.444109 c 9.4874,-9.9622836 9.728397,-10.1031963 13.289011,-7.7701916 6.97045,4.5672136 45.362516,38.1907376 45.362516,39.7281996 0,1.633547 -2.235589,0.704371 -5.983562,-2.486944 -1.982346,-1.687921 -2.194427,0.711553 -1.819856,20.589786 0.277966,14.751511 1.128379,24.186226 2.469347,27.395615 l 2.045368,4.895253 -33.88305,-0.194231 C 40.926893,96.494768 23.922369,96.200238 21.77474,95.947084 Z m 26.220796,-2.70576 c 1.963832,-0.753592 2.36618,-3.772671 2.36618,-17.754961 V 58.639389 l 5.60959,-0.927208 c 3.085274,-0.509964 8.133905,-0.934616 11.219179,-0.943671 l 5.60959,-0.01646 v 9.503855 c 0,5.227121 0.432469,13.641506 0.961044,18.698634 l 0.961045,9.194777 h 7.161932 7.161932 l -1.39147,-4.851768 C 86.88925,86.629072 86.183446,75.690371 86.086104,64.989321 85.988766,54.288271 85.483898,43.691493 84.964186,41.440927 84.31117,38.613099 78.742787,32.952102 66.939319,23.116266 57.545355,15.288269 49.367726,8.8835453 48.766812,8.8835453 c -0.600914,0 -7.620092,6.8650447 -15.598173,15.2556537 l -14.505602,15.255656 0.516461,25.936748 c 0.418707,21.02754 0.941165,26.205062 2.760297,27.354324 2.480981,1.567394 22.316687,1.990206 26.055741,0.555397 z M 23.598318,83.242356 c -0.959437,-0.959438 -1.658523,-7.133686 -1.658523,-14.647895 0,-14.843901 -0.0674,-14.775856 14.672822,-14.813769 l 7.941314,-0.02043 -0.461861,14.956086 -0.461862,14.956087 -4.487672,0.215842 c -2.468219,0.118714 -6.602226,0.395112 -9.186683,0.614221 -2.584456,0.219108 -5.445346,-0.347957 -6.357535,-1.260145 z m 7.04081,-7.661887 c 0.399065,-4.754328 0.0526,-5.542553 -2.243835,-5.104703 -2.81689,0.537085 -4.343319,5.760677 -2.833282,9.695771 1.528264,3.982591 4.589851,1.214101 5.077117,-4.591068 z m 9.251354,2.80987 c 0,-1.070864 0.408595,-3.011804 0.907989,-4.313205 0.684874,-1.784755 -0.05028,-2.366181 -2.991781,-2.366181 -3.439205,0 -3.899771,0.601791 -3.899771,5.095572 0,4.359102 0.432407,4.982497 2.991782,4.313205 1.645479,-0.430302 2.991781,-1.658528 2.991781,-2.729391 z M 31.504356,63.719226 c 1.55553,-5.798428 1.042884,-7.194606 -2.459081,-6.697247 -2.688042,0.381763 -3.457818,1.583719 -3.822976,5.969329 -0.401437,4.821351 -0.09892,5.397619 2.479508,4.723343 1.615201,-0.422385 3.326349,-2.220326 3.802549,-3.995425 z m 9.882016,-0.983617 c 0,-7.039096 -3.663787,-8.345306 -6.020587,-2.146453 -2.344882,6.167508 -1.794304,8.130016 2.280861,8.130016 3.365754,0 3.739726,-0.598356 3.739726,-5.983563 z M 70.769337,84.954536 C 70.240763,79.897408 69.808293,72.156174 69.808293,67.751793 v -8.007965 l -4.861644,0.02042 C 53.399385,59.812769 53.353497,59.88113 53.353497,77.035029 v 15.446372 l 6.357535,0.572614 c 3.496644,0.314937 7.631443,0.690217 9.188442,0.833956 2.591409,0.239232 2.749603,-0.516552 1.869863,-8.933435 z m -15.062626,-5.27056 c -0.882272,-2.299165 1.245511,-4.90335 4.05127,-4.958335 2.256205,-0.04422 2.984457,4.780867 0.918973,6.088723 -2.991522,1.89422 -3.887814,1.690375 -4.970243,-1.130388 z"
       id="path837" />
  </g>
</svg>
