<?xml version="1.0" encoding="UTF-8" standalone="no"?>
<svg
   xmlns:dc="http://purl.org/dc/elements/1.1/"
   xmlns:cc="http://creativecommons.org/ns#"
   xmlns:rdf="http://www.w3.org/1999/02/22-rdf-syntax-ns#"
   xmlns:svg="http://www.w3.org/2000/svg"
   xmlns="http://www.w3.org/2000/svg"
   xmlns:sodipodi="http://sodipodi.sourceforge.net/DTD/sodipodi-0.dtd"
   xmlns:inkscape="http://www.inkscape.org/namespaces/inkscape"
   version="1.1"
   id="svg2"
   width="100"
   height="100"
   viewBox="0 0 100 100"
   sodipodi:docname="candy.svg"
   inkscape:version="1.0.2 (e86c870879, 2021-01-15)">
  <metadata
     id="metadata8">
    <rdf:RDF>
      <cc:Work
         rdf:about="">
        <dc:format>image/svg+xml</dc:format>
        <dc:type
           rdf:resource="http://purl.org/dc/dcmitype/StillImage" />
        <dc:title></dc:title>
      </cc:Work>
    </rdf:RDF>
  </metadata>
  <defs
     id="defs6" />
  <sodipodi:namedview
     pagecolor="#ffffff"
     bordercolor="#666666"
     borderopacity="1"
     objecttolerance="10"
     gridtolerance="10"
     guidetolerance="10"
     inkscape:pageopacity="0"
     inkscape:pageshadow="2"
     inkscape:window-width="1360"
     inkscape:window-height="731"
     id="namedview4"
     showgrid="false"
     borderlayer="true"
     inkscape:zoom="2.9930556"
     inkscape:cx="19.574917"
     inkscape:cy="22.950155"
     inkscape:window-x="0"
     inkscape:window-y="0"
     inkscape:window-maximized="1"
     inkscape:current-layer="g10" />
  <g
     inkscape:groupmode="layer"
     inkscape:label="Image"
     id="g10">
    <path
       style="fill:#000000;stroke-width:1"
       d="M 37.257806,76.277377 C 34.076876,75.63268 31.73997,74.040785 28.737979,70.473696 23.807267,64.614819 22.353552,64.724554 13.807904,71.600708 7.7802559,76.450785 4.1129094,77.891821 7.3263984,74.147533 9.2441948,71.912958 9.883221,67.526139 8.123918,68.672676 6.4292178,69.777112 5.6591466,67.193597 6.934214,64.681333 7.80893,62.95788 7.7883372,62.334505 6.8566885,62.334505 6.1589433,62.334505 5.818709,61.40446 6.1006125,60.267739 6.382516,59.131017 6.0229065,57.619553 5.3014798,56.908931 4.5800533,56.198308 3.8989672,52.685951 3.787955,49.103691 3.6112282,43.400879 3.846902,42.590492 5.682101,42.590492 c 1.1527924,0 2.6904562,0.75531 3.4170307,1.678468 1.7333653,2.202346 11.7630533,5.689481 13.3637323,4.64632 0.754566,-0.491751 1.00059,-2.417779 0.622589,-4.874012 -0.965826,-6.275883 2.654428,-12.714144 8.747238,-15.556092 7.06683,-3.296275 26.361359,-7.056352 33.306219,-6.490646 4.870732,0.396755 6.318606,1.056569 8.468379,3.859148 1.426223,1.859313 3.178221,5.905278 3.89333,8.991033 l 1.300198,5.610464 3.599695,-3.679012 c 1.979832,-2.023457 4.47426,-5.724096 5.543172,-8.223643 2.065727,-4.830499 3.787153,-5.632602 6.014588,-2.802511 1.09693,1.393718 1.082997,2.108223 -0.06967,3.572755 -1.188245,1.509738 -1.183751,1.998162 0.02563,2.786317 0.806544,0.525624 1.168048,1.775642 0.803342,2.777819 -0.364705,1.002177 -0.14593,2.15918 0.486166,2.571117 0.632097,0.411936 0.904799,1.734742 0.606006,2.939569 -0.298793,1.204826 -0.07044,2.498731 0.507458,2.875345 0.577895,0.376613 0.969927,1.553064 0.871183,2.614335 -0.09874,1.061269 -0.04764,2.452218 0.113565,3.090995 0.161207,0.638777 0.382541,2.729319 0.491854,4.64565 0.109316,1.916331 0.575194,4.376967 1.03529,5.468079 0.642906,1.524649 0.160321,2.162805 -2.084903,2.757017 -2.280666,0.603592 -4.192549,-0.149958 -8.716724,-3.435607 -3.187407,-2.31483 -6.378559,-4.208783 -7.091449,-4.208783 -0.762779,0 -1.297857,1.792248 -1.30028,4.355297 -0.0051,5.320012 -3.24626,11.223475 -7.381734,13.444834 -8.987374,4.827541 -23.510065,6.600592 -34.996205,4.272629 z m 5.52623,-3.199806 c -0.997595,-2.722419 -2.754882,-25.503739 -2.777232,-36.003789 -0.01542,-7.244656 -0.287027,-8.417758 -1.945402,-8.402456 -4.592903,0.04238 -5.061628,1.504276 -4.334747,13.519547 0.788273,13.030094 3.504987,29.073227 5.311987,31.36913 1.843797,2.342658 4.648241,1.981426 3.745394,-0.482432 z m 14.432797,-1.112993 c 0.979903,-4.116914 -1.409436,-36.808323 -3.107555,-42.518199 -1.086109,-3.652007 -1.718781,-4.320163 -3.589154,-3.79045 -1.248842,0.353689 -3.055381,0.650205 -4.014531,0.658928 -2.157478,0.01962 -2.174997,0.387129 -0.969622,20.340578 0.540234,8.942877 1.086091,18.611637 1.213015,21.486133 0.303579,6.875219 0.375838,6.968475 5.39949,6.968475 3.777687,0 4.413615,-0.394662 5.068357,-3.145465 z m 11.077163,-0.390872 c 3.005466,-1.104782 3.429327,-1.929223 4.730596,-9.201352 C 74.924564,51.754383 73.999515,36.522766 71.0239,29.429467 69.008824,24.62591 68.353104,24.007891 65.271601,24.007891 h -3.477966 l 0.937847,8.420241 c 0.515815,4.631132 0.937846,15.606842 0.937846,24.390466 0,8.783624 0.297768,15.969864 0.661705,15.969423 0.363938,-4.42e-4 2.147272,-0.546884 3.962963,-1.214315 z M 31.669511,66.804576 C 30.782275,64.1529 29.481753,55.791583 28.779461,48.223871 28.07717,40.65616 27.274148,34.705259 26.994969,34.999644 25.922055,36.131002 24.87775,53.48931 25.708423,56.384425 c 0.480768,1.675601 0.916725,2.623727 0.968794,2.106946 0.05206,-0.516781 0.643222,-0.58211 1.313676,-0.145176 0.849447,0.553583 0.765969,1.092395 -0.275354,1.777288 -1.210823,0.796375 -0.995111,1.980837 1.136881,6.242593 3.294229,6.585013 4.960461,6.844374 2.817091,0.4385 z M 16.506163,62.848703 c 5.221421,-3.736366 5.791974,-4.340725 3.072947,-3.25502 -2.788221,1.113335 -9.328465,5.151055 -9.328465,5.759073 0,1.194528 2.466841,0.207064 6.255518,-2.504053 z m 79.654941,-4.620415 c 0,-0.838697 -10.107315,-5.367052 -10.665516,-4.778445 -0.743737,0.78425 6.686938,5.360037 8.738038,5.380858 1.060113,0.0108 1.927478,-0.260325 1.927478,-0.602413 z M 9.6999366,55.36603 C 9.3255443,54.727253 8.5528381,54.204617 7.9828101,54.204617 c -0.5700276,0 -1.0364139,0.522636 -1.0364139,1.161413 0,0.638777 0.7727069,1.161412 1.7171265,1.161412 0.9444192,0 1.4108063,-0.522635 1.0364139,-1.161412 z M 10.041648,50.00225 C 8.9379031,48.838381 7.6989489,48.487823 6.7878393,49.081593 c -1.3210579,0.860932 0.041914,1.669528 4.5248857,2.684429 0.281254,0.06367 -0.290731,-0.730024 -1.271077,-1.763772 z m 85.568748,0.718129 c -0.374392,-0.638776 -2.75792,-1.124679 -5.296729,-1.079782 -3.588582,0.06346 -4.125709,0.3038 -2.413184,1.079782 3.114702,1.411341 8.537111,1.411341 7.709913,0 z m -4.644755,-8.948791 c -0.301013,-0.827157 0.08397,-1.503922 0.855529,-1.503922 0.771553,0 1.104953,-0.314097 0.740887,-0.697993 -0.929036,-0.979644 -8.620587,5.387917 -7.930478,6.565359 0.882423,1.505566 6.949012,-2.673619 6.334062,-4.363444 z m -7.572106,-0.923215 c 0.992305,-1.596943 1.631341,-2.903532 1.420083,-2.903532 -0.211259,0 -1.548175,1.306589 -2.970924,2.903532 -1.422749,1.596942 -2.061786,2.903531 -1.420082,2.903531 0.641704,0 1.978619,-1.306589 2.970923,-2.903531 z m 8.361904,-12.323498 c 0,-1.985463 -0.953703,-1.002864 -2.66121,2.741844 l -1.721134,3.774591 2.191173,-2.741844 c 1.205144,-1.508014 2.191171,-3.20658 2.191171,-3.774591 z"
       id="path837" />
  </g>
</svg>
