<?xml version="1.0" encoding="UTF-8" standalone="no"?>
<svg
   xmlns:dc="http://purl.org/dc/elements/1.1/"
   xmlns:cc="http://creativecommons.org/ns#"
   xmlns:rdf="http://www.w3.org/1999/02/22-rdf-syntax-ns#"
   xmlns:svg="http://www.w3.org/2000/svg"
   xmlns="http://www.w3.org/2000/svg"
   xmlns:sodipodi="http://sodipodi.sourceforge.net/DTD/sodipodi-0.dtd"
   xmlns:inkscape="http://www.inkscape.org/namespaces/inkscape"
   version="1.1"
   id="svg2"
   width="100"
   height="100"
   viewBox="0 0 100 100"
   sodipodi:docname="square.svg"
   inkscape:version="1.0.2 (e86c870879, 2021-01-15)">
  <metadata
     id="metadata8">
    <rdf:RDF>
      <cc:Work
         rdf:about="">
        <dc:format>image/svg+xml</dc:format>
        <dc:type
           rdf:resource="http://purl.org/dc/dcmitype/StillImage" />
        <dc:title></dc:title>
      </cc:Work>
    </rdf:RDF>
  </metadata>
  <defs
     id="defs6" />
  <sodipodi:namedview
     pagecolor="#ffffff"
     bordercolor="#666666"
     borderopacity="1"
     objecttolerance="10"
     gridtolerance="10"
     guidetolerance="10"
     inkscape:pageopacity="0"
     inkscape:pageshadow="2"
     inkscape:window-width="1360"
     inkscape:window-height="731"
     id="namedview4"
     showgrid="false"
     borderlayer="true"
     inkscape:zoom="3.0352113"
     inkscape:cx="55.158081"
     inkscape:cy="38.645845"
     inkscape:window-x="0"
     inkscape:window-y="0"
     inkscape:window-maximized="1"
     inkscape:current-layer="g10" />
  <g
     inkscape:groupmode="layer"
     inkscape:label="Image"
     id="g10">
    <path
       style="fill:#000000;stroke-width:1"
       d="M 16.818323,94.025566 C 16.312387,93.226489 13.281198,92.572697 10.082345,92.572697 H 4.2662498 L 4.8034167,52.435394 C 5.2363034,20.089926 5.7372805,11.891559 7.3840492,10.20397 10.386251,7.1273476 91.581848,7.0741867 95.373758,10.146361 c 2.215884,1.795292 2.403012,3.696952 1.579841,16.054921 -0.513576,7.710126 -1.228965,25.59318 -1.589753,39.740119 -0.360788,14.14694 -0.896335,25.956328 -1.190104,26.243084 -0.293769,0.286755 -16.539806,0.816026 -36.102305,1.176156 -19.562498,0.36013 -36.640315,0.98396 -37.950705,1.386288 -1.310391,0.402328 -2.796474,0.07772 -3.302409,-0.721363 z M 78.469786,75.38286 c 0.135413,-0.143639 0.47034,-11.061331 0.744293,-24.261534 L 79.712176,27.120958 71.013684,25.642864 C 66.229514,24.829913 53.196608,24.164771 42.05167,24.164771 H 21.788147 l -0.126632,8.725501 c -0.207701,14.311661 0.322437,42.108987 0.818091,42.895818 0.408001,0.647685 55.372655,0.251842 55.99018,-0.40323 z"
       id="path837" />
  </g>
</svg>
