<?xml version="1.0" encoding="UTF-8" standalone="no"?>
<svg
   xmlns:dc="http://purl.org/dc/elements/1.1/"
   xmlns:cc="http://creativecommons.org/ns#"
   xmlns:rdf="http://www.w3.org/1999/02/22-rdf-syntax-ns#"
   xmlns:svg="http://www.w3.org/2000/svg"
   xmlns="http://www.w3.org/2000/svg"
   xmlns:sodipodi="http://sodipodi.sourceforge.net/DTD/sodipodi-0.dtd"
   xmlns:inkscape="http://www.inkscape.org/namespaces/inkscape"
   version="1.1"
   id="svg2"
   width="100"
   height="100"
   viewBox="0 0 100 100"
   sodipodi:docname="person.svg"
   inkscape:version="1.0.2 (e86c870879, 2021-01-15)">
  <metadata
     id="metadata8">
    <rdf:RDF>
      <cc:Work
         rdf:about="">
        <dc:format>image/svg+xml</dc:format>
        <dc:type
           rdf:resource="http://purl.org/dc/dcmitype/StillImage" />
        <dc:title></dc:title>
      </cc:Work>
    </rdf:RDF>
  </metadata>
  <defs
     id="defs6" />
  <sodipodi:namedview
     pagecolor="#ffffff"
     bordercolor="#666666"
     borderopacity="1"
     objecttolerance="10"
     gridtolerance="10"
     guidetolerance="10"
     inkscape:pageopacity="0"
     inkscape:pageshadow="2"
     inkscape:window-width="1360"
     inkscape:window-height="731"
     id="namedview4"
     showgrid="false"
     borderlayer="true"
     inkscape:zoom="3.5854473"
     inkscape:cx="42.435707"
     inkscape:cy="40.070803"
     inkscape:window-x="0"
     inkscape:window-y="0"
     inkscape:window-maximized="1"
     inkscape:current-layer="g10" />
  <g
     inkscape:groupmode="layer"
     inkscape:label="Image"
     id="g10">
    <path
       style="fill:#000000;stroke-width:1"
       d="m 32.810501,96.97502 c -0.356844,-0.577386 2.936273,-8.526728 7.318037,-17.665204 6.84053,-14.266398 7.88554,-17.561009 7.391739,-23.303974 l -0.575108,-6.688563 h -9.3179 c -7.514251,0 -9.408432,-0.467493 -9.785596,-2.415129 -0.400509,-2.068188 0.905273,-2.382312 9.089803,-2.186678 9.530325,0.227801 9.557495,0.21695 9.556305,-3.816541 -9.05e-4,-3.072115 -0.965389,-4.410286 -4.010102,-5.563801 -7.555637,-2.862521 -10.568944,-7.018356 -10.568944,-14.576283 0,-6.291399 0.509906,-7.31617 5.676477,-11.4081706 8.921184,-7.065708 17.568796,-5.6150891 21.415965,3.5924846 1.134796,2.715948 2.063265,6.661951 2.063265,8.768894 0,4.821127 -4.182497,12.041427 -7.604342,13.127479 -1.750816,0.555687 -2.600155,2.286447 -2.600155,5.298525 0,4.448329 0.03577,4.468363 6.417942,3.59359 3.52987,-0.483822 7.301889,-1.064991 8.382266,-1.291487 1.080378,-0.226495 1.964323,0.558074 1.964323,1.743486 0,1.451912 -2.616631,2.663387 -8.017819,3.712177 -7.881738,1.530454 -8.011353,1.637518 -7.636823,6.308091 0.370581,4.621341 2.42564,9.056752 12.595455,27.184642 3.793028,6.761143 5.772729,8.851425 8.720865,9.207988 5.906957,0.714418 4.837732,4.640973 -1.263764,4.640973 -4.667894,0 -5.386391,-0.617669 -8.902721,-7.653373 -4.840719,-9.68563 -11.259054,-20.038543 -12.42509,-20.041943 -1.673286,-0.0048 -10.486161,21.501147 -10.681694,26.066495 -0.09483,2.21395 -6.162005,5.049691 -7.202384,3.366322 z M 53.289967,28.797465 c 3.198379,-3.198378 3.635267,-4.650061 2.946003,-9.788903 -1.275947,-9.5128986 -7.426173,-11.6997925 -16.673862,-5.928884 -4.159198,2.5955 -4.605627,12.035254 -0.728892,15.412444 5.706212,4.970926 9.706675,5.055419 14.456751,0.305343 z"
       id="path837" />
  </g>
</svg>
