<?xml version="1.0" encoding="UTF-8" standalone="no"?>
<svg
   xmlns:dc="http://purl.org/dc/elements/1.1/"
   xmlns:cc="http://creativecommons.org/ns#"
   xmlns:rdf="http://www.w3.org/1999/02/22-rdf-syntax-ns#"
   xmlns:svg="http://www.w3.org/2000/svg"
   xmlns="http://www.w3.org/2000/svg"
   xmlns:sodipodi="http://sodipodi.sourceforge.net/DTD/sodipodi-0.dtd"
   xmlns:inkscape="http://www.inkscape.org/namespaces/inkscape"
   version="1.1"
   id="svg2"
   width="100"
   height="100"
   viewBox="0 0 100 100"
   sodipodi:docname="face.svg"
   inkscape:version="1.0.1 (3bc2e813f5, 2020-09-07)">
  <metadata
     id="metadata8">
    <rdf:RDF>
      <cc:Work
         rdf:about="">
        <dc:format>image/svg+xml</dc:format>
        <dc:type
           rdf:resource="http://purl.org/dc/dcmitype/StillImage" />
        <dc:title></dc:title>
      </cc:Work>
    </rdf:RDF>
  </metadata>
  <defs
     id="defs6" />
  <sodipodi:namedview
     pagecolor="#ffffff"
     bordercolor="#666666"
     borderopacity="1"
     objecttolerance="10"
     gridtolerance="10"
     guidetolerance="10"
     inkscape:pageopacity="0"
     inkscape:pageshadow="2"
     inkscape:window-width="1872"
     inkscape:window-height="1016"
     id="namedview4"
     showgrid="false"
     borderlayer="true"
     inkscape:zoom="3.2080318"
     inkscape:cx="22.420265"
     inkscape:cy="53.719896"
     inkscape:window-x="48"
     inkscape:window-y="795"
     inkscape:window-maximized="1"
     inkscape:current-layer="g10" />
  <g
     inkscape:groupmode="layer"
     inkscape:label="Image"
     id="g10">
    <path
       style="fill:#000000;stroke-width:1"
       d="M 40.307906,98.474867 C 31.857615,96.131775 24.081643,91.048884 18.027032,83.910612 10.740678,75.320138 7.4483354,68.460332 7.2019742,61.355908 7.048766,56.93778 6.2850596,54.804453 4.1324964,52.781673 -1.931964,47.082853 2.9309066,34.076676 11.126095,34.076676 c 2.66581,0 3.98152,-0.876828 5.383316,-3.587603 1.806287,-3.492974 1.751659,-3.668655 -2.071077,-6.660395 -3.349582,-2.621441 -3.616089,-3.19183 -1.814383,-3.88321 1.198241,-0.459807 3.496848,0.09702 5.313112,1.287085 2.639911,1.729735 3.388822,1.806905 4.271299,0.440123 0.740446,-1.146807 -0.06029,-2.687927 -2.599271,-5.002649 -3.903024,-3.55828 -4.485628,-5.1764 -2.340994,-6.501857 0.730609,-0.4515419 3.119652,0.915185 5.308985,3.03717 3.392326,3.287971 4.198646,3.595426 5.456001,2.080407 1.003399,-1.209021 1.065237,-2.03124 0.193296,-2.570128 -1.971725,-1.218594 -1.520728,-5.5389751 0.578205,-5.5389751 1.023168,0 2.456683,1.3089043 3.185589,2.9086771 1.758434,3.859344 6.574785,3.018313 5.367593,-0.9372886 -1.362669,-4.4650492 -1.291118,-5.9707863 0.310549,-6.5353017 0.899119,-0.3168988 2.108444,1.0441423 2.870753,3.2309029 1.778229,5.1010314 5.968869,5.2835714 5.968869,0.2599986 0,-4.1628292 2.889602,-7.2896167 4.431323,-4.7950581 0.539468,0.8728773 0.826226,3.0611634 0.63724,4.8628572 -0.237135,2.2607154 0.416896,3.6828198 2.110623,4.5892747 2.778244,1.486872 3.197902,1.057641 4.38702,-4.4870864 0.955263,-4.4542839 2.713692,-6.09255903 4.558879,-4.2473722 0.837193,0.8371945 0.726541,2.657159 -0.34106,5.6095544 -0.869175,2.4036622 -1.152307,4.7967942 -0.629182,5.3180732 0.929768,0.926484 4.970234,-3.1819282 5.914114,-6.0135711 0.277122,-0.8313626 1.392706,-1.0743677 2.674364,-0.5825495 2.046953,0.7854895 2.06301,1.0512153 0.232355,3.8451476 -3.72267,5.681512 -1.937905,9.007305 2.312993,4.310114 2.201908,-2.433081 6.725008,-3.382922 6.725008,-1.412237 0,0.568272 -1.100455,2.029121 -2.445457,3.24633 -4.646982,4.205461 -1.388669,6.04698 4.209346,2.379019 4.348207,-2.849055 5.812318,0.389742 1.598408,3.535879 -2.987193,2.230261 -3.072123,2.561739 -1.335466,5.212214 1.479567,2.258102 2.581534,2.685096 5.449349,2.111534 4.298976,-0.859795 7.910078,1.878223 10.476054,7.943178 2.065589,4.882236 1.24649,8.162304 -3.259987,13.054581 -2.900429,3.148733 -3.488542,5.053394 -4.15304,13.450016 C 89.163304,75.374584 85.047677,85.164566 79.524033,89.097746 67.721429,97.501943 51.117549,101.47216 40.307906,98.474867 Z M 68.845683,90.554246 C 82.322651,83.916894 86.035301,76.638828 86.116683,56.697158 86.157246,46.757816 85.679672,43.400103 83.564421,38.752794 78.098385,26.743652 63.736112,15.779505 50.961631,13.863854 43.601288,12.760101 33.801838,16.214556 28.089913,21.926481 19.243007,30.773386 9.8984296,54.958736 11.645837,64.486535 c 1.718784,9.37172 13.817313,23.552902 24.236209,28.408256 8.283113,3.860048 22.41022,2.856969 32.963637,-2.340545 z M 45.136396,82.173178 c -2.693693,-0.718585 -9.949394,-9.913525 -9.015331,-11.424869 1.300367,-2.104039 3.012195,-1.341219 6.882707,3.067051 2.066622,2.353753 4.726748,4.279551 5.911393,4.279551 2.737471,0 8.597331,-4.555027 8.597331,-6.682936 0,-1.855993 2.348626,-2.985693 4.585233,-2.205518 2.551194,0.889909 1.733575,3.323629 -2.445457,7.279146 -6.244261,5.910285 -9.256597,7.090571 -14.515876,5.687575 z M 33.669285,56.332717 c -2.721371,-0.546458 -7.569787,-4.631747 -9.295479,-7.832396 -0.75252,-1.395704 -0.463688,-3.73146 0.875197,-7.077665 3.255942,-8.137402 11.750775,-10.979421 18.037216,-6.034505 2.519509,1.981845 3.221718,3.598411 3.221718,7.416757 0,9.143039 -5.550346,14.991319 -12.838652,13.527809 z m 6.494449,-6.408199 c 3.38514,-3.153736 3.488717,-5.360274 0.15609,-3.325234 -2.148007,1.311663 -2.776574,1.192651 -4.25883,-0.806366 -2.0581,-2.775615 -0.588725,-5.248964 3.4664,-5.834875 2.455627,-0.354804 2.396589,-0.52726 -0.921623,-2.692159 l -3.545322,-2.313073 -2.829284,3.535802 c -3.741584,4.675916 -3.784992,10.654774 -0.09029,12.43666 3.972418,1.915825 5.034478,1.783346 8.02286,-1.000755 z m 14.048403,4.989741 C 48.975979,51.72158 46.890363,44.56836 49.426155,38.499356 c 2.138383,-5.117871 5.10849,-6.868137 11.654853,-6.868137 7.261121,0 12.375672,4.888865 12.653446,12.095097 0.18625,4.831859 -0.269085,5.781628 -4.543014,9.476147 -5.453304,4.71401 -9.32911,5.156927 -14.979303,1.711796 z m 12.697701,-5.155248 c 3.625949,-3.406401 3.671303,-8.689585 0.103137,-12.013836 -8.178984,-7.619884 -17.100499,-0.291924 -12.640403,10.382585 1.525829,3.651826 2.380997,4.289847 5.749866,4.289847 2.380367,0 5.085218,-1.059478 6.7874,-2.658596 z M 55.882192,47.934268 c -1.595674,-1.595672 -0.781961,-6.610707 1.195756,-7.369628 2.867952,-1.100537 5.60575,2.930914 4.012338,5.908231 -1.224207,2.287451 -3.690107,2.979384 -5.208094,1.461397 z M 11.022956,43.470899 c 1.780573,-5.568729 0.938019,-6.930558 -2.4121148,-3.898727 -2.3672655,2.142345 -3.3347559,7.887871 -1.6174229,9.605204 1.2033506,1.203351 2.3305733,-0.392979 4.0295377,-5.706477 z m 83.171404,-1.40812 c 0,-3.328982 -3.301387,-7.986103 -5.661269,-7.986103 -1.019928,0 -1.652618,0.687785 -1.405976,1.528411 0.246641,0.840626 1.198043,4.222987 2.114226,7.516358 1.516481,5.451244 1.813105,5.786478 3.309402,3.74017 0.90399,-1.236279 1.643617,-3.395755 1.643617,-4.798836 z"
       id="path837" />
  </g>
</svg>
