<?xml version="1.0" encoding="UTF-8" standalone="no"?>
<svg
   xmlns:dc="http://purl.org/dc/elements/1.1/"
   xmlns:cc="http://creativecommons.org/ns#"
   xmlns:rdf="http://www.w3.org/1999/02/22-rdf-syntax-ns#"
   xmlns:svg="http://www.w3.org/2000/svg"
   xmlns="http://www.w3.org/2000/svg"
   xmlns:sodipodi="http://sodipodi.sourceforge.net/DTD/sodipodi-0.dtd"
   xmlns:inkscape="http://www.inkscape.org/namespaces/inkscape"
   version="1.1"
   id="svg2"
   width="100"
   height="100"
   viewBox="0 0 100 100"
   sodipodi:docname="star.svg"
   inkscape:version="1.0.2 (e86c870879, 2021-01-15)">
  <metadata
     id="metadata8">
    <rdf:RDF>
      <cc:Work
         rdf:about="">
        <dc:format>image/svg+xml</dc:format>
        <dc:type
           rdf:resource="http://purl.org/dc/dcmitype/StillImage" />
        <dc:title></dc:title>
      </cc:Work>
    </rdf:RDF>
  </metadata>
  <defs
     id="defs6" />
  <sodipodi:namedview
     pagecolor="#ffffff"
     bordercolor="#666666"
     borderopacity="1"
     objecttolerance="10"
     gridtolerance="10"
     guidetolerance="10"
     inkscape:pageopacity="0"
     inkscape:pageshadow="2"
     inkscape:window-width="1360"
     inkscape:window-height="731"
     id="namedview4"
     showgrid="false"
     borderlayer="true"
     inkscape:zoom="2.5963855"
     inkscape:cx="15.925361"
     inkscape:cy="23.92704"
     inkscape:window-x="0"
     inkscape:window-y="0"
     inkscape:window-maximized="1"
     inkscape:current-layer="g10" />
  <g
     inkscape:groupmode="layer"
     inkscape:label="Image"
     id="g10">
    <path
       style="fill:#000000;stroke-width:1"
       d="m 59.168756,93.624125 c -1.168397,-1.7832 -2.124358,-3.724333 -2.124358,-4.31363 0,-0.589297 -1.928864,-4.130624 -4.286366,-7.869614 l -4.286365,-6.798165 -6.988373,10.661668 c -7.86821,12.003974 -9.33242,11.23389 -5.919787,-3.113441 1.047418,-4.40354 2.229071,-9.857752 2.625895,-12.12047 l 0.721497,-4.114034 -4.785071,1.697499 c -2.63179,0.933624 -8.434955,3.238061 -12.895923,5.120969 -7.400221,3.123524 -10.573,3.421928 -10.573,0.994405 0,-0.499055 4.615714,-4.378779 10.257141,-8.621609 5.641427,-4.242829 10.280176,-8.061079 10.308332,-8.484998 0.02816,-0.423918 -6.077399,-3.373362 -13.567896,-6.554322 C 10.163985,46.927426 4.076741,43.870107 4.1272743,43.314342 4.1778084,42.758579 10.660976,42.406395 18.534317,42.531711 L 32.849479,42.75956 26.907357,31.858594 C 17.514462,14.6271 19.270029,13.691469 34.494922,27.814798 l 10.308332,9.562494 0.923345,-5.43441 C 47.351094,22.381819 50.98192,7.7417185 51.863791,7.1966922 52.333226,6.9065654 54.06209,13.28906 55.705711,21.380014 l 2.988401,14.710826 4.007174,-2.842766 c 2.203945,-1.56352 7.753138,-5.6731 12.33154,-9.1324 4.795851,-3.623596 8.533946,-5.660901 8.818797,-4.806347 0.634111,1.902334 -1.715695,5.379764 -9.967991,14.751417 -3.657621,4.153749 -6.45064,8.151012 -6.206709,8.882804 0.243931,0.731794 2.15527,1.500763 4.247419,1.708821 21.156801,2.103985 25.064842,2.881019 25.064842,4.983635 0,0.914009 -2.022951,1.990115 -4.495446,2.391345 -6.940991,1.126368 -23.852467,6.43059 -23.852467,7.481239 0,0.515738 4.481574,5.026751 9.959055,10.024474 6.656928,6.073867 9.530679,9.515144 8.667094,10.378728 -0.863583,0.863583 -2.56355,0.617191 -5.127023,-0.743109 -2.109285,-1.119287 -8.040187,-3.970847 -13.17978,-6.336801 l -9.344716,-4.301735 0.720576,7.337075 c 0.396317,4.035392 1.351578,9.833139 2.122802,12.883885 1.75212,6.930881 -0.122823,9.707537 -3.290523,4.87302 z"
       id="path837" />
  </g>
</svg>
