<?xml version="1.0" encoding="UTF-8" standalone="no"?>
<svg
   xmlns:dc="http://purl.org/dc/elements/1.1/"
   xmlns:cc="http://creativecommons.org/ns#"
   xmlns:rdf="http://www.w3.org/1999/02/22-rdf-syntax-ns#"
   xmlns:svg="http://www.w3.org/2000/svg"
   xmlns="http://www.w3.org/2000/svg"
   xmlns:sodipodi="http://sodipodi.sourceforge.net/DTD/sodipodi-0.dtd"
   xmlns:inkscape="http://www.inkscape.org/namespaces/inkscape"
   version="1.1"
   id="svg2"
   width="100"
   height="100"
   viewBox="0 0 100 100"
   sodipodi:docname="star-outline.png.svg"
   inkscape:version="1.0.2 (e86c870879, 2021-01-15)">
  <metadata
     id="metadata8">
    <rdf:RDF>
      <cc:Work
         rdf:about="">
        <dc:format>image/svg+xml</dc:format>
        <dc:type
           rdf:resource="http://purl.org/dc/dcmitype/StillImage" />
        <dc:title></dc:title>
      </cc:Work>
    </rdf:RDF>
  </metadata>
  <defs
     id="defs6" />
  <sodipodi:namedview
     pagecolor="#ffffff"
     bordercolor="#666666"
     borderopacity="1"
     objecttolerance="10"
     gridtolerance="10"
     guidetolerance="10"
     inkscape:pageopacity="0"
     inkscape:pageshadow="2"
     inkscape:window-width="1360"
     inkscape:window-height="731"
     id="namedview4"
     showgrid="false"
     borderlayer="true"
     inkscape:zoom="3.6281312"
     inkscape:cx="39.025483"
     inkscape:cy="39.841567"
     inkscape:window-x="0"
     inkscape:window-y="0"
     inkscape:window-maximized="1"
     inkscape:current-layer="g10" />
  <g
     inkscape:groupmode="layer"
     inkscape:label="Image"
     id="g10">
    <path
       style="fill:#000000;stroke-width:1"
       d="m 62.457149,92.625109 c -2.88542,-2.712326 -8.087245,-8.122393 -11.55961,-12.022371 l -6.313393,-7.09087 -13.689848,7.009062 c -7.529417,3.854983 -13.975936,6.722975 -14.325596,6.373315 -0.880216,-0.880217 3.8434,-17.547677 7.177276,-25.325297 1.51098,-3.524973 2.576329,-7.202151 2.367441,-8.171507 -0.208887,-0.969354 -4.176143,-4.259578 -8.816124,-7.311609 -4.63998,-3.05203 -8.6443987,-6.20106 -8.8987078,-6.997847 -0.2850022,-0.89295 4.6213458,-2.377704 12.7896068,-3.870377 l 13.251986,-2.421676 7.893133,-14.1635 c 4.341223,-7.789924 8.431792,-14.1634983 9.090154,-14.1634983 1.343768,0 1.338595,-0.021124 1.766765,7.2135503 0.953877,16.117353 2.412346,24.36359 4.507369,25.484813 1.20035,0.642408 9.254494,1.863044 17.8981,2.712526 8.643606,0.849482 16.010746,1.84927 16.371424,2.22175 0.863723,0.891987 -5.982855,6.148756 -16.825176,12.918283 -10.024755,6.259074 -9.797566,5.36447 -6.314198,24.86347 3.53066,19.763726 2.753355,21.318404 -6.370602,12.741783 z M 66.492953,80.360783 C 65.401164,73.605986 64.145832,66.289138 63.703328,64.10112 62.936043,60.307195 63.390178,59.799517 73.506709,53.141921 79.341076,49.302379 84.422356,45.66305 84.798447,45.054523 85.507289,43.907593 84.439094,43.691913 65.52208,41.162417 L 54.15991,39.643119 52.734424,31.457364 C 51.950405,26.9552 51.267454,21.549356 51.216753,19.444379 50.991988,10.112655 49.486574,10.782035 42.490917,23.324311 L 35.658021,35.57478 28.64628,36.398872 c -3.856458,0.453251 -8.880888,1.475681 -11.165401,2.272066 l -4.153659,1.447974 6.795539,5.106071 c 3.737546,2.808339 7.414287,5.315367 8.170533,5.571177 0.833536,0.281953 -0.623783,6.512088 -3.700754,15.820975 -2.791662,8.445728 -4.80491,15.626707 -4.473886,15.957732 0.753091,0.75309 17.886196,-8.18072 21.119914,-11.012675 2.24392,-1.965131 3.122307,-1.322267 14.427099,10.558729 6.620736,6.958194 12.211999,12.172024 12.42503,11.586286 0.213031,-0.585736 -0.505953,-6.591627 -1.597742,-13.346424 z"
       id="path837" />
  </g>
</svg>
