<?xml version="1.0" encoding="UTF-8" standalone="no"?>
<svg
   xmlns:dc="http://purl.org/dc/elements/1.1/"
   xmlns:cc="http://creativecommons.org/ns#"
   xmlns:rdf="http://www.w3.org/1999/02/22-rdf-syntax-ns#"
   xmlns:svg="http://www.w3.org/2000/svg"
   xmlns="http://www.w3.org/2000/svg"
   xmlns:sodipodi="http://sodipodi.sourceforge.net/DTD/sodipodi-0.dtd"
   xmlns:inkscape="http://www.inkscape.org/namespaces/inkscape"
   version="1.1"
   id="svg2"
   width="100"
   height="100"
   viewBox="0 0 100 100"
   sodipodi:docname="controller.svg"
   inkscape:version="1.0.2 (e86c870879, 2021-01-15)">
  <metadata
     id="metadata8">
    <rdf:RDF>
      <cc:Work
         rdf:about="">
        <dc:format>image/svg+xml</dc:format>
        <dc:type
           rdf:resource="http://purl.org/dc/dcmitype/StillImage" />
        <dc:title></dc:title>
      </cc:Work>
    </rdf:RDF>
  </metadata>
  <defs
     id="defs6" />
  <sodipodi:namedview
     pagecolor="#ffffff"
     bordercolor="#666666"
     borderopacity="1"
     objecttolerance="10"
     gridtolerance="10"
     guidetolerance="10"
     inkscape:pageopacity="0"
     inkscape:pageshadow="2"
     inkscape:window-width="1360"
     inkscape:window-height="731"
     id="namedview4"
     showgrid="false"
     borderlayer="true"
     inkscape:zoom="3.9579613"
     inkscape:cx="47.032522"
     inkscape:cy="60.222055"
     inkscape:window-x="0"
     inkscape:window-y="0"
     inkscape:window-maximized="1"
     inkscape:current-layer="g10" />
  <g
     inkscape:groupmode="layer"
     inkscape:label="Image"
     id="g10">
    <path
       style="fill:#000000;stroke-width:0.999999"
       d="m 82.626021,86.376023 c -2.417217,-0.638918 -6.268805,-3.670298 -10.04139,-7.903044 l -6.120067,-6.86656 -4.760112,1.321733 c -5.711793,1.585986 -16.258902,1.640155 -23.878721,0.122639 -4.627514,-0.921587 -5.803648,-0.758812 -7.072436,0.978813 -4.055784,5.554455 -10.999746,11.335167 -13.616139,11.335167 -3.388241,0 -9.0490517,-2.740319 -11.3244517,-5.482008 C 2.2132532,75.545689 2.0250052,67.645625 5.2332966,55.567198 8.6749345,42.610278 17.079189,23.838379 21.151007,20.013105 c 3.619498,-3.400341 18.774619,-6.188932 33.634917,-6.188932 10.512618,0 12.414296,0.354524 17.318644,3.228663 5.079704,2.976905 6.161351,4.587918 13.871578,20.660431 12.290309,25.620014 14.627264,36.426262 9.513774,43.992312 -3.172046,4.693438 -7.218603,6.162605 -12.863899,4.670444 z m 10.088617,-4.874795 c 1.85187,-1.780824 2.464934,-3.97823 2.458961,-8.813671 C 95.163978,64.9162 92.543989,56.759252 84.738457,40.199576 78.347154,26.64023 78.947878,27.143307 63.601728,22.498536 c -2.693446,-0.815218 -4.981373,-2.524953 -5.808715,-4.340771 -1.257187,-2.759224 -1.880319,-2.944968 -7.890848,-2.352112 -10.133819,0.999559 -11.85708,1.551551 -12.65078,4.052279 -0.47531,1.497566 -2.744831,2.832782 -6.36401,3.7441 -3.093883,0.779049 -6.866898,2.230018 -8.384479,3.224375 -1.517581,0.994357 -3.051285,1.515875 -3.408232,1.158926 -2.187639,-2.187637 -14.5622116,34.653789 -14.569203,43.375252 -0.00373,4.658637 6.980712,11.537269 11.714745,11.537269 4.451556,0 11.013606,-6.478511 14.336365,-14.153851 2.723114,-6.290201 5.842294,-9.546921 4.459741,-4.656393 -0.335623,1.187204 -0.816652,2.956763 -1.068955,3.932355 -0.567255,2.193439 6.296794,3.656406 16.809689,3.582726 11.582587,-0.08117 13.50138,-0.955301 13.952406,-6.356161 0.433192,-5.187283 2.699285,-5.011422 2.699285,0.209479 0,2.326885 1.98565,5.60921 6.367334,10.52535 8.813414,9.888429 13.080921,11.13356 18.918567,5.519869 z M 26.313452,52.472542 c -0.452269,-0.452268 -0.822306,-1.839909 -0.822306,-3.083647 0,-1.243737 -0.832585,-2.26134 -1.850188,-2.26134 -1.03741,0 -1.850188,-1.100709 -1.850188,-2.505629 0,-1.378096 0.832584,-2.825121 1.850188,-3.215613 1.017603,-0.390491 1.858687,-1.899476 1.869076,-3.353299 0.01036,-1.453824 0.471056,-3.355935 1.023707,-4.226916 1.523519,-2.401068 5.124698,-0.389042 5.124698,2.863237 0,2.032945 0.806612,2.980449 2.775281,3.260045 1.821592,0.258707 2.775282,1.241877 2.775282,2.86107 0,1.619193 -0.95369,2.602363 -2.775282,2.86107 -1.657024,0.235335 -2.775281,1.254192 -2.775281,2.52859 0,3.432448 -3.437367,6.180053 -5.344987,4.272432 z m 6.847063,-9.1913 c 2.261979,-0.117264 2.08804,-0.310935 -0.885347,-0.985781 -2.035207,-0.461915 -4.690402,-0.257479 -5.900432,0.454301 -1.844672,1.085097 -1.894484,1.358567 -0.308364,1.692953 1.040429,0.219344 1.926874,1.329456 1.969875,2.466917 0.05583,1.476714 0.397181,1.274491 1.193711,-0.707171 0.665749,-1.656291 2.250544,-2.834123 3.930557,-2.921219 z m 32.248738,8.167018 c -0.426248,-1.110783 -0.205197,-2.589408 0.491226,-3.285831 2.010666,-2.010666 5.845363,-0.65554 5.845363,2.065665 0,3.137511 -5.215455,4.141794 -6.336589,1.220166 z M 57.80776,46.880863 c -2.089614,-2.089614 -1.837447,-5.519561 0.470919,-6.405364 2.727088,-1.046482 2.739374,-1.041297 4.25842,1.797067 1.011309,1.889647 0.983569,3.002287 -0.107631,4.317105 -1.790664,2.157617 -2.698109,2.214791 -4.621708,0.291192 z m 3.453684,-2.76416 c 0,-0.299164 -0.555056,-0.886977 -1.233458,-1.306253 -0.678403,-0.419276 -1.233459,-0.174505 -1.233459,0.543934 0,0.718439 0.555056,1.306254 1.233459,1.306254 0.678402,0 1.233458,-0.24477 1.233458,-0.543935 z m 11.409492,0.955087 c -2.487798,-0.995118 -1.76892,-5.106669 1.049258,-6.001124 3.437053,-1.090878 5.817477,1.249605 4.077096,4.008684 -1.469096,2.329 -2.897259,2.884079 -5.126354,1.99244 z m 2.775282,-2.878069 c 0.419276,-0.678403 0.174505,-1.233459 -0.543934,-1.233459 -0.718439,0 -1.306254,0.555056 -1.306254,1.233459 0,0.678402 0.24477,1.233458 0.543934,1.233458 0.299164,0 0.886978,-0.555056 1.306254,-1.233458 z M 63.803507,38.539788 c -2.214937,-1.368907 -1.090886,-5.486379 1.641404,-6.012571 2.562979,-0.493585 4.546563,1.814286 3.624525,4.21708 -0.804921,2.09759 -3.364838,2.97043 -5.265929,1.795491 z M 40.601013,35.125212 c -2.163725,-0.754752 -1.9262,-5.196002 0.324073,-6.059512 1.026242,-0.393806 2.658419,-0.05828 3.627058,0.745622 2.990316,2.481742 -0.111406,6.653265 -3.951131,5.31389 z m 7.893491,-2.146736 c -0.382957,-0.997971 0.192009,-2.702788 1.277702,-3.78848 1.766904,-1.766905 2.17083,-1.777144 3.850373,-0.0976 1.543476,1.543476 1.594838,2.215633 0.289491,3.788481 -2.002086,2.412365 -4.511956,2.457581 -5.417566,0.0976 z m -13.13569,-14.3621 c 0,-1.457148 -7.369034,0.111405 -11.409492,2.428588 -5.554357,3.185402 -3.880484,3.614665 4.008741,1.028037 4.070413,-1.33456 7.400751,-2.890041 7.400751,-3.456625 z m 39.564971,3.338898 C 72.937012,19.561359 65.772147,16.29109 62.514068,16.29109 c -4.812506,0 -1.905208,2.956156 5.007627,5.091784 8.520343,2.632245 9.152157,2.681102 7.40209,0.5724 z"
       id="path837" />
  </g>
</svg>
