<?xml version="1.0" encoding="UTF-8" standalone="no"?>
<svg
   xmlns:dc="http://purl.org/dc/elements/1.1/"
   xmlns:cc="http://creativecommons.org/ns#"
   xmlns:rdf="http://www.w3.org/1999/02/22-rdf-syntax-ns#"
   xmlns:svg="http://www.w3.org/2000/svg"
   xmlns="http://www.w3.org/2000/svg"
   xmlns:sodipodi="http://sodipodi.sourceforge.net/DTD/sodipodi-0.dtd"
   xmlns:inkscape="http://www.inkscape.org/namespaces/inkscape"
   version="1.1"
   id="svg2"
   width="100"
   height="100"
   viewBox="0 0 99.999998 100"
   sodipodi:docname="shell.png"
   inkscape:version="1.0.1 (3bc2e813f5, 2020-09-07)">
  <metadata
     id="metadata8">
    <rdf:RDF>
      <cc:Work
         rdf:about="">
        <dc:format>image/svg+xml</dc:format>
        <dc:type
           rdf:resource="http://purl.org/dc/dcmitype/StillImage" />
        <dc:title></dc:title>
      </cc:Work>
    </rdf:RDF>
  </metadata>
  <defs
     id="defs6" />
  <sodipodi:namedview
     pagecolor="#ffffff"
     bordercolor="#666666"
     borderopacity="1"
     objecttolerance="10"
     gridtolerance="10"
     guidetolerance="10"
     inkscape:pageopacity="0"
     inkscape:pageshadow="2"
     inkscape:window-width="1872"
     inkscape:window-height="1016"
     id="namedview4"
     showgrid="false"
     units="px"
     width="100mm"
     borderlayer="true"
     inkscape:zoom="6.9264323"
     inkscape:cx="46.228419"
     inkscape:cy="50.769595"
     inkscape:window-x="48"
     inkscape:window-y="795"
     inkscape:window-maximized="1"
     inkscape:current-layer="g10" />
  <g
     inkscape:groupmode="layer"
     inkscape:label="Image"
     id="g10">
    <path
       style="fill:#000000;stroke-width:1"
       d="M 29.939606,88.709232 C 19.439512,85.394577 10.819174,77.341153 5.2402782,65.634251 2.8590371,60.637391 2.4261723,58.237492 2.3493968,49.606553 2.2709219,40.784575 2.6088105,38.768509 4.9303838,34.206692 15.695156,13.054256 41.220108,4.5804925 62.183431,15.199847 c 17.508714,8.869359 26.203513,19.741806 33.636635,42.061065 2.855531,8.574236 3.272015,11.202424 2.963814,18.702908 -0.197225,4.799738 -0.693715,9.061649 -1.103312,9.47091 -0.409596,0.409262 -4.97749,-0.03315 -10.150875,-0.983121 C 69.880067,81.21064 54.11676,82.151495 44.465372,87.021961 38.987556,89.78628 34.867481,90.264856 29.939606,88.709232 Z m 5.977661,-9.849401 c 0,-1.984929 0.50634,-3.608962 1.125202,-3.608962 0.61886,0 2.894217,-1.202077 5.056347,-2.671283 2.162131,-1.469205 3.482947,-2.671283 2.935149,-2.671283 -0.547798,0 -0.419001,-0.576997 0.286218,-1.282216 0.705218,-0.705218 1.282216,-2.147711 1.282216,-3.205539 0,-1.057828 0.388179,-1.923324 0.86262,-1.923324 1.246362,0 0.617404,-6.426973 -0.76416,-7.808537 -0.641836,-0.641836 -1.166974,-2.484923 -1.166974,-4.09575 0,-3.382752 -0.265436,-3.60166 -5.514567,-4.547902 -5.628972,-1.014714 -9.453986,2.45271 -10.221983,9.266359 -0.668276,5.92893 0.766583,8.254343 5.093209,8.254343 3.705066,0 4.467776,-1.901512 1.823393,-4.545895 -1.590344,-1.590344 -1.743758,-2.326783 -0.737334,-3.53945 2.994336,-3.607954 8.488769,-0.705668 8.488769,4.483964 0,3.315083 -5.365233,7.875434 -9.265414,7.875434 -5.40653,0 -10.26178,-4.84185 -10.250152,-10.221864 0.03865,-17.88206 18.398366,-21.981416 28.865057,-6.444986 3.975926,5.90174 4.621771,12.587162 1.855558,19.207642 -0.88941,2.128658 -1.359156,3.870287 -1.04388,3.870287 0.315275,0 -0.214403,1.202077 -1.177064,2.671283 -2.056482,3.138588 -2.041212,3.142839 3.838054,1.068513 6.554035,-2.312398 20.724782,-2.076966 28.943091,0.480859 3.682091,1.145995 7.090747,1.838865 7.574791,1.539709 0.484044,-0.299156 0.88008,-1.72952 0.88008,-3.178588 0,-3.322928 -3.231286,-4.683968 -13.356415,-5.625815 -5.62696,-0.523424 -7.479593,-1.09275 -7.479593,-2.298527 0,-2.274595 7.476818,-2.622928 14.868478,-0.692698 5.956608,1.555487 5.96753,1.553875 5.96753,-0.880674 0,-4.130238 -2.358779,-5.054817 -11.966986,-4.690744 -7.426372,0.2814 -8.902598,0.06098 -9.178262,-1.370431 -0.419462,-2.178091 2.693344,-3.017275 11.2615,-3.035994 7.011533,-0.01532 7.617836,-0.45815 5.184158,-3.786403 -1.396858,-1.910317 -1.935551,-1.952197 -8.280977,-0.643783 -3.73281,0.769697 -7.382276,1.89182 -8.109925,2.493606 -0.946824,0.783051 -1.518842,0.583795 -2.011778,-0.700776 -1.070077,-2.788575 0.903473,-3.912373 9.15145,-5.211109 6.724393,-1.058832 7.588087,-1.455733 7.315061,-3.361563 -0.436212,-3.044941 -5.009819,-3.313572 -10.581731,-0.621517 -5.441347,2.628973 -7.358314,2.771039 -7.358314,0.545324 0,-1.993106 7.880782,-5.768333 12.109816,-5.801114 1.93706,-0.01501 2.869028,-0.504523 2.587588,-1.359108 -0.822272,-2.496813 -5.204232,-2.074987 -9.520996,0.916532 -3.479493,2.41129 -4.439199,2.680452 -5.195281,1.457086 -1.249214,-2.02127 0.279135,-3.661612 5.985356,-6.423946 2.598771,-1.258043 4.454809,-2.724594 4.124527,-3.259001 -1.032618,-1.670809 -3.39594,-1.072644 -6.680036,1.690741 -2.626103,2.20972 -3.371307,2.412683 -4.382941,1.193738 -0.962997,-1.160341 -0.393676,-2.130646 2.711994,-4.6221 3.282903,-2.633637 3.629622,-3.269049 2.103371,-3.854727 -1.211808,-0.465014 -2.697446,0.237418 -4.409703,2.084973 -2.712823,2.927184 -6.312576,2.861068 -5.178184,-0.09511 0.406187,-1.058509 0.01957,-1.643217 -1.086528,-1.643217 -2.217292,0 -2.191933,-1.978316 0.05722,-4.463596 2.349317,-2.595966 0.946262,-3.875305 -1.661675,-1.515155 -2.392381,2.165076 -3.766063,0.799409 -2.862745,-2.846045 0.326346,-1.317026 0.317313,-1.793554 -0.02008,-1.058951 -0.983979,2.142429 -4.709404,1.617663 -4.709404,-0.663369 0,-3.260585 -10.266033,-3.909873 -20.487205,-1.295738 C 18.95035,20.138852 14.219059,23.765129 9.00463,35.240452 5.404793,43.162564 5.7365935,57.096443 9.7121855,64.954061 c 4.2249885,8.350543 8.0540335,12.433835 11.6596415,12.433835 2.266231,0 2.864487,0.406384 2.395904,1.627494 -0.504353,1.314323 -0.230416,1.416572 1.423605,0.531367 2.390342,-1.279272 3.539025,-0.04747 2.629857,2.820151 -0.424474,1.338841 0.18394,1.028633 1.90657,-0.972088 4.039254,-4.691331 6.664773,-3.558517 3.87754,1.673015 -1.124046,2.109793 -1.072743,2.193089 0.534257,0.867434 1.017592,-0.839437 1.777707,-3.009601 1.777707,-5.075438 z m 5.548497,1.977067 c -0.492602,-2.576878 -0.625995,-2.649732 -1.369263,-0.747851 -1.278535,3.271521 -1.10961,4.763526 0.470669,4.157116 0.924439,-0.354741 1.247904,-1.581966 0.898594,-3.409265 z m 6.706271,-2.326879 c 0.344984,-0.558195 -0.347885,-1.536775 -1.539709,-2.17462 -2.34011,-1.252389 -2.509963,-1.084663 -1.518378,1.499363 0.728041,1.897245 2.113751,2.203225 3.058087,0.675257 z m 1.635903,-5.396176 c 0,-0.587682 -0.509208,-1.068513 -1.131573,-1.068513 -0.622366,0 -0.834405,0.480831 -0.471197,1.068513 0.363208,0.587682 0.872416,1.068513 1.131574,1.068513 0.259158,0 0.471196,-0.480831 0.471196,-1.068513 z m 1.847638,-4.919613 c -0.355058,-0.355058 -1.276651,-0.393019 -2.047984,-0.08436 -0.852388,0.341097 -0.599197,0.594288 0.64556,0.64556 1.126391,0.0464 1.757481,-0.206146 1.402424,-0.561205 z M 68.535193,25.237109 c -0.328981,-0.328981 -1.191172,-6.77e-4 -1.915981,0.729564 -1.047428,1.055281 -0.924694,1.178015 0.598149,0.598148 1.05379,-0.401259 1.646815,-0.99873 1.317832,-1.327712 z"
       id="path837" />
  </g>
</svg>
