<?xml version="1.0" encoding="UTF-8" standalone="no"?>
<svg
   xmlns:dc="http://purl.org/dc/elements/1.1/"
   xmlns:cc="http://creativecommons.org/ns#"
   xmlns:rdf="http://www.w3.org/1999/02/22-rdf-syntax-ns#"
   xmlns:svg="http://www.w3.org/2000/svg"
   xmlns="http://www.w3.org/2000/svg"
   xmlns:sodipodi="http://sodipodi.sourceforge.net/DTD/sodipodi-0.dtd"
   xmlns:inkscape="http://www.inkscape.org/namespaces/inkscape"
   version="1.1"
   id="svg2"
   width="100"
   height="100"
   viewBox="0 0 100 100"
   sodipodi:docname="cup-and-saucer.svg"
   inkscape:version="1.0.1 (3bc2e813f5, 2020-09-07)">
  <metadata
     id="metadata8">
    <rdf:RDF>
      <cc:Work
         rdf:about="">
        <dc:format>image/svg+xml</dc:format>
        <dc:type
           rdf:resource="http://purl.org/dc/dcmitype/StillImage" />
        <dc:title></dc:title>
      </cc:Work>
    </rdf:RDF>
  </metadata>
  <defs
     id="defs6" />
  <sodipodi:namedview
     pagecolor="#ffffff"
     bordercolor="#666666"
     borderopacity="1"
     objecttolerance="10"
     gridtolerance="10"
     guidetolerance="10"
     inkscape:pageopacity="0"
     inkscape:pageshadow="2"
     inkscape:window-width="1872"
     inkscape:window-height="1016"
     id="namedview4"
     showgrid="false"
     borderlayer="true"
     inkscape:zoom="3.8828829"
     inkscape:cx="50.564101"
     inkscape:cy="80.694931"
     inkscape:window-x="48"
     inkscape:window-y="795"
     inkscape:window-maximized="1"
     inkscape:current-layer="g10" />
  <g
     inkscape:groupmode="layer"
     inkscape:label="Image"
     id="g10">
    <path
       style="fill:#000000;stroke-width:1"
       d="M 47.286612,89.418525 C 37.090921,88.983981 25.011384,87.787811 20.443196,86.760369 6.0808702,83.530101 -0.63681379,78.108678 2.1484063,71.995785 c 1.6056994,-3.524126 4.580756,-4.686965 15.4408387,-6.03525 4.691518,-0.582454 8.751406,-1.280382 9.021976,-1.550951 1.642859,-1.642859 -3.903736,-27.809091 -7.454616,-35.167382 -2.699467,-5.593956 -2.699638,-5.61001 -0.08735,-8.222301 5.821569,-5.821569 26.088091,-7.540338 47.770325,-4.05132 14.243124,2.291946 16.398783,3.167769 16.398783,6.662664 0,1.585056 -0.912817,3.285535 -2.106645,3.924453 -1.158656,0.620093 -2.369576,2.132882 -2.690933,3.361752 -0.460879,1.762406 0.217644,2.498972 3.212571,3.487386 4.359718,1.438838 8.328844,5.917265 8.319695,9.387245 -0.0035,1.306989 -0.538559,4.29316 -1.189139,6.635935 -1.208527,4.351972 -4.64759,6.66624 -13.97174,9.402078 -2.078326,0.609812 -3.494943,1.848894 -3.695138,3.232052 -0.285506,1.972586 0.866196,2.487978 9.549684,4.273534 12.367278,2.543041 16.995764,4.683102 17.897306,8.275134 1.126142,4.486904 -2.707662,8.38239 -10.942785,11.118849 -9.325054,3.098634 -17.669162,3.654886 -40.334627,2.688862 z M 83.800108,84.951612 C 93.268052,82.636493 96.965203,79.929007 95.951575,76.05289 95.336021,73.699011 84.58708,69.829469 75.093044,68.543969 c -5.020167,-0.679734 -5.336588,-0.570375 -5.336588,1.844381 0,1.411826 0.807884,3.459659 1.795297,4.550739 2.435744,2.691467 1.388537,3.903404 -4.295764,4.97151 -10.971302,2.061557 -24.490646,1.393371 -37.034935,-1.830431 l -4.145399,-1.065341 1.617541,-3.871321 c 0.889648,-2.129227 1.617542,-4.140345 1.617542,-4.469152 0,-1.202437 -10.839321,-0.526944 -16.738595,1.043127 -7.1461039,1.901911 -8.4532032,2.957084 -7.4762219,6.035279 1.0144151,3.196139 8.6254839,6.583848 19.1795099,8.536859 12.616167,2.334605 14.762569,2.50622 33.684357,2.693205 13.340155,0.131827 18.725571,-0.2915 25.84032,-2.031212 z M 66.128784,77.473639 c 2.008224,-0.538063 2.279889,-1.010945 1.275813,-2.220784 -0.77571,-0.934673 -2.326205,-1.273498 -3.9559,-0.864471 -1.992492,0.500084 -2.680178,0.209029 -2.680178,-1.134351 0,-1.047254 0.928141,-1.807034 2.207455,-1.807034 1.214101,0 2.707987,-0.935251 3.319747,-2.078336 1.849824,-3.456427 5.441891,-18.246121 6.294107,-25.914854 0.440594,-3.964722 1.227013,-8.693725 1.747598,-10.508898 0.928641,-3.237986 0.878411,-3.287954 -2.659846,-2.645899 -13.298709,2.413192 -29.486245,2.0166 -45.985956,-1.12665 l -3.057367,-0.58244 2.165777,6.294942 c 1.191179,3.462219 2.714798,10.304758 3.385823,15.205642 1.753536,12.807107 4.203884,20.367141 6.823396,21.052158 1.191261,0.311522 2.16593,1.305965 2.16593,2.209875 0,1.241591 -0.824187,1.462449 -3.370477,0.90319 -2.091392,-0.459346 -3.370476,-0.288165 -3.370476,0.451074 0,2.010844 6.93658,2.974285 23.593336,3.276945 5.252325,0.09544 10.697874,-0.134112 12.101218,-0.510109 z M 77.734123,55.559018 c 5.539757,-1.860487 7.491381,-3.965904 8.341732,-8.999088 0.580325,-3.434916 0.300033,-4.965952 -1.215771,-6.640897 -2.618666,-2.893593 -4.269294,-2.777585 -2.681902,0.188486 2.200765,4.112166 0.371164,9.530932 -3.902825,11.559072 -2.079258,0.986672 -4.072392,2.554689 -4.429186,3.48448 -0.776959,2.024723 -0.890625,2.012797 3.887952,0.407947 z m 0.970741,-8.754987 c 1.678154,-3.135658 1.432893,-5.347359 -0.68302,-6.159311 -2.277456,-0.873941 -2.187184,-0.99345 -3.11154,4.11934 -0.604716,3.3448 -0.412034,4.213096 0.934921,4.213096 0.93314,0 2.219978,-0.977906 2.859639,-2.173125 z M 55.712804,28.729449 c 5.910797,-0.126482 7.11786,-0.393659 4.859053,-1.075526 -2.746627,-0.829128 -15.708644,-0.859226 -23.95842,-0.05563 l -3.370477,0.328311 3.932223,0.750433 c 2.162722,0.412737 5.448937,0.631243 7.302699,0.485568 1.853762,-0.145676 6.909477,-0.340594 11.234922,-0.433152 z m 20.457859,-2.809667 c 5.618909,-2.34773 3.836406,-3.672003 -7.639189,-5.675376 -13.14587,-2.294964 -27.160207,-2.605571 -36.386853,-0.80646 -11.704026,2.282176 -17.691124,7.20563 -7.661136,6.300089 2.346029,-0.211808 11.849079,-0.662252 21.117889,-1.000986 13.348606,-0.487833 17.786723,-0.267496 21.346352,1.059774 2.471682,0.92161 4.636599,1.711278 4.810927,1.754818 0.174326,0.04353 2.159731,-0.690796 4.41201,-1.631859 z"
       id="path2193" />
  </g>
</svg>
