<?xml version="1.0" encoding="UTF-8" standalone="no"?>
<svg
   xmlns:dc="http://purl.org/dc/elements/1.1/"
   xmlns:cc="http://creativecommons.org/ns#"
   xmlns:rdf="http://www.w3.org/1999/02/22-rdf-syntax-ns#"
   xmlns:svg="http://www.w3.org/2000/svg"
   xmlns="http://www.w3.org/2000/svg"
   xmlns:sodipodi="http://sodipodi.sourceforge.net/DTD/sodipodi-0.dtd"
   xmlns:inkscape="http://www.inkscape.org/namespaces/inkscape"
   version="1.1"
   id="svg2"
   width="100"
   height="100"
   viewBox="0 0 100 100"
   sodipodi:docname="pear.svg"
   inkscape:version="1.0.2 (e86c870879, 2021-01-15)">
  <metadata
     id="metadata8">
    <rdf:RDF>
      <cc:Work
         rdf:about="">
        <dc:format>image/svg+xml</dc:format>
        <dc:type
           rdf:resource="http://purl.org/dc/dcmitype/StillImage" />
        <dc:title></dc:title>
      </cc:Work>
    </rdf:RDF>
  </metadata>
  <defs
     id="defs6" />
  <sodipodi:namedview
     pagecolor="#ffffff"
     bordercolor="#666666"
     borderopacity="1"
     objecttolerance="10"
     gridtolerance="10"
     guidetolerance="10"
     inkscape:pageopacity="0"
     inkscape:pageshadow="2"
     inkscape:window-width="1360"
     inkscape:window-height="731"
     id="namedview4"
     showgrid="false"
     borderlayer="true"
     inkscape:zoom="2.2216495"
     inkscape:cx="36.469737"
     inkscape:cy="12.461929"
     inkscape:window-x="0"
     inkscape:window-y="0"
     inkscape:window-maximized="1"
     inkscape:current-layer="g10" />
  <g
     inkscape:groupmode="layer"
     inkscape:label="Image"
     id="g10">
    <path
       style="fill:#000000;stroke-width:1"
       d="M 42.679975,97.665661 C 35.499138,95.080133 31.312179,91.843821 27.537222,85.961062 22.209718,77.658868 23.473172,66.702681 31.622397,50.536004 34.198044,45.426358 35.98484,40.409609 35.98484,38.287662 c 0,-1.976699 0.994016,-6.838825 2.208926,-10.804724 2.201612,-7.186849 4.445503,-10.877705 6.63179,-10.908279 0.633478,-0.0088 1.802161,-0.428081 2.597073,-0.931605 1.197831,-0.758748 1.11384,-1.476606 -0.490543,-4.192611 -1.06471,-1.8024111 -2.780083,-3.545064 -3.811937,-3.8725621 -1.031856,-0.327498 -1.876101,-1.3248602 -1.876101,-2.2163603 0,-1.2320649 0.675061,-1.4514797 2.814013,-0.914637 1.852612,0.4649761 4.014139,0.059961 6.326775,-1.1854748 2.686362,-1.4467015 3.942104,-1.6209248 5.33776,-0.740568 2.724722,1.7187104 2.203884,4.0336425 -0.990593,4.4028291 -6.239591,0.7211111 -5.785038,6.8011011 0.59799,7.9985641 4.277577,0.802478 9.509159,4.825406 11.644128,8.95398 0.804187,1.555126 2.456587,6.941124 3.672001,11.968887 1.215413,5.027763 4.178442,13.283913 6.584507,18.347001 5.531372,11.639673 6.30723,18.953037 2.955978,27.863552 -3.161374,8.405659 -8.645609,12.747431 -19.582415,15.503055 -10.125874,2.551301 -11.11901,2.557231 -17.924217,0.106952 z m 17.081258,-3.047038 c 13.3824,-3.359782 19.349114,-10.710761 19.349114,-23.83807 0,-4.15961 -0.982506,-7.419193 -4.302917,-14.275447 C 72.440826,51.618348 69.406001,43.299151 68.063375,38.018002 65.154216,26.574976 63.196747,22.498569 59.423984,20.026559 56.355386,18.015937 49.093699,17.796999 45.700825,19.61281 c -2.298558,1.230151 -6.56046,13.478636 -6.56046,18.85442 0,1.875436 -1.861152,7.305361 -4.135894,12.066501 -5.785763,12.109873 -7.401407,17.270485 -7.419057,23.697594 -0.01765,6.428269 1.513855,9.864915 6.554388,14.707812 3.613726,3.472033 12.131091,7.466329 16.0449,7.524402 1.157026,0.01717 5.466465,-0.813045 9.576531,-1.844916 z m -0.434274,-61.27728 c 0.2073,-0.621902 0.826572,-1.13073 1.376159,-1.13073 0.549588,0 1.168859,0.508828 1.376159,1.13073 0.207302,0.621901 -0.41197,1.130729 -1.376159,1.130729 -0.964188,0 -1.58346,-0.508828 -1.376159,-1.130729 z M 55.969831,26.05734 c 0,-0.578513 0.445394,-1.051842 0.989765,-1.051842 0.544371,0 1.282298,0.473329 1.639839,1.051842 0.357541,0.578513 -0.08785,1.051842 -0.989765,1.051842 -0.901911,0 -1.639839,-0.473329 -1.639839,-1.051842 z"
       id="path837" />
  </g>
</svg>
