<?xml version="1.0" encoding="UTF-8" standalone="no"?>
<svg
   xmlns:dc="http://purl.org/dc/elements/1.1/"
   xmlns:cc="http://creativecommons.org/ns#"
   xmlns:rdf="http://www.w3.org/1999/02/22-rdf-syntax-ns#"
   xmlns:svg="http://www.w3.org/2000/svg"
   xmlns="http://www.w3.org/2000/svg"
   xmlns:sodipodi="http://sodipodi.sourceforge.net/DTD/sodipodi-0.dtd"
   xmlns:inkscape="http://www.inkscape.org/namespaces/inkscape"
   version="1.1"
   id="svg2"
   width="100"
   height="100"
   viewBox="0 0 100 100"
   sodipodi:docname="incoming.svg"
   inkscape:version="1.0.1 (3bc2e813f5, 2020-09-07)">
  <metadata
     id="metadata8">
    <rdf:RDF>
      <cc:Work
         rdf:about="">
        <dc:format>image/svg+xml</dc:format>
        <dc:type
           rdf:resource="http://purl.org/dc/dcmitype/StillImage" />
        <dc:title></dc:title>
      </cc:Work>
    </rdf:RDF>
  </metadata>
  <defs
     id="defs6" />
  <sodipodi:namedview
     pagecolor="#ffffff"
     bordercolor="#666666"
     borderopacity="1"
     objecttolerance="10"
     gridtolerance="10"
     guidetolerance="10"
     inkscape:pageopacity="0"
     inkscape:pageshadow="2"
     inkscape:window-width="1872"
     inkscape:window-height="1016"
     id="namedview4"
     showgrid="false"
     units="px"
     width="100in"
     borderlayer="true"
     inkscape:zoom="3.9907407"
     inkscape:cx="58.645701"
     inkscape:cy="55.398249"
     inkscape:window-x="48"
     inkscape:window-y="795"
     inkscape:window-maximized="1"
     inkscape:current-layer="g10" />
  <g
     inkscape:groupmode="layer"
     inkscape:label="Image"
     id="g10">
    <path
       style="fill:#000000;stroke-width:1"
       d="M 52.441748,98.806363 C 37.885518,97.395971 28.433476,93.052235 17.744094,82.860858 11.732059,77.128916 4.0932187,64.064507 4.0932187,59.514302 4.0932187,51.575336 16.178247,35.479459 36.006776,17.009087 44.56457,9.0374607 53.361672,3.806361 60.944518,2.1801307 c 4.888453,-1.0483851 6.129154,-0.9254853 9.857189,0.9764161 4.626613,2.3603213 11.611361,9.4230282 15.378535,15.5501782 4.573123,7.437993 10.194188,34.436582 10.208237,49.031273 0.0035,3.701245 -0.697526,8.724895 -1.557975,11.163665 -0.860447,2.43877 -1.318461,4.680119 -1.017805,4.980773 0.853343,0.853345 -2.479334,6.577028 -5.11579,8.786077 -2.602699,2.180764 -16.490894,6.073327 -23.557163,6.602556 -2.451224,0.183593 -8.165324,-0.02553 -12.697998,-0.464706 z m 20.1146,-17.282897 c 3.464241,-7.252335 4.46704,-8.130844 9.493627,-8.316964 2.830104,-0.104795 2.951407,-0.32304 2.199201,-3.956814 -0.437865,-2.115248 -1.078823,-6.474404 -1.424351,-9.687012 -0.546854,-5.08447 -0.387661,-5.794778 1.228939,-5.483448 1.178478,0.226953 1.944449,1.558432 2.095995,3.643446 0.131353,1.807183 0.692395,6.252629 1.24676,9.878769 0.554367,3.626139 0.988444,8.44297 0.964618,10.704068 -0.04836,4.589321 0.65819,5.842373 2.613049,4.634202 0.981907,-0.606852 1.121111,-4.491361 0.545381,-15.218946 -1.831336,-34.123345 -2.048314,-35.831305 -4.551975,-35.831305 -1.942634,0 -1.173023,0.163286 -10.320719,-2.189723 -4.242602,-1.0913 -9.236513,-2.948281 -11.097578,-4.126625 -3.308764,-2.09496 -13.107547,-13.180154 -13.107547,-14.82834 0,-1.8311954 -2.771784,-0.6262 -7.531989,3.27443 -2.756189,2.258491 -6.32728,4.854477 -7.935755,5.768859 -7.549187,4.291541 -18.121544,19.832768 -24.864418,36.55037 -0.914105,2.266338 -2.102792,4.120614 -2.6415273,4.120614 -1.8863211,0 -0.9560559,3.41856 1.5834243,5.818805 7.890818,7.458175 11.449917,10.315739 17.043361,13.683935 10.186067,6.133729 10.981308,6.019592 16.687374,-2.395076 5.447577,-8.033476 7.297394,-9.1347 11.762459,-7.002367 2.646435,1.263829 3.197143,2.411697 4.258829,8.876898 1.37905,8.397804 4.132004,12.628616 6.784771,10.427015 0.894839,-0.742651 3.130471,-4.497806 4.968071,-8.344791 z M 62.630387,77.322165 C 62.945013,73.603214 62.803998,70.141899 62.317021,69.630354 60.89764,68.139367 64.97276,53.31665 66.80205,53.31665 c 0.929335,0 1.46332,0.899057 1.305279,2.197661 -1.876427,15.41841 -3.821952,26.490034 -4.818372,27.420465 -0.90314,0.843329 -1.078391,-0.650236 -0.65857,-5.612611 z m 7.812986,2.36641 c 1.73824,-6.02314 4.972664,-20.164799 5.277724,-23.075434 0.190025,-1.81307 0.839974,-3.049254 1.444331,-2.747076 1.276085,0.638043 1.517374,17.566772 0.250506,17.575464 -0.466577,0.0032 -2.368979,2.354569 -4.227558,5.225263 -1.858577,2.870694 -3.09383,4.230496 -2.745003,3.021783 z m -29.894621,-0.84841 c 0.195403,-0.768803 4.04035,-7.444197 8.544325,-14.834208 7.367493,-12.0884 11.040482,-16.080007 11.040482,-11.998202 0,1.851256 -7.262066,13.931141 -9.791861,16.288005 -1.064638,0.99186 -3.376411,4.083739 -5.137271,6.870842 -3.042047,4.81497 -5.423349,6.693938 -4.655675,3.673563 z M 29.366313,56.489153 c -2.719604,-2.171709 -5.872104,-4.605669 -7.005555,-5.408799 -3.237275,-2.293838 -1.536292,-6.057502 7.296321,-16.144138 9.360344,-10.689292 11.727682,-12.850449 14.130334,-12.899669 2.594265,-0.05314 11.629292,5.232418 12.406555,7.257934 0.410742,1.070375 -1.58507,4.937065 -5.242058,10.155977 -3.24793,4.635143 -6.944751,10.464971 -8.215158,12.955174 -2.609086,5.114232 -5.219447,8.058489 -7.130653,8.042749 -0.712277,-0.0059 -3.520181,-1.787518 -6.239786,-3.959228 z m 10.957974,-5.485636 c 1.91177,-3.387472 5.667212,-8.9503 8.345427,-12.361839 2.678215,-3.411541 4.869793,-6.945361 4.870173,-7.852933 7.27e-4,-1.735969 -8.999433,-7.101423 -10.788447,-6.431543 -1.963984,0.735395 -20.137284,21.888938 -19.764886,23.006133 0.5123,1.536898 11.02746,9.671382 12.593141,9.742001 0.697754,0.03147 2.832821,-2.714347 4.744592,-6.101819 z m 9.599875,-2.218974 c -1.747371,-1.747372 -0.5678,-5.23882 2.962668,-8.769288 6.268988,-6.268988 9.820906,-2.390289 4.736603,5.172378 -2.395958,3.563879 -6.033113,5.263067 -7.699271,3.59691 z m 5.629839,-5.391819 c 1.179404,-2.588511 1.115393,-2.700206 -0.922452,-1.609584 -1.20439,0.64457 -2.189801,1.896259 -2.189801,2.78153 0,2.531252 1.720079,1.883541 3.112253,-1.171946 z M 93.8262,54.690188 c -0.30483,-0.755446 -0.554235,-0.137354 -0.554235,1.373538 0,1.510891 0.249405,2.128983 0.554235,1.373538 0.304829,-0.755446 0.304829,-1.99163 0,-2.747076 z M 86.942317,27.676303 C 88.014242,25.941893 82.729574,17.108292 77.753823,12.317249 70.202366,5.0461172 67.60557,3.9886349 61.1215,5.5441389 c -2.964521,0.7111783 -5.682571,1.7663794 -6.040113,2.3448937 -0.997166,1.6134487 4.356517,9.0008364 9.649902,13.3156124 5.091314,4.150062 10.660144,6.132329 20.335808,7.238685 0.719779,0.0823 1.563628,-0.26286 1.87522,-0.767027 z"
       id="path837" />
  </g>
</svg>
