<?xml version="1.0" encoding="UTF-8" standalone="no"?>
<svg
   xmlns:dc="http://purl.org/dc/elements/1.1/"
   xmlns:cc="http://creativecommons.org/ns#"
   xmlns:rdf="http://www.w3.org/1999/02/22-rdf-syntax-ns#"
   xmlns:svg="http://www.w3.org/2000/svg"
   xmlns="http://www.w3.org/2000/svg"
   xmlns:sodipodi="http://sodipodi.sourceforge.net/DTD/sodipodi-0.dtd"
   xmlns:inkscape="http://www.inkscape.org/namespaces/inkscape"
   version="1.1"
   id="svg2"
   width="100"
   height="100"
   viewBox="0 0 100 100"
   sodipodi:docname="pencil.svg"
   inkscape:version="1.0.2 (e86c870879, 2021-01-15)">
  <metadata
     id="metadata8">
    <rdf:RDF>
      <cc:Work
         rdf:about="">
        <dc:format>image/svg+xml</dc:format>
        <dc:type
           rdf:resource="http://purl.org/dc/dcmitype/StillImage" />
        <dc:title></dc:title>
      </cc:Work>
    </rdf:RDF>
  </metadata>
  <defs
     id="defs6" />
  <sodipodi:namedview
     pagecolor="#ffffff"
     bordercolor="#666666"
     borderopacity="1"
     objecttolerance="10"
     gridtolerance="10"
     guidetolerance="10"
     inkscape:pageopacity="0"
     inkscape:pageshadow="2"
     inkscape:window-width="1360"
     inkscape:window-height="731"
     id="namedview4"
     showgrid="false"
     borderlayer="true"
     inkscape:zoom="4.6847826"
     inkscape:cx="50.58427"
     inkscape:cy="45.985184"
     inkscape:window-x="0"
     inkscape:window-y="0"
     inkscape:window-maximized="1"
     inkscape:current-layer="g10" />
  <g
     inkscape:groupmode="layer"
     inkscape:label="Image"
     id="g10">
    <path
       style="fill:#000000;stroke-width:1"
       d="m 11.813842,94.322381 c -0.70944,-0.709441 -0.508276,-7.633066 0.988916,-34.036277 0.486552,-8.580437 0.605037,-8.890076 5.087185,-13.294359 4.729759,-4.647592 15.387575,-19.051524 15.387575,-20.796153 0,-0.540759 3.115865,-4.829507 6.924145,-9.530551 3.80828,-4.701044 7.671954,-9.6666464 8.585941,-11.0346725 L 50.449399,3.143048 57.65051,5.3554323 c 3.960612,1.2168113 8.087755,2.2161927 9.171429,2.2208476 1.083675,0.00465 6.06906,2.8109251 11.078633,6.2361571 9.037893,6.179543 9.132549,6.293973 12.242363,14.799822 l 3.134047,8.572129 -5.62674,5.868578 c -3.094706,3.227717 -5.626739,6.199507 -5.626739,6.603976 0,0.404469 -1.515172,2.4325 -3.367049,4.506737 -1.851878,2.074235 -5.117417,6.901285 -7.256754,10.726777 -2.139336,3.825492 -6.520767,10.070161 -9.736512,13.877043 -3.215745,3.806882 -6.375177,7.881225 -7.020961,9.054095 -0.645783,1.172869 -2.102622,2.260903 -3.237421,2.41785 -3.702838,0.512121 -18.501684,2.589438 -26.648478,3.740653 -9.420137,1.331149 -11.888345,1.396424 -12.942486,0.342284 z m 35.865899,-6.946548 c 1.523312,-0.403331 3.37157,-1.935422 4.107239,-3.404646 1.14917,-2.295036 1.004928,-3.02541 -1.024014,-5.185119 -1.298876,-1.382591 -3.0225,-2.513803 -3.830273,-2.513803 -0.807773,0 -1.468679,-0.498538 -1.468679,-1.107863 0,-0.609325 -0.93476,-1.107863 -2.077244,-1.107863 -1.414668,0 -2.28606,-1.044085 -2.731906,-3.273315 -0.875986,-4.379925 -5.558837,-7.558543 -8.067827,-5.476266 -1.536568,1.275239 -2.118507,1.080478 -4.148941,-1.388544 -3.155384,-3.83697 -6.551915,-5.467745 -10.725675,-5.149716 -3.177463,0.242114 -3.397926,0.515851 -2.80463,3.482335 0.354153,1.770761 0.643913,4.902133 0.643913,6.958604 0,2.631159 0.506455,3.739039 1.709257,3.739039 2.218338,0 12.415675,9.54458 14.496591,13.568627 1.543782,2.985346 1.848002,3.082314 7.381337,2.352767 3.174157,-0.418499 7.01754,-1.090906 8.540852,-1.494237 z m 13.458,-12.952558 c 2.222639,-2.786478 5.356872,-7.666778 6.964961,-10.845111 1.60809,-3.178333 6.837789,-10.471445 11.621553,-16.206916 L 88.422007,36.94312 82.730063,36.120361 c -3.13057,-0.452518 -6.766896,-0.951057 -8.080723,-1.107864 -2.735141,-0.326443 -5.25973,2.655413 -16.642129,19.656435 -4.079506,6.093248 -8.397887,12.189316 -9.596404,13.54682 l -2.179119,2.468186 4.878514,4.410523 c 2.683183,2.425786 5.127783,4.40706 5.432445,4.402829 0.304663,-0.0042 2.372455,-2.287537 4.595094,-5.074015 z M 52.954375,55.957492 c 4.064726,-6.192631 9.802189,-14.25056 12.749917,-17.906509 l 5.359505,-6.64718 -4.213951,-3.584074 c -2.317673,-1.971241 -4.531719,-3.591491 -4.920103,-3.600555 -0.817851,-0.01909 -25.209654,30.073015 -27.248031,33.615824 -1.227928,2.134207 -1.039825,2.510127 1.867505,3.732181 1.778133,0.747412 4.137477,2.565566 5.242986,4.040342 1.105509,1.474775 2.406408,2.440185 2.890889,2.145355 0.48448,-0.29483 4.206558,-5.602753 8.271283,-11.795384 z M 43.460266,41.228791 c 5.97666,-7.392078 10.866654,-14.013359 10.866654,-14.713958 0,-0.7006 0.709262,-1.545987 1.576137,-1.878638 2.909118,-1.116333 2.747175,-3.563283 -0.651062,-9.837455 -3.31293,-6.1166717 -3.419574,-6.1973318 -5.595402,-4.232064 -1.219956,1.101898 -4.230209,4.870048 -6.68945,8.373666 -2.459241,3.503617 -4.897652,6.370213 -5.418692,6.370213 -0.521039,0 -0.822709,0.444477 -0.670378,0.987727 0.286263,1.020882 -8.100196,13.148542 -15.759995,22.790533 l -4.368136,5.498517 5.007628,1.271487 c 2.754196,0.699318 5.562588,1.826446 6.240869,2.504727 0.905745,0.905745 1.679633,0.578927 2.914207,-1.230686 0.924531,-1.355161 6.57096,-8.511992 12.54762,-15.904069 z M 87.56282,32.244706 c 0,-0.32111 -0.58553,-2.538161 -1.301179,-4.926783 C 85.187594,23.733075 83.495455,21.959028 76.567837,17.15489 71.405496,13.574931 65.911346,10.780455 62.293448,9.894544 59.058477,9.1024001 56.232287,8.6336787 56.013025,8.8529411 c -0.219262,0.2192623 1.102034,2.8902119 2.936214,5.9354439 5.326419,8.84329 22.307348,20.460084 27.176451,18.591634 0.790421,-0.303313 1.43713,-0.814204 1.43713,-1.135313 z M 72.096179,24.710645 c -4.709354,-3.32496 -6.972352,-7.142575 -5.374927,-9.067353 0.830562,-1.000766 1.71882,-1.051123 3.330103,-0.18879 3.722195,1.992058 10.864285,8.920241 10.864285,10.538898 0,2.383751 -4.567221,1.719466 -8.819461,-1.282755 z"
       id="path837" />
  </g>
</svg>
