<?xml version="1.0" encoding="UTF-8" standalone="no"?>
<svg
   xmlns:dc="http://purl.org/dc/elements/1.1/"
   xmlns:cc="http://creativecommons.org/ns#"
   xmlns:rdf="http://www.w3.org/1999/02/22-rdf-syntax-ns#"
   xmlns:svg="http://www.w3.org/2000/svg"
   xmlns="http://www.w3.org/2000/svg"
   xmlns:sodipodi="http://sodipodi.sourceforge.net/DTD/sodipodi-0.dtd"
   xmlns:inkscape="http://www.inkscape.org/namespaces/inkscape"
   version="1.1"
   id="svg2"
   width="100"
   height="100"
   viewBox="0 0 100 100"
   sodipodi:docname="flower.svg"
   inkscape:version="1.0.2 (e86c870879, 2021-01-15)">
  <metadata
     id="metadata8">
    <rdf:RDF>
      <cc:Work
         rdf:about="">
        <dc:format>image/svg+xml</dc:format>
        <dc:type
           rdf:resource="http://purl.org/dc/dcmitype/StillImage" />
        <dc:title></dc:title>
      </cc:Work>
    </rdf:RDF>
  </metadata>
  <defs
     id="defs6" />
  <sodipodi:namedview
     pagecolor="#ffffff"
     bordercolor="#666666"
     borderopacity="1"
     objecttolerance="10"
     gridtolerance="10"
     guidetolerance="10"
     inkscape:pageopacity="0"
     inkscape:pageshadow="2"
     inkscape:window-width="1360"
     inkscape:window-height="731"
     id="namedview4"
     showgrid="false"
     borderlayer="true"
     inkscape:zoom="3.2080318"
     inkscape:cx="52.649917"
     inkscape:cy="51.084713"
     inkscape:window-x="0"
     inkscape:window-y="0"
     inkscape:window-maximized="1"
     inkscape:current-layer="g10" />
  <g
     inkscape:groupmode="layer"
     inkscape:label="Image"
     id="g10">
    <path
       style="fill:#000000;stroke-width:1"
       d="m 34.767384,95.754481 c -0.460773,-0.745549 -0.139147,-5.058108 0.714727,-9.583464 0.853873,-4.525358 1.276409,-8.504012 0.938968,-8.841454 -0.337441,-0.337441 -2.158965,-0.02595 -4.047832,0.692191 -9.053482,3.442128 -19.371559,-0.166002 -23.1533487,-8.096501 -3.1558055,-6.617794 -1.7785484,-8.380329 6.5484447,-8.380329 7.993255,0 13.454435,1.918757 19.163029,6.732831 l 3.92178,3.307247 2.111585,-4.428041 c 2.496833,-5.235914 2.682845,-6.691369 0.587367,-4.595891 -2.291346,2.291346 -10.033965,1.824832 -14.454715,-0.870936 -2.151714,-1.312112 -4.937129,-4.545523 -6.189813,-7.185358 -1.995955,-4.206165 -2.08794,-5.647212 -0.743852,-11.65323 1.358363,-6.069808 2.066187,-7.095218 6.189811,-8.967049 2.560833,-1.162435 4.816802,-2.195946 5.013263,-2.296693 0.196463,-0.100751 -0.601235,-1.853162 -1.772662,-3.894257 C 26.857594,22.925398 28.019386,14.045261 32.039329,9.0037739 36.206274,3.7779246 45.42043,2.8048178 49.74906,7.1334498 c 1.680432,1.6804319 3.7576,4.1790922 4.615929,5.5525792 1.194088,1.910764 1.729585,2.087496 2.280147,0.752525 0.395752,-0.959597 2.278147,-3.4890978 4.183102,-5.6211111 2.963046,-3.3162258 4.546248,-3.9525311 10.955912,-4.403301 6.997768,-0.4921295 7.732523,-0.2741713 11.130503,3.3017482 4.915239,5.1726299 5.813925,13.0186249 2.38027,20.7809709 l -2.525197,5.708631 4.318979,1.561763 c 2.37544,0.858971 5.237476,2.963566 6.360082,4.67688 2.980557,4.548905 1.440856,13.914578 -3.069504,18.671146 -3.098478,3.267616 -4.110782,3.598443 -9.197501,3.005797 -3.1437,-0.366267 -6.582609,-1.002253 -7.642019,-1.413302 -1.515834,-0.588139 -1.954922,0.348018 -2.061017,4.394182 -0.155396,5.926404 -2.948445,9.652906 -8.079641,10.779906 -5.295025,1.162984 -12.463219,-2.316667 -14.435537,-7.007433 -1.344491,-3.197604 -1.921604,-3.601223 -3.106969,-2.172947 -2.746287,3.309075 -4.995889,10.46141 -6.582901,20.929537 -1.507962,9.946698 -2.613811,12.185594 -4.506314,9.12346 z M 31.32714,74.716349 c 4.141888,-1.109983 3.549157,-2.507586 -2.540364,-5.989934 -6.171884,-3.529447 -13.47179,-5.116335 -16.04612,-3.488181 -1.472859,0.93152 -1.423338,1.586716 0.306601,4.05655 3.826907,5.463677 10.612772,7.476271 18.279883,5.421565 z m 34.752417,-5.690291 c 2.215624,-2.215625 2.53482,-3.591981 1.841077,-7.938638 -0.461587,-2.892074 -1.707087,-6.584327 -2.767777,-8.205007 -1.816297,-2.775207 -2.105637,-2.830647 -4.971842,-0.952637 -1.673822,1.09673 -4.139922,1.994055 -5.480222,1.994055 -2.394688,0 -3.949397,3.134488 -3.986034,8.036345 -0.02351,3.145415 6.780597,9.746205 10.046405,9.746205 1.450939,0 3.844216,-1.206146 5.318393,-2.680323 z M 41.426005,57.416832 c 4.370731,-4.798664 5.707444,-8.279997 4.235372,-11.03059 -0.723179,-1.351273 -1.314872,-3.666767 -1.314872,-5.145541 0,-3.417044 -7.6101,-6.852839 -12.70169,-5.734538 -4.666837,1.025009 -7.104175,3.99209 -8.17269,9.948976 -0.900657,5.021096 1.08286,9.746882 5.536756,13.19148 3.301767,2.553552 9.533304,1.936385 12.417124,-1.229787 z M 88.078563,55.2926 c 3.585796,-3.962259 3.984382,-11.627849 0.781158,-15.023226 -4.571809,-4.846064 -19.249425,-2.917889 -21.889085,2.875533 -1.18513,2.601077 -0.855661,3.6746 2.285086,7.445613 5.882311,7.062735 14.694325,9.264039 18.822841,4.70208 z M 77.818822,31.282137 C 84.067982,25.649162 85.374156,14.801747 80.457471,9.3688712 77.966529,6.6164095 69.972097,6.0391473 65.73662,8.3059066 60.115269,11.314362 56.638947,27.250007 61.60401,27.250007 c 0.945545,0 3.008756,1.744256 4.584914,3.876123 2.312604,3.127964 3.484489,3.721781 6.071391,3.076495 1.763106,-0.439796 4.264435,-1.754017 5.558507,-2.920488 z M 50.147073,30.274706 C 55.435717,26.24086 55.581728,23.612034 50.98529,15.183277 47.912915,9.5492841 46.997203,8.7886368 42.873329,8.4449751 35.936154,7.8668695 31.644685,13.655239 31.644685,23.590267 c 0,2.504287 9.254537,10.010651 12.342053,10.010651 0.989696,0 3.761846,-1.496796 6.160335,-3.326212 z"
       id="path837" />
  </g>
</svg>
