<?xml version="1.0" encoding="UTF-8" standalone="no"?>
<svg
   xmlns:dc="http://purl.org/dc/elements/1.1/"
   xmlns:cc="http://creativecommons.org/ns#"
   xmlns:rdf="http://www.w3.org/1999/02/22-rdf-syntax-ns#"
   xmlns:svg="http://www.w3.org/2000/svg"
   xmlns="http://www.w3.org/2000/svg"
   xmlns:sodipodi="http://sodipodi.sourceforge.net/DTD/sodipodi-0.dtd"
   xmlns:inkscape="http://www.inkscape.org/namespaces/inkscape"
   version="1.1"
   id="svg2"
   width="100"
   height="100"
   viewBox="0 0 100 100"
   sodipodi:docname="braid.svg"
   inkscape:version="1.0.2 (e86c870879, 2021-01-15)">
  <metadata
     id="metadata8">
    <rdf:RDF>
      <cc:Work
         rdf:about="">
        <dc:format>image/svg+xml</dc:format>
        <dc:type
           rdf:resource="http://purl.org/dc/dcmitype/StillImage" />
        <dc:title></dc:title>
      </cc:Work>
    </rdf:RDF>
  </metadata>
  <defs
     id="defs6" />
  <sodipodi:namedview
     pagecolor="#ffffff"
     bordercolor="#666666"
     borderopacity="1"
     objecttolerance="10"
     gridtolerance="10"
     guidetolerance="10"
     inkscape:pageopacity="0"
     inkscape:pageshadow="2"
     inkscape:window-width="1360"
     inkscape:window-height="731"
     id="namedview4"
     showgrid="false"
     borderlayer="true"
     inkscape:zoom="2.5352941"
     inkscape:cx="43.275656"
     inkscape:cy="22.357353"
     inkscape:window-x="0"
     inkscape:window-y="0"
     inkscape:window-maximized="1"
     inkscape:current-layer="g10" />
  <g
     inkscape:groupmode="layer"
     inkscape:label="Image"
     id="g10">
    <path
       style="fill:#000000;stroke-width:1"
       d="M 63.134405,94.89167 C 59.389086,92.607878 58.515881,90.886871 56.496031,81.808027 L 54.170249,71.354084 H 49.3988 c -2.658069,0 -4.971246,0.762806 -5.222535,1.72221 -3.469904,13.247826 -5.877779,16.789266 -13.928993,20.486398 -8.627678,3.961845 -13.944347,3.388976 -19.426523,-2.0932 -3.779404,-3.779404 -4.68441,-5.758411 -4.68441,-10.243565 0,-3.057536 0.5967773,-7.128797 1.3261703,-9.047247 C 9.4915683,66.841849 19.214116,60.519696 26.975719,59.490083 l 6.715972,-0.890904 v -7.373975 c 0,-6.937271 -0.224384,-7.420036 -3.788861,-8.15175 C 19.244608,40.885538 15.728218,39.328197 13.094377,35.629308 9.5807278,30.694843 9.5806052,29.210503 13.093071,19.822596 18.307986,5.8844866 30.484018,-0.52622227 37.519072,6.9622494 c 3.92945,4.1827086 6.996278,11.8336656 7.959343,19.8565446 0.435454,3.627581 0.939117,6.742983 1.11925,6.923117 0.180132,0.180133 2.476958,-0.02129 5.104056,-0.447612 4.440929,-0.720663 4.786158,-1.141851 4.913398,-5.994473 C 56.974286,13.602143 58.409016,9.4482286 64.076291,5.6978035 68.734555,2.6151096 70.559552,2.2112182 77.303504,2.7704792 86.127075,3.5021982 89.051167,5.9554756 91.720998,14.866574 95.43103,27.249558 87.062236,39.49295 72.874769,42.438256 l -7.494422,1.555837 v 8.168925 8.168925 h 5.994359 c 6.781532,0 14.235371,2.173779 17.694039,5.160148 3.638238,3.141418 4.288448,9.218005 1.874767,17.520774 -1.739776,5.98462 -3.272388,8.299347 -7.313098,11.045079 -6.237165,4.238264 -14.370168,4.569094 -20.496009,0.833726 z m 19.078414,-5.435824 c 5.097566,-4.754958 5.714098,-6.018971 5.802161,-11.89557 0.0924,-6.165889 -0.201709,-6.728547 -4.723654,-9.036869 -5.516735,-2.816132 -38.577494,-5.091956 -38.577494,-2.655584 0,0.744127 0.464997,1.363048 1.033326,1.375379 11.715126,0.254186 32.820012,3.069282 36.22979,4.832546 3.880357,2.006611 4.275833,2.747834 3.534415,6.624392 -1.03501,5.411626 -9.234993,13.320459 -13.810831,13.320459 -4.51476,0 -8.717388,-5.625209 -9.851163,-13.18576 -1.032325,-6.884043 -3.35786,-8.267485 -3.35786,-1.997564 0,6.040652 3.850631,14.619752 7.312839,16.292802 5.971617,2.885675 10.451281,1.882576 16.408471,-3.674231 z M 31.581132,89.118797 c 3.394777,-2.980654 5.464002,-6.43059 6.817522,-11.366583 2.433357,-8.873916 4.127884,-33.953482 2.294104,-33.953482 -1.392857,0 -2.254259,5.327798 -3.494669,21.614615 -0.898011,11.791071 -2.454726,16.365612 -7.296237,21.440624 -4.314195,4.522264 -8.324629,4.804833 -13.246451,0.933327 -4.499882,-3.539606 -4.977452,-10.952683 -0.964151,-14.965983 2.448953,-2.448953 10.775892,-5.574448 14.900464,-5.59285 0.947216,-0.0042 1.72221,-0.627679 1.72221,-1.385451 0,-3.587203 -14.315199,0.329157 -18.768932,5.134815 -5.0420298,5.44044 -4.5955367,14.175887 0.963662,18.853643 5.736291,4.826771 11.014336,4.606444 17.072478,-0.712675 z m 45.448513,-2.087344 c 1.226661,-0.470714 3.176307,-2.685236 4.332547,-4.921159 2.90347,-5.614691 0.813422,-7.642911 -8.472054,-8.221434 l -7.513549,-0.468124 0.0019,4.171183 c 0.0034,7.780623 5.136651,11.939392 11.651176,9.439534 z m -49.88838,-2.933018 c 2.20026,-2.475224 5.562836,-12.813429 4.510078,-13.866187 -0.323341,-0.323341 -3.404902,-0.165457 -6.847912,0.350854 -6.687393,1.002836 -9.022719,3.479149 -9.022719,9.567434 0,5.828617 7.402181,8.400945 11.360553,3.947899 z m 27.235754,-28.93312 c 0.01033,-2.841646 0.403743,-6.604017 0.874213,-8.360825 0.799747,-2.986379 0.507199,-3.165655 -4.496558,-2.755535 l -5.351958,0.43866 -0.413198,7.922164 -0.413198,7.922164 h 4.890943 c 4.7299,0 4.891563,-0.17012 4.909756,-5.166628 z m 7.364416,-13.088793 c 0.506874,-10.040482 1.4782,-20.626993 2.158506,-23.525582 2.028579,-8.643208 8.377836,-11.4001335 16.53731,-7.180705 10.941939,5.658296 5.51464,20.686807 -8.76963,24.283627 -3.458001,0.870736 -6.287274,2.129547 -6.287274,2.797361 0,3.6288 15.552794,-2.045046 19.958708,-7.281176 C 91.109322,24.312475 89.80235,13.804328 82.627643,9.3701147 72.577332,3.1586814 62.327033,7.8500594 60.756069,19.380343 c -1.727702,12.680689 -2.616164,40.9516 -1.286975,40.9516 0.768163,0 1.748242,-7.873713 2.272341,-18.255421 z m -6.005462,-3.788861 c 0,-0.835354 -5.991201,-1.377768 -15.21807,-1.377768 -14.320432,0 -15.417543,-0.199474 -18.599863,-3.381792 -4.877632,-4.877634 -4.464023,-10.633198 1.208978,-16.823515 3.801584,-4.148247 5.215834,-4.852515 8.226836,-4.096801 5.366587,1.346927 6.814789,5.163542 7.783683,20.513247 0.03587,0.568329 0.68522,1.033326 1.442993,1.033326 3.020941,0 0.673965,-16.007367 -3.087206,-21.05604 -0.95424,-1.28089 -3.688023,-2.71235 -6.075075,-3.1810243 -3.634224,-0.7135445 -5.160581,-0.100205 -9.384946,3.7711293 -8.566812,7.850897 -8.002153,20.935349 1.061009,24.586017 4.266988,1.718754 32.641661,1.730247 32.641661,0.01322 z M 35.069459,27.541073 c 0,-8.572292 -4.73051,-11.050132 -10.5889,-5.54646 -3.051037,2.8663 -4.214145,7.919584 -2.270264,9.863465 0.505181,0.505182 3.605158,0.918512 6.888838,0.918512 h 5.970326 z m 44.259655,0.258494 C 84.337634,23.26692 83.05798,15.756343 76.876776,13.406255 71.549405,11.380792 67.103262,16.0962 65.872279,25.0772 l -0.924222,6.742929 6.035664,-0.965141 c 3.319614,-0.530828 7.075042,-1.905767 8.345393,-3.055421 z"
       id="path837" />
  </g>
</svg>
