<?xml version="1.0" encoding="UTF-8" standalone="no"?>
<svg
   xmlns:dc="http://purl.org/dc/elements/1.1/"
   xmlns:cc="http://creativecommons.org/ns#"
   xmlns:rdf="http://www.w3.org/1999/02/22-rdf-syntax-ns#"
   xmlns:svg="http://www.w3.org/2000/svg"
   xmlns="http://www.w3.org/2000/svg"
   xmlns:sodipodi="http://sodipodi.sourceforge.net/DTD/sodipodi-0.dtd"
   xmlns:inkscape="http://www.inkscape.org/namespaces/inkscape"
   version="1.1"
   id="svg2"
   width="100"
   height="100"
   viewBox="0 0 100 100"
   sodipodi:docname="rainbow.svg"
   inkscape:version="1.0.2 (e86c870879, 2021-01-15)">
  <metadata
     id="metadata8">
    <rdf:RDF>
      <cc:Work
         rdf:about="">
        <dc:format>image/svg+xml</dc:format>
        <dc:type
           rdf:resource="http://purl.org/dc/dcmitype/StillImage" />
        <dc:title></dc:title>
      </cc:Work>
    </rdf:RDF>
  </metadata>
  <defs
     id="defs6" />
  <sodipodi:namedview
     pagecolor="#ffffff"
     bordercolor="#666666"
     borderopacity="1"
     objecttolerance="10"
     gridtolerance="10"
     guidetolerance="10"
     inkscape:pageopacity="0"
     inkscape:pageshadow="2"
     inkscape:window-width="1360"
     inkscape:window-height="731"
     id="namedview4"
     showgrid="false"
     borderlayer="true"
     inkscape:zoom="3.1691177"
     inkscape:cx="59.508829"
     inkscape:cy="12.895145"
     inkscape:window-x="0"
     inkscape:window-y="0"
     inkscape:window-maximized="1"
     inkscape:current-layer="g10" />
  <g
     inkscape:groupmode="layer"
     inkscape:label="Image"
     id="g10">
    <path
       style="fill:#000000;stroke-width:1"
       d="M 19.188403,78.488844 C 16.349989,75.32564 10.439353,65.290089 5.0136704,54.421847 L 0.69373757,45.768545 3.5399033,43.605219 C 14.191621,35.509017 24.045335,29.898396 32.058234,27.367122 c 18.537935,-5.856131 31.435227,-5.538005 44.880538,1.107028 11.010272,5.441572 25.145538,18.916889 19.843337,18.916889 -1.835515,0 -17.925269,16.658201 -17.573816,18.194694 0.189298,0.827578 -0.274255,1.298544 -1.030117,1.04659 -1.321872,-0.440624 -4.55223,1.822973 -8.553428,5.99361 -1.834962,1.91267 -2.053196,1.867256 -6.497357,-1.352078 -5.33254,-3.862872 -9.52677,-4.224481 -18.407947,-1.587054 -6.529818,1.939147 -19.938824,8.404529 -21.003487,10.12719 -1.034332,1.673584 -2.12252,1.355087 -4.527554,-1.325147 z m 7.215066,-3.512907 c 1.573386,-1.32283 8.343606,-4.995016 8.912385,-4.834103 0.154962,0.04384 2.228742,-0.775836 4.6084,-1.821503 5.742134,-2.523202 18.246039,-2.54805 22.714919,-0.04514 1.784744,0.999592 4.011951,1.820438 4.94935,1.824103 1.794408,0.007 7.142134,-5.02818 6.268322,-5.901992 -0.279879,-0.27988 -3.382998,-1.779947 -6.895819,-3.333483 -11.973234,-5.295135 -26.414923,-3.221589 -41.098388,5.900927 -7.556215,4.69451 -8.119754,5.386761 -6.779603,8.328071 1.25994,2.765269 3.943338,2.722424 7.320434,-0.116882 z m -6.362608,-6.901326 c 10.237767,-8.053028 27.32598,-13.427885 38.060022,-11.971243 3.279268,0.445005 8.480697,2.074018 11.558731,3.620026 6.89924,3.465291 7.662628,3.475082 10.797206,0.138476 2.092228,-2.227075 2.280019,-2.950323 1.126835,-4.339826 -1.948334,-2.347597 -13.590453,-7.64306 -20.026145,-9.108967 -5.965032,-1.358701 -17.7109,-0.2773 -24.346885,2.241532 -6.232635,2.365733 -24.868772,12.862472 -24.868772,14.007249 0,1.736924 3.226578,7.4441 4.208556,7.4441 0.499408,0 2.070111,-0.914106 3.490452,-2.031347 z m 4.209687,-15.384943 c 10.326296,-6.092891 18.505646,-8.590018 28.65366,-8.747861 10.057743,-0.156441 19.566634,2.628496 26.755479,7.836068 l 4.487051,3.250403 2.226171,-2.269253 2.226171,-2.269253 -4.326651,-3.760873 C 75.172668,38.819076 63.733482,34.94305 51.908412,35.762755 c -8.880947,0.615621 -22.443927,6.055088 -35.701527,14.318187 -7.6064895,4.740916 -8.007801,5.183524 -6.9014727,7.61165 1.1378347,2.497274 1.2800347,2.524366 4.5392767,0.864841 1.850555,-0.942257 6.533192,-3.582751 10.405859,-5.867765 z M 13.138732,49.494789 c 6.814565,-4.599093 20.373782,-11.295503 28.231854,-13.942695 14.478075,-4.877312 31.525752,-1.135996 44.647517,9.798429 l 4.990662,4.15874 2.040146,-2.267643 C 95.075145,44.989441 95.044799,44.933287 88.59908,39.007065 71.213943,23.023094 47.609374,20.976934 23.158481,33.334351 17.272403,36.309159 3.6885504,45.763942 3.6885504,46.886028 c 0,0.886114 3.420806,5.913325 4.0237698,5.913325 0.2914876,0 2.7333738,-1.487054 5.4264118,-3.304564 z"
       id="path837" />
  </g>
</svg>
