<?xml version="1.0" encoding="UTF-8" standalone="no"?>
<svg
   xmlns:dc="http://purl.org/dc/elements/1.1/"
   xmlns:cc="http://creativecommons.org/ns#"
   xmlns:rdf="http://www.w3.org/1999/02/22-rdf-syntax-ns#"
   xmlns:svg="http://www.w3.org/2000/svg"
   xmlns="http://www.w3.org/2000/svg"
   xmlns:sodipodi="http://sodipodi.sourceforge.net/DTD/sodipodi-0.dtd"
   xmlns:inkscape="http://www.inkscape.org/namespaces/inkscape"
   version="1.1"
   id="svg2"
   width="100"
   height="100"
   viewBox="0 0 100 100"
   sodipodi:docname="kettle.svg"
   inkscape:version="1.0.2 (e86c870879, 2021-01-15)">
  <metadata
     id="metadata8">
    <rdf:RDF>
      <cc:Work
         rdf:about="">
        <dc:format>image/svg+xml</dc:format>
        <dc:type
           rdf:resource="http://purl.org/dc/dcmitype/StillImage" />
        <dc:title></dc:title>
      </cc:Work>
    </rdf:RDF>
  </metadata>
  <defs
     id="defs6" />
  <sodipodi:namedview
     pagecolor="#ffffff"
     bordercolor="#666666"
     borderopacity="1"
     objecttolerance="10"
     gridtolerance="10"
     guidetolerance="10"
     inkscape:pageopacity="0"
     inkscape:pageshadow="2"
     inkscape:window-width="1360"
     inkscape:window-height="731"
     id="namedview4"
     showgrid="false"
     borderlayer="true"
     showguides="false"
     inkscape:zoom="3.0785714"
     inkscape:cx="33.338365"
     inkscape:cy="17.859265"
     inkscape:window-x="0"
     inkscape:window-y="0"
     inkscape:window-maximized="1"
     inkscape:current-layer="g10" />
  <g
     inkscape:groupmode="layer"
     inkscape:label="Image"
     id="g10">
    <path
       style="fill:#000000;stroke-width:1"
       d="M 27.841386,88.872862 C 12.219149,87.157702 6.336157,81.752748 9.132004,71.683764 c 1.893406,-6.818928 1.804755,-8.446613 -0.4600396,-8.446613 -6.0057756,0 -7.77291624,-8.731851 -3.4729257,-17.160528 2.8403016,-5.567451 4.7533272,-6.735003 11.1259873,-6.790375 3.339133,-0.02901 4.895768,-1.044913 7.530639,-4.914683 1.826789,-2.682959 6.011541,-7.582276 9.299449,-10.887369 3.287908,-3.305093 5.820911,-6.693383 5.628898,-7.529534 -0.540051,-2.351726 3.186166,-4.784107 6.58785,-4.300384 2.382498,0.338793 3.011919,1.209592 2.834964,3.922151 -0.162368,2.488947 0.656143,3.889266 2.860381,4.893585 1.698309,0.773801 5.259598,4.678811 7.913975,8.677799 6.191468,9.32784 8.136031,10.982871 10.550166,8.979317 1.008012,-0.836576 2.162063,-3.167617 2.564558,-5.180093 1.084701,-5.423505 5.782283,-10.671006 12.291965,-13.730919 6.367926,-2.993278 9.117667,-2.363432 7.800453,1.786743 -0.632262,1.992081 0.117685,3.494193 2.820522,5.649356 l 3.681787,2.935754 -2.874565,2.874565 c -1.581011,1.581011 -4.049246,2.874565 -5.484968,2.874565 -3.41112,0 -5.36104,3.834067 -5.36104,10.541248 0,3.673279 -0.871043,6.272681 -2.72227,8.123908 l -2.72227,2.72227 3.508744,8.770481 c 5.407953,13.517752 2.805584,16.601539 -18.274585,21.655235 -10.322421,2.474665 -24.179283,3.121232 -36.918293,1.722619 z m 31.609638,-5.147658 c 13.361734,-2.737084 21.542244,-6.333105 21.503547,-9.452613 -0.01637,-1.31984 -1.77988,-5.986554 -3.918904,-10.370474 l -3.889132,-7.970763 3.918902,-3.579365 c 3.135526,-2.863862 3.918902,-4.682042 3.918902,-9.095604 0,-5.835601 4.065622,-13.23358 7.272625,-13.23358 1.419495,0 1.468158,-0.666723 0.241675,-3.311069 -0.844644,-1.821088 -1.834647,-3.312764 -2.200005,-3.314835 -2.458995,-0.01394 -8.707139,7.117469 -10.508543,11.994077 -1.310557,3.547832 -3.565709,6.638253 -5.730922,7.853555 -3.357348,1.88443 -3.791268,1.801849 -7.283172,-1.386111 -3.445402,-3.145506 -4.048401,-3.26874 -8.363134,-1.709177 -6.40832,2.316293 -16.402222,2.229575 -22.199365,-0.192627 -2.663408,-1.112842 -5.325119,-1.540792 -5.914913,-0.950998 -2.012346,2.012347 -13.07151,33.688807 -13.07151,37.440373 0,4.722523 4.086623,6.587208 17.52712,7.997448 15.131691,1.587688 17.761182,1.521876 28.696829,-0.718237 z M 15.564594,52.276417 c 2.985665,-7.731977 2.146842,-10.22692 -2.696456,-8.020166 -3.2490953,1.480387 -6.6654892,9.797815 -5.3898795,13.122001 1.6269449,4.23975 5.3978125,1.860633 8.0863355,-5.101835 z M 53.639916,35.859245 c 2.861907,-1.098217 2.63878,-3.466512 -0.730099,-7.749348 -6.000076,-7.627859 -14.599172,-7.092283 -19.742387,1.229611 -3.252954,5.263393 -3.273416,5.644782 -0.343892,6.410346 3.582692,0.936255 18.457896,1.014424 20.816378,0.109395 z"
       id="path837" />
  </g>
</svg>
