<?xml version="1.0" encoding="UTF-8" standalone="no"?>
<svg
   xmlns:dc="http://purl.org/dc/elements/1.1/"
   xmlns:cc="http://creativecommons.org/ns#"
   xmlns:rdf="http://www.w3.org/1999/02/22-rdf-syntax-ns#"
   xmlns:svg="http://www.w3.org/2000/svg"
   xmlns="http://www.w3.org/2000/svg"
   xmlns:sodipodi="http://sodipodi.sourceforge.net/DTD/sodipodi-0.dtd"
   xmlns:inkscape="http://www.inkscape.org/namespaces/inkscape"
   version="1.1"
   id="svg2"
   width="100"
   height="100"
   viewBox="0 0 100 100"
   sodipodi:docname="orange-juice.svg"
   inkscape:version="1.0.1 (3bc2e813f5, 2020-09-07)">
  <metadata
     id="metadata8">
    <rdf:RDF>
      <cc:Work
         rdf:about="">
        <dc:format>image/svg+xml</dc:format>
        <dc:type
           rdf:resource="http://purl.org/dc/dcmitype/StillImage" />
        <dc:title></dc:title>
      </cc:Work>
    </rdf:RDF>
  </metadata>
  <defs
     id="defs6" />
  <sodipodi:namedview
     pagecolor="#ffffff"
     bordercolor="#666666"
     borderopacity="1"
     objecttolerance="10"
     gridtolerance="10"
     guidetolerance="10"
     inkscape:pageopacity="0"
     inkscape:pageshadow="2"
     inkscape:window-width="1872"
     inkscape:window-height="1016"
     id="namedview4"
     showgrid="false"
     borderlayer="true"
     inkscape:zoom="3.9181818"
     inkscape:cx="74.646797"
     inkscape:cy="71.401731"
     inkscape:window-x="48"
     inkscape:window-y="795"
     inkscape:window-maximized="1"
     inkscape:current-layer="g10" />
  <g
     inkscape:groupmode="layer"
     inkscape:label="Image"
     id="g10">
    <path
       style="fill:#000000"
       d="m 38.386583,98.612846 c -6.07152,-0.78182 -10.495335,-2.49525 -11.555149,-4.47553 -1.068954,-1.99736 -3.212484,-24.654894 -2.449312,-25.889731 0.214556,-0.34716 0.673213,-6.003304 1.019238,-12.569209 0.692606,-13.142349 2.406015,-20.001993 6.089576,-24.379657 4.568368,-5.429197 5.592794,-9.457537 4.842887,-19.04364 L 35.650362,3.518363 38.917696,2.379365 c 4.157938,-1.449465 14.716971,-1.47138 18.825692,-0.03907 3.931617,1.37057 4.826681,4.427161 3.270543,11.168718 -1.091138,4.727067 -1.011969,5.193844 1.422199,8.385202 1.417711,1.858716 3.466121,5.388003 4.552021,7.84286 3.044557,6.882724 6.898432,35.461114 6.898432,51.155285 v 13.296646 l -2.75,1.39203 c -1.5125,0.76562 -4.325,1.66286 -6.25,1.99387 -4.719951,0.81162 -22.767921,1.51851 -26.5,1.03794 z m 2.692368,-3.08577 c -2.729001,-0.52143 -2.341675,-2.89651 0.415261,-2.54638 3.051123,0.38749 21.556004,-1.61217 25.642371,-2.77094 l 3.75,-1.063398 -0.01101,-11.702996 C 70.860475,61.384102 70.352689,58.854777 66.880638,57.544224 65.338998,56.96232 62.797165,54.551818 61.232119,52.187554 58.507608,48.07172 58.386583,47.386078 58.386583,36.066724 V 24.244557 l -4.25,-0.0021 c -3.24652,-0.0016 -4.25,-0.383799 -4.25,-1.618722 0,-1.149095 0.606303,-1.45808 2.096452,-1.068397 3.260317,0.852592 4.903548,-0.271271 4.903548,-3.353706 v -2.824757 l -8.5,0.06275 -8.5,0.06275 v 2.868992 c 0,1.883555 0.515221,2.868999 1.5,2.868999 1.943694,0 1.943694,1.892508 0,2.638374 -0.825,0.316582 -1.5,1.048391 -1.5,1.626243 0,0.577852 -1.755851,3.342207 -3.90189,6.143012 -6.119376,7.986419 -7.086994,11.345248 -7.938534,27.556505 -0.886268,16.872385 -0.130583,31.160946 1.769078,33.449896 1.57018,1.89195 6.390003,3.4237 10.571346,3.3596 2.349384,-0.036 2.499539,-0.14162 0.692368,-0.48692 z M 40.886583,77.157894 c -4.125,-0.497597 -8.106973,-1.135546 -8.848829,-1.417665 -2.208273,-0.839777 -1.191829,-33.895627 1.177738,-38.301312 2.082267,-3.871512 4.108569,-4.910293 6.197125,-3.176945 0.82531,0.684947 4.082079,1.522791 7.237265,1.861876 l 5.736701,0.616518 0.247512,6 c 0.512756,12.429837 2.205714,15.78231 9.511343,18.834797 3.28937,1.374386 3.741145,1.976872 3.741145,4.989176 0,1.884315 0.271759,4.784823 0.603909,6.445574 0.575247,2.876234 0.420997,3.046895 -3.25,3.595763 -8.35291,1.248885 -15.180465,1.417549 -22.353909,0.552218 z m 20.75,-3.383583 c 2.714097,-1.023052 1.032211,-2.066027 -2.75,-1.705335 l -4,0.381461 v -4.105036 c 0,-3.587121 0.283872,-4.106434 2.25,-4.116124 2.097419,-0.01034 2.037462,-0.178638 -0.884139,-2.481804 -4.099404,-3.231654 -6.365861,-9.115934 -6.365861,-16.527343 0,-4.961347 -0.289528,-5.979764 -1.7,-5.979764 -1.221473,0 -1.394776,0.305224 -0.615672,1.084328 0.596381,0.596381 0.851211,1.975769 0.56629,3.065308 -0.449785,1.719982 -1.060367,1.891301 -4.634328,1.300319 -2.263959,-0.374364 -4.472095,-0.891623 -4.906967,-1.149465 -1.002747,-0.594543 0.198161,-4.561959 1.675458,-5.535177 0.713126,-0.469795 0.528402,-0.740208 -0.512336,-0.75 -3.94913,-0.03715 -5.732417,5.636909 -6.43808,20.484687 -0.654212,13.765216 0.150722,15.780819 6.589306,16.5 5.066659,0.565939 19.828592,0.249278 21.726329,-0.466055 z m -19.25,-3.93646 c -6.845783,-3.0218 -8.935301,-10.005447 -5.169032,-17.276088 1.420424,-2.742075 2.083148,-3.123348 4.825659,-2.776263 6.444179,0.815558 10.825416,7.770717 10.837796,17.204866 l 0.0056,4.25 -3.75,-0.03914 c -2.0625,-0.02153 -5.1,-0.635046 -6.75,-1.363373 z m 6.868938,-4.597485 c -0.07209,-1.375 -0.184585,-3.237943 -0.25,-4.139873 -0.09545,-1.316019 -7.545794,-5.860127 -9.60804,-5.860127 -1.071121,0 -0.452181,7.691339 0.739102,9.184547 3.493782,4.379263 9.333145,4.901443 9.118938,0.815453 z m -4.868938,-11 c 0.339919,-0.55 0.141476,-1 -0.440983,-1 -0.582459,0 -1.059017,0.45 -1.059017,1 0,0.55 0.198442,1 0.440983,1 0.242541,0 0.719098,-0.45 1.059017,-1 z m 18.5,13.440983 c 0,-1.407459 -0.407754,-2.307011 -0.90612,-1.999004 -0.498366,0.308007 -0.670882,1.459565 -0.383369,2.559017 0.719547,2.75155 1.289489,2.504029 1.289489,-0.560013 z m -8.73625,27.855087 c -1.229938,-0.23736 -3.479938,-0.24351 -5,-0.0136 -1.520063,0.22985 -0.51375,0.42406 2.23625,0.43157 2.75,0.008 3.993687,-0.18056 2.76375,-0.41792 z m 15.159675,-2.32874 c 0.771934,-0.77856 0.609697,-0.90816 -0.573335,-0.45799 -0.907451,0.3453 -3.832451,1.03178 -6.5,1.52551 l -4.85009,0.89769 5.423425,-0.43969 c 2.982883,-0.24184 5.907883,-0.92832 6.5,-1.52552 z M 66.949021,41.480309 C 65.3671,34.228773 63.00384,27.430869 61.807825,26.691691 c -0.843573,-0.521357 -1.143464,1.196137 -1.143464,6.548675 0,11.831475 0.232791,13.101479 2.888247,15.756934 l 2.666024,2.666024 0.991278,-2.221536 C 67.890204,47.91719 67.808358,45.41952 66.949021,41.480309 Z M 55.136583,11.598518 c 2.205584,-0.364561 3.75,-1.183717 3.75,-1.988994 0,-1.579653 -0.273772,-1.606686 -5.040945,-0.497762 -1.94752,0.453026 -5.88502,0.522966 -8.75,0.155423 -4.616103,-0.592191 -5.209055,-0.461005 -5.209055,1.152461 0,1.551138 0.851364,1.81909 5.75,1.809714 3.1625,-0.0061 7.4375,-0.289932 9.5,-0.630842 z m -5.25,-6.25406 c 0,-1.025354 -7.590298,-0.847127 -8.640308,0.202882 -0.381164,0.381164 1.406975,0.693026 3.973641,0.693026 2.566667,0 4.666667,-0.403159 4.666667,-0.895908 z m 5.558021,-0.01021 C 55.136597,4.83588 53.985039,4.663364 52.885587,4.950877 c -2.75155,0.719547 -2.504029,1.289489 0.560013,1.289489 1.407459,0 2.307011,-0.407754 1.999004,-0.90612 z"
       id="path837" />
  </g>
</svg>
