<?xml version="1.0" encoding="UTF-8" standalone="no"?>
<svg
   xmlns:dc="http://purl.org/dc/elements/1.1/"
   xmlns:cc="http://creativecommons.org/ns#"
   xmlns:rdf="http://www.w3.org/1999/02/22-rdf-syntax-ns#"
   xmlns:svg="http://www.w3.org/2000/svg"
   xmlns="http://www.w3.org/2000/svg"
   xmlns:sodipodi="http://sodipodi.sourceforge.net/DTD/sodipodi-0.dtd"
   xmlns:inkscape="http://www.inkscape.org/namespaces/inkscape"
   version="1.1"
   id="svg2"
   width="100"
   height="100"
   viewBox="0 0 100 100"
   sodipodi:docname="domino.svg"
   inkscape:version="1.0.2 (e86c870879, 2021-01-15)">
  <metadata
     id="metadata8">
    <rdf:RDF>
      <cc:Work
         rdf:about="">
        <dc:format>image/svg+xml</dc:format>
        <dc:type
           rdf:resource="http://purl.org/dc/dcmitype/StillImage" />
        <dc:title></dc:title>
      </cc:Work>
    </rdf:RDF>
  </metadata>
  <defs
     id="defs6" />
  <sodipodi:namedview
     pagecolor="#ffffff"
     bordercolor="#666666"
     borderopacity="1"
     objecttolerance="10"
     gridtolerance="10"
     guidetolerance="10"
     inkscape:pageopacity="0"
     inkscape:pageshadow="2"
     inkscape:window-width="1360"
     inkscape:window-height="731"
     id="namedview4"
     showgrid="false"
     borderlayer="true"
     inkscape:zoom="1.7103175"
     inkscape:cx="26.378569"
     inkscape:cy="2.4875969"
     inkscape:window-x="0"
     inkscape:window-y="0"
     inkscape:window-maximized="1"
     inkscape:current-layer="g10" />
  <g
     inkscape:groupmode="layer"
     inkscape:label="Image"
     id="g10">
    <path
       style="fill:#000000;stroke-width:1"
       d="M 18.856659,79.397504 C 12.524853,78.801489 6.5914985,77.696069 5.6714278,76.941017 4.3733369,75.875744 4.086772,70.052216 4.3922749,50.946264 4.6088116,37.404202 5.233063,25.878605 5.7795002,25.333826 6.3259374,24.789047 26.184785,24.463569 49.910273,24.610542 c 39.817238,0.246656 43.286334,0.444841 45.074276,2.575036 1.55137,1.848338 1.993427,7.001522 2.220321,25.882972 0.155814,12.966338 -0.151366,24.257738 -0.682621,25.091999 -1.20922,1.89891 -60.586713,2.844597 -77.66559,1.236955 z M 50.550617,53.673119 c 0.546859,-12.633825 0.708829,-23.714487 0.359933,-24.623693 -0.481929,-1.255892 -5.543573,-1.653102 -21.065453,-1.653102 -11.237106,0 -20.7180805,0.464344 -21.0688339,1.031875 -0.3507533,0.56753 -0.7476954,11.350659 -0.8820935,23.962507 L 7.6498095,75.321341 10.694929,76.19184 c 1.674815,0.478774 11.103782,0.776307 20.953259,0.661184 l 17.90814,-0.209314 z m -24.196042,1.224992 c -1.122586,-2.925413 0.450067,-5.756188 3.197882,-5.756188 3.025493,0 4.578852,3.534852 2.600751,5.918318 -1.924504,2.318887 -4.878268,2.236298 -5.798633,-0.16213 z m 66.730317,21.045563 c 1.117099,-1.807505 0.730606,-45.102603 -0.41243,-46.20045 -0.497249,-0.477592 -9.603954,-1.231149 -20.237119,-1.674572 L 53.102314,27.262427 52.471015,50.673916 c -0.347215,12.876319 -0.363953,24.131012 -0.0372,25.010429 0.766378,2.062599 39.384334,2.308957 40.651074,0.259329 z m -11.33655,-5.908921 c -1.874152,-1.874151 -0.795244,-5.542995 1.630045,-5.542995 3.265141,0 4.521936,2.201967 2.587294,4.533068 -1.688699,2.034757 -2.901967,2.325299 -4.217339,1.009927 z M 71.091932,53.532977 c -1.066123,-2.778271 1.64043,-5.391009 3.577726,-3.453713 1.637358,1.637358 0.623013,5.458423 -1.449002,5.458423 -0.747694,0 -1.705621,-0.90212 -2.128724,-2.00471 z M 59.380796,38.601979 c 0.48954,-3.431258 4.233002,-4.518597 5.368564,-1.559371 1.079903,2.814182 -0.08672,4.424398 -3.205538,4.424398 -1.932452,0 -2.470167,-0.712228 -2.163026,-2.865027 z"
       id="path837" />
  </g>
</svg>
