<?xml version="1.0" encoding="UTF-8" standalone="no"?>
<svg
   xmlns:dc="http://purl.org/dc/elements/1.1/"
   xmlns:cc="http://creativecommons.org/ns#"
   xmlns:rdf="http://www.w3.org/1999/02/22-rdf-syntax-ns#"
   xmlns:svg="http://www.w3.org/2000/svg"
   xmlns="http://www.w3.org/2000/svg"
   xmlns:sodipodi="http://sodipodi.sourceforge.net/DTD/sodipodi-0.dtd"
   xmlns:inkscape="http://www.inkscape.org/namespaces/inkscape"
   version="1.1"
   id="svg2"
   width="100"
   height="100"
   viewBox="0 0 100 100"
   sodipodi:docname="banana.svg"
   inkscape:version="1.0.2 (e86c870879, 2021-01-15)">
  <metadata
     id="metadata8">
    <rdf:RDF>
      <cc:Work
         rdf:about="">
        <dc:format>image/svg+xml</dc:format>
        <dc:type
           rdf:resource="http://purl.org/dc/dcmitype/StillImage" />
        <dc:title></dc:title>
      </cc:Work>
    </rdf:RDF>
  </metadata>
  <defs
     id="defs6" />
  <sodipodi:namedview
     pagecolor="#ffffff"
     bordercolor="#666666"
     borderopacity="1"
     objecttolerance="10"
     gridtolerance="10"
     guidetolerance="10"
     inkscape:pageopacity="0"
     inkscape:pageshadow="2"
     inkscape:window-width="1360"
     inkscape:window-height="731"
     id="namedview4"
     showgrid="false"
     borderlayer="true"
     inkscape:zoom="2.3423913"
     inkscape:cx="58.960146"
     inkscape:cy="31.142693"
     inkscape:window-x="0"
     inkscape:window-y="0"
     inkscape:window-maximized="1"
     inkscape:current-layer="g10" />
  <g
     inkscape:groupmode="layer"
     inkscape:label="Image"
     id="g10">
    <path
       style="fill:#000000;stroke-width:1"
       d="M 76.141589,96.356149 C 73.347623,95.452646 68.017288,93.795142 64.296402,92.672805 41.102937,85.676926 25.565362,64.293907 28.917282,43.983583 30.31212,35.531832 34.14503,26.258985 39.502532,18.375 43.238364,12.877433 43.448613,9.1917466 40.015558,9.3816416 37.840293,9.5019637 37.738995,8.1325945 39.699868,5.1141364 40.95966,3.1748899 41.709922,2.9872125 43.977533,4.0440841 c 4.53939,2.1156867 6.071803,6.0687549 7.023686,18.1185529 1.983159,25.104637 11.790702,48.273479 26.373444,62.303287 6.95867,6.694818 7.588199,8.054176 5.28912,11.420925 -1.315396,1.926253 -1.889105,1.967534 -6.522199,0.469304 z M 60.460847,82.703713 C 43.755752,67.992089 36.851262,51.398974 40.292842,34.235244 c 0.895597,-4.466491 2.038456,-8.704846 2.539688,-9.418569 1.658935,-2.362224 2.361227,-6.990582 1.049719,-6.918038 -2.213236,0.122422 -8.484285,11.750518 -11.019494,20.432898 -3.030839,10.379778 -2.879407,14.002057 1.026024,24.542678 2.583445,6.972629 4.417658,9.562086 11.161562,15.75738 5.817356,5.344121 10.199827,8.14988 15.699591,10.051241 4.196229,1.450705 8.038731,2.628333 8.538894,2.61695 0.500162,-0.01139 -3.472428,-3.879616 -8.827979,-8.596071 z m 14.583336,5.087249 C 74.984348,86.709227 72.929549,83.595579 70.477962,80.871745 59.873486,69.089645 50.526997,45.675438 49.083155,27.274884 48.775081,23.348759 48.328215,20.14725 48.090118,20.16042 46.9104,20.225675 43.305624,30.605755 42.260411,36.947273 39.780535,51.993171 46.597605,66.97897 62.169216,80.712319 72.675303,89.978138 75.243259,91.389998 75.044183,87.790962 Z M 45.120027,8.0413438 c -2.070259,-1.814083 -2.09702,-1.7160533 -0.418872,1.5344034 0.985973,1.9097608 1.98117,2.7818118 2.211549,1.9378908 0.230381,-0.843923 -0.576325,-2.4064542 -1.792677,-3.4722942 z"
       id="path837" />
  </g>
</svg>
