<?xml version="1.0" encoding="UTF-8" standalone="no"?>
<svg
   xmlns:dc="http://purl.org/dc/elements/1.1/"
   xmlns:cc="http://creativecommons.org/ns#"
   xmlns:rdf="http://www.w3.org/1999/02/22-rdf-syntax-ns#"
   xmlns:svg="http://www.w3.org/2000/svg"
   xmlns="http://www.w3.org/2000/svg"
   xmlns:sodipodi="http://sodipodi.sourceforge.net/DTD/sodipodi-0.dtd"
   xmlns:inkscape="http://www.inkscape.org/namespaces/inkscape"
   version="1.1"
   id="svg2"
   width="100"
   height="100"
   viewBox="0 0 100 100"
   sodipodi:docname="phone.svg"
   inkscape:version="1.0.2 (e86c870879, 2021-01-15)">
  <metadata
     id="metadata8">
    <rdf:RDF>
      <cc:Work
         rdf:about="">
        <dc:format>image/svg+xml</dc:format>
        <dc:type
           rdf:resource="http://purl.org/dc/dcmitype/StillImage" />
        <dc:title></dc:title>
      </cc:Work>
    </rdf:RDF>
  </metadata>
  <defs
     id="defs6" />
  <sodipodi:namedview
     pagecolor="#ffffff"
     bordercolor="#666666"
     borderopacity="1"
     objecttolerance="10"
     gridtolerance="10"
     guidetolerance="10"
     inkscape:pageopacity="0"
     inkscape:pageshadow="2"
     inkscape:window-width="1360"
     inkscape:window-height="731"
     id="namedview4"
     showgrid="false"
     borderlayer="true"
     inkscape:zoom="4.443299"
     inkscape:cx="47.95503"
     inkscape:cy="48.432786"
     inkscape:window-x="0"
     inkscape:window-y="0"
     inkscape:window-maximized="1"
     inkscape:current-layer="g10" />
  <g
     inkscape:groupmode="layer"
     inkscape:label="Image"
     id="g10">
    <path
       style="fill:#000000;stroke-width:1"
       d="M 46.187551,97.470974 C 44.497891,96.657581 41.040194,90.92319 35.361881,79.517218 30.77319,70.299962 23.575679,56.192732 19.367413,48.167819 10.66112,31.565438 9.6144234,27.890026 11.983832,22.240826 13.387755,18.893556 14.548099,17.993691 19.850159,16.140367 25.562773,14.143534 46.184988,5.2867612 50.510976,2.9722428 54.22897,0.98301721 53.877492,0.50740781 67.254561,25.629169 77.32101,44.533679 86.934288,64.560821 88.1826,69.22812 c 2.41078,9.013636 2.223491,9.204969 -21.468939,21.932416 -14.628621,7.858417 -16.26527,8.36158 -20.52611,6.310438 z m 17.443205,-6.949739 c 6.230158,-3.37595 11.142482,-6.32317 10.916275,-6.549376 -0.226207,-0.226207 -5.206089,2.051638 -11.066407,5.061878 -5.860316,3.010239 -11.814033,5.473162 -13.23048,5.473162 -1.483194,0 -3.640372,-1.255108 -5.086698,-2.95959 l -2.511341,-2.95959 1.649126,3.415969 c 1.499078,3.105162 3.087799,4.175753 6.723548,4.530798 0.70313,0.06866 6.37582,-2.637299 12.605977,-6.013251 z m 1.351768,-4.579724 c 14.923849,-7.202757 20.816945,-11.350849 20.816993,-14.652868 1.7e-5,-1.22764 -1.937155,-5.975591 -4.304827,-10.551003 -2.367672,-4.575414 -4.304858,-8.918436 -4.304858,-9.651162 0,-0.732727 -3.998681,-8.818632 -8.885957,-17.968681 C 63.416598,23.967749 58.217152,13.938788 56.749549,10.831219 55.281946,7.7236494 53.454475,5.1810926 52.688502,5.1810926 c -1.972307,0 -24.085916,9.4200354 -33.507944,14.2738354 -6.61141,3.405898 -5.551138,8.07781 6.896678,30.389068 4.293129,7.694934 10.579877,19.560199 13.970553,26.367256 6.231144,12.509532 8.610507,16.143218 10.570693,16.143218 0.592146,0 7.055965,-2.885832 14.364042,-6.412959 z m -3.924312,-4.873318 c -1.463305,-1.763176 -0.635796,-7.00937 1.105624,-7.00937 0.597466,0 0.788928,1.144642 0.430401,2.573128 -0.355198,1.41522 -0.122276,2.89669 0.517603,3.292158 1.396605,0.863149 1.546713,2.74443 0.21898,2.74443 -0.519442,0 -1.542115,-0.720155 -2.272608,-1.600346 z m 6.445689,-3.665583 c 0,-1.120508 -0.807428,-2.347126 -1.794283,-2.725818 -1.328945,-0.509963 -1.480329,-1.002487 -0.58372,-1.899096 0.89661,-0.896609 1.641062,-0.853284 2.870498,0.167058 1.836484,1.524145 2.283227,6.495142 0.583719,6.495142 -0.591918,0 -1.076214,-0.916779 -1.076214,-2.037286 z M 36.212225,50.833476 c -2.555975,-2.720739 -2.56656,-2.808363 -0.52001,-4.304858 2.664812,-1.948586 3.744061,-1.927862 4.517135,0.08673 0.34071,0.887877 1.278903,1.614322 2.084875,1.614322 2.452679,0 -0.36548,5.298417 -2.853357,5.364592 -0.340758,0.009 -1.793648,-1.233291 -3.228643,-2.76079 z m 3.310098,-1.527587 c 0,-0.591918 -0.512879,-1.076215 -1.13973,-1.076215 -0.626851,0 -0.840418,0.484297 -0.474592,1.076215 0.365826,0.591918 0.878703,1.076214 1.139729,1.076214 0.261026,0 0.474593,-0.484296 0.474593,-1.076214 z m 9.208849,-3.468108 c -2.131512,-3.043159 -2.103815,-3.657628 0.208028,-4.61524 5.585681,-2.313702 8.988508,-0.514925 5.112019,2.702275 -0.887877,0.736872 -1.614322,2.006913 -1.614322,2.822313 0,2.23042 -1.819231,1.783999 -3.705725,-0.909348 z M 26.758309,36.389236 c -1.262219,-2.07057 -2.296754,-4.148145 -2.298967,-4.616833 -0.0052,-1.101813 4.166231,-5.593372 4.633139,-4.9887 0.195268,0.252883 1.39479,2.2759 2.665605,4.495592 1.875062,3.275111 2.0066,4.035805 0.697866,4.035805 -0.886988,0 -2.015454,1.088732 -2.507702,2.419404 -0.866909,2.343478 -0.967016,2.301261 -3.189941,-1.345268 z m 2.647597,-4.948509 c -0.477527,-1.244416 -1.075029,-1.507886 -1.792505,-0.790409 -0.591918,0.591918 -0.753884,1.916195 -0.359924,2.942838 0.477527,1.244416 1.075028,1.507887 1.792505,0.79041 0.591918,-0.591918 0.753884,-1.916196 0.359924,-2.942839 z m 10.204192,-1.902784 c -2.677132,-4.331691 -2.78374,-5.126009 -0.574177,-4.27812 0.949416,0.364325 2.265094,-0.179957 3.058777,-1.265384 1.307521,-1.78814 1.501933,-1.748818 3.176938,0.642588 2.108599,3.010448 2.274899,5.452018 0.492731,7.234186 -2.1243,2.1243 -3.789527,1.492963 -6.154269,-2.33327 z m 5.293297,-1.281753 c 0,-1.775835 -1.700898,-2.075861 -2.690536,-0.474592 -0.877658,1.420081 0.409186,3.435351 1.688686,2.644576 0.551018,-0.340547 1.00185,-1.31704 1.00185,-2.169984 z M 19.569218,25.698964 c 0.861108,-1.393302 12.479412,-7.603297 14.225041,-7.603297 3.076129,0 1.012205,1.769376 -5.963021,5.112019 -7.644749,3.66349 -9.293802,4.160736 -8.26202,2.491278 z m 33.256866,-1.684117 c -0.869656,-2.266289 0.316648,-4.842965 2.229707,-4.842965 1.882678,0 4.235393,3.868037 3.28654,5.403314 -1.008278,1.631429 -4.823918,1.24383 -5.516247,-0.560349 z m 3.915671,-1.0127 c 0,-0.261026 -0.484296,-0.773903 -1.076214,-1.139729 -0.591918,-0.365826 -1.076215,-0.152259 -1.076215,0.474592 0,0.626851 0.484297,1.13973 1.076215,1.13973 0.591918,0 1.076214,-0.213566 1.076214,-0.474593 z M 49.32676,12.319278 c -1.532893,-1.847024 1.171797,-4.4706561 3.634539,-3.5256136 2.134946,0.8192557 2.088847,3.5138106 -0.07431,4.3438936 -2.237747,0.858705 -2.152117,0.878386 -3.560224,-0.81828 z m -10.290826,67.22063 c -2.364084,-4.571633 -3.130962,-4.216809 -0.917638,0.424581 0.984387,2.064279 1.980855,3.562175 2.214373,3.328656 0.233519,-0.233519 -0.350012,-1.922475 -1.296735,-3.753237 z m 41.382541,1.438578 c 0,-0.295959 -0.968593,-0.01973 -2.152429,0.613839 -1.183836,0.633569 -2.152429,1.394093 -2.152429,1.690052 0,0.295959 0.968593,0.01973 2.152429,-0.613838 1.183836,-0.633569 2.152429,-1.394094 2.152429,-1.690053 z m 4.909516,-3.4451 c -0.360749,-0.360748 -1.491894,0.219359 -2.513658,1.289127 -1.775993,1.859433 -1.747126,1.888299 0.655906,0.655906 1.382511,-0.709021 2.2185,-1.584286 1.857752,-1.945033 z M 32.581155,66.632333 c -1.529562,-3.018447 -3.009751,-5.488085 -3.289307,-5.488085 -0.279556,0 0.791446,2.650098 2.380003,5.889106 1.588558,3.239006 3.068747,5.708645 3.289308,5.488083 0.22056,-0.22056 -0.850441,-2.870658 -2.380004,-5.889104 z m -4.897192,-8.716728 c -0.63357,-1.183836 -1.394094,-2.152429 -1.690053,-2.152429 -0.295959,0 -0.01973,0.968593 0.613838,2.152429 0.63357,1.183836 1.394094,2.152429 1.690053,2.152429 0.295959,0 0.01973,-0.968593 -0.613838,-2.152429 z m -5.91918,-10.762146 c -0.918278,-1.775754 -1.911745,-3.228643 -2.207704,-3.228643 -0.295959,0 0.213211,1.452889 1.131489,3.228643 0.918278,1.775754 1.911745,3.228644 2.207704,3.228644 0.295959,0 -0.213211,-1.45289 -1.131489,-3.228644 z"
       id="path837" />
  </g>
</svg>
