<?xml version="1.0" encoding="UTF-8" standalone="no"?>
<svg
   xmlns:dc="http://purl.org/dc/elements/1.1/"
   xmlns:cc="http://creativecommons.org/ns#"
   xmlns:rdf="http://www.w3.org/1999/02/22-rdf-syntax-ns#"
   xmlns:svg="http://www.w3.org/2000/svg"
   xmlns="http://www.w3.org/2000/svg"
   xmlns:sodipodi="http://sodipodi.sourceforge.net/DTD/sodipodi-0.dtd"
   xmlns:inkscape="http://www.inkscape.org/namespaces/inkscape"
   version="1.1"
   id="svg2"
   width="100"
   height="100"
   viewBox="0 0 100 100"
   sodipodi:docname="hat.svg"
   inkscape:version="1.0.1 (3bc2e813f5, 2020-09-07)">
  <metadata
     id="metadata8">
    <rdf:RDF>
      <cc:Work
         rdf:about="">
        <dc:format>image/svg+xml</dc:format>
        <dc:type
           rdf:resource="http://purl.org/dc/dcmitype/StillImage" />
        <dc:title></dc:title>
      </cc:Work>
    </rdf:RDF>
  </metadata>
  <defs
     id="defs6" />
  <sodipodi:namedview
     pagecolor="#ffffff"
     bordercolor="#666666"
     borderopacity="1"
     objecttolerance="10"
     gridtolerance="10"
     guidetolerance="10"
     inkscape:pageopacity="0"
     inkscape:pageshadow="2"
     inkscape:window-width="1872"
     inkscape:window-height="1016"
     id="namedview4"
     showgrid="false"
     borderlayer="true"
     inkscape:zoom="5.9757455"
     inkscape:cx="31.375464"
     inkscape:cy="35.652002"
     inkscape:window-x="48"
     inkscape:window-y="795"
     inkscape:window-maximized="1"
     inkscape:current-layer="g10" />
  <g
     inkscape:groupmode="layer"
     inkscape:label="Image"
     id="g10">
    <path
       style="fill:#000000;stroke-width:1"
       d="M 48.280295,97.953683 C 42.07284,96.731394 34.962384,93.056929 31.029673,89.039093 29.24816,87.219019 24.297903,81.399818 20.029101,76.107534 15.7603,70.81525 11.456515,65.763525 10.465137,64.881477 6.6857772,61.518913 3.1673537,54.905895 3.1673537,51.164998 c 0,-9.409446 4.9721123,-28.25354 8.8327783,-33.475852 3.160136,-4.274708 13.586971,-11.166204 18.205353,-12.0326175 2.020482,-0.3790448 4.535898,-1.6419963 5.589812,-2.8065588 2.22658,-2.46034174 5.084136,-2.73844569 6.807037,-0.6624764 0.664108,0.8002006 3.83504,1.7260994 7.046516,2.0575529 6.808085,0.7026565 16.901006,5.6919539 21.707187,10.7306518 5.861316,6.14488 14.095084,24.746116 14.124158,31.908451 0.0064,1.568083 0.372409,3.011434 0.813433,3.207445 0.441024,0.19601 2.105208,2.280849 3.698186,4.632975 6.95441,10.268596 8.228216,22.020481 3.140512,28.973877 -4.204539,5.746372 -6.25046,7.393627 -13.04847,10.50586 -9.031257,4.134645 -22.051497,5.669624 -31.803561,3.749377 z m 28.76833,-6.089945 C 86.605574,87.628144 92.976622,80.170234 92.974961,73.22047 92.974038,69.359301 87.880744,57.674725 85.249624,55.497696 c -1.399582,-1.158035 -1.753176,-0.953768 -2.33045,1.346273 -0.778135,3.100335 -6.878761,7.863532 -16.011521,12.501346 -4.427256,2.248257 -8.699884,3.434867 -14.433501,4.008526 -8.242039,0.824632 -11.181753,0.762421 -23.564132,-0.498664 l -6.866355,-0.699305 5.418872,6.786998 c 11.02271,13.805662 15.876981,16.093359 32.904247,15.506953 8.853596,-0.304912 12.977073,-0.944149 16.681841,-2.586085 z M 65.689303,65.962412 C 73.38219,62.057708 80.880218,55.362245 81.839267,51.541094 82.696902,48.124004 79.808174,37.451805 75.524962,28.21334 71.598088,19.743463 66.366462,14.270738 58.716575,10.630344 54.239203,8.4996715 43.794986,6.2665817 43.794986,7.4399414 c 0,0.2943921 3.612773,4.1480326 8.028384,8.5636436 5.567467,5.567467 8.872843,9.937855 10.783311,14.257763 2.962121,6.697882 6.271935,22.793938 4.957398,24.108475 -1.769271,1.769271 -3.204846,-1.108984 -4.308351,-8.638037 -1.651334,-11.266795 -6.165095,-19.796841 -14.701013,-27.781773 -3.836942,-3.589271 -7.434982,-6.525947 -7.995646,-6.525947 -1.457695,0 -7.04952,12.769768 -8.573152,19.578074 -1.602072,7.158812 -0.951718,25.505661 0.986919,27.841577 1.536197,1.851004 0.784171,3.899464 -1.431563,3.899464 -2.13614,0 -3.814262,-5.850042 -4.534752,-15.808446 -0.778614,-10.761773 0.670612,-17.733272 6.215084,-29.897641 3.970725,-8.7116263 3.990313,-8.8204731 1.587311,-8.8204731 -1.338165,0 -5.378885,1.4720632 -8.979378,3.2712501 C 19.789852,14.505938 14.901044,19.20601 11.965599,24.81658 10.034449,28.507624 7.1854265,47.867481 7.9082167,52.387563 9.8966496,64.822541 22.069425,70.446985 45.657204,69.829526 58.012245,69.506107 59.134487,69.289463 65.689303,65.962412 Z"
       id="path837" />
  </g>
</svg>
