<?xml version="1.0" encoding="UTF-8" standalone="no"?>
<svg
   xmlns:dc="http://purl.org/dc/elements/1.1/"
   xmlns:cc="http://creativecommons.org/ns#"
   xmlns:rdf="http://www.w3.org/1999/02/22-rdf-syntax-ns#"
   xmlns:svg="http://www.w3.org/2000/svg"
   xmlns="http://www.w3.org/2000/svg"
   xmlns:sodipodi="http://sodipodi.sourceforge.net/DTD/sodipodi-0.dtd"
   xmlns:inkscape="http://www.inkscape.org/namespaces/inkscape"
   version="1.1"
   id="svg2"
   width="100"
   height="100"
   viewBox="0 0 100 100"
   sodipodi:docname="ball.svg"
   inkscape:version="1.0.2 (e86c870879, 2021-01-15)">
  <metadata
     id="metadata8">
    <rdf:RDF>
      <cc:Work
         rdf:about="">
        <dc:format>image/svg+xml</dc:format>
        <dc:type
           rdf:resource="http://purl.org/dc/dcmitype/StillImage" />
        <dc:title></dc:title>
      </cc:Work>
    </rdf:RDF>
  </metadata>
  <defs
     id="defs6" />
  <sodipodi:namedview
     pagecolor="#ffffff"
     bordercolor="#666666"
     borderopacity="1"
     objecttolerance="10"
     gridtolerance="10"
     guidetolerance="10"
     inkscape:pageopacity="0"
     inkscape:pageshadow="2"
     inkscape:window-width="1360"
     inkscape:window-height="731"
     id="namedview4"
     showgrid="false"
     borderlayer="true"
     inkscape:zoom="4.7362637"
     inkscape:cx="52.918994"
     inkscape:cy="45.316586"
     inkscape:window-x="0"
     inkscape:window-y="0"
     inkscape:window-maximized="1"
     inkscape:current-layer="g10" />
  <g
     inkscape:groupmode="layer"
     inkscape:label="Image"
     id="g10">
    <path
       style="fill:#000000;stroke-width:1"
       d="M 33.596176,97.477024 C 21.826465,94.378161 11.675255,86.562922 6.8546221,76.889171 3.8508814,70.861449 3.3945153,68.227976 3.3945153,56.922535 c 0,-11.715842 0.3818459,-13.744171 3.8039956,-20.206463 C 13.198117,25.386584 21.654283,14.098884 27.194331,10.024686 33.747156,5.2056848 47.601927,1.5562775 54.927108,2.7197523 78.659637,6.4892434 92.502635,16.988636 96.159972,33.993328 102.04308,61.346691 90.472916,89.252321 70.830026,95.085633 62.824462,97.46303 39.285119,98.974874 33.596176,97.477024 Z M 46.045936,85.370956 C 44.68245,66.314435 28.166512,42.499508 13.816263,38.897824 9.6144815,37.843244 8.7983829,39.698783 7.7975952,52.582279 6.4039684,70.522932 11.783933,82.636994 23.870669,88.774014 c 8.687023,4.41082 12.463322,5.596576 18.295217,5.744688 l 4.542824,0.115374 z M 63.99202,91.969632 C 80.50347,86.812536 81.41608,85.580101 81.401245,68.459301 81.387955,53.121123 72.650409,33.396593 61.354354,23.204543 52.615398,15.319678 47.654778,12.983371 38.712777,12.54102 29.094783,12.06523 27.354231,13.22441 18.2954,26.138662 l -5.411604,7.714772 7.631243,3.902762 c 14.973366,7.657663 28.099029,28.472444 29.48151,46.752011 0.885285,11.705522 0.708655,11.611355 13.995471,7.461425 z M 93.200129,57.200812 C 95.726926,41.510831 90.433933,23.322085 81.48747,16.951641 72.646214,10.656112 52.436517,4.7812534 46.310012,6.7257318 44.114656,7.4225097 45.067804,8.3008855 51.515441,11.522808 69.874494,20.696937 84.92436,45.65373 85.587279,68.023235 l 0.25892,8.736981 3.013704,-5.661228 c 1.657537,-3.113675 3.610638,-9.367854 4.340226,-13.898176 z"
       id="path837" />
  </g>
</svg>
