<?xml version="1.0" encoding="UTF-8" standalone="no"?>
<svg
   xmlns:dc="http://purl.org/dc/elements/1.1/"
   xmlns:cc="http://creativecommons.org/ns#"
   xmlns:rdf="http://www.w3.org/1999/02/22-rdf-syntax-ns#"
   xmlns:svg="http://www.w3.org/2000/svg"
   xmlns="http://www.w3.org/2000/svg"
   xmlns:sodipodi="http://sodipodi.sourceforge.net/DTD/sodipodi-0.dtd"
   xmlns:inkscape="http://www.inkscape.org/namespaces/inkscape"
   version="1.1"
   id="svg2"
   width="100"
   height="100"
   viewBox="0 0 100 100"
   sodipodi:docname="tree.svg"
   inkscape:version="1.0.2 (e86c870879, 2021-01-15)">
  <metadata
     id="metadata8">
    <rdf:RDF>
      <cc:Work
         rdf:about="">
        <dc:format>image/svg+xml</dc:format>
        <dc:type
           rdf:resource="http://purl.org/dc/dcmitype/StillImage" />
        <dc:title></dc:title>
      </cc:Work>
    </rdf:RDF>
  </metadata>
  <defs
     id="defs6" />
  <sodipodi:namedview
     pagecolor="#ffffff"
     bordercolor="#666666"
     borderopacity="1"
     objecttolerance="10"
     gridtolerance="10"
     guidetolerance="10"
     inkscape:pageopacity="0"
     inkscape:pageshadow="2"
     inkscape:window-width="1360"
     inkscape:window-height="731"
     id="namedview4"
     showgrid="false"
     borderlayer="true"
     inkscape:zoom="3.5437561"
     inkscape:cx="38.488381"
     inkscape:cy="53.008315"
     inkscape:window-x="0"
     inkscape:window-y="0"
     inkscape:window-maximized="1"
     inkscape:current-layer="g10" />
  <g
     inkscape:groupmode="layer"
     inkscape:label="Image"
     id="g10">
    <path
       style="fill:#000000;stroke-width:1"
       d="m 40.627008,94.016851 c 1.787398,-1.873602 3.88142,-5.077589 4.653381,-7.119972 1.849373,-4.8929 0.417175,-17.169718 -2.725759,-23.365232 -2.176216,-4.289867 -2.799344,-4.706461 -6.063337,-4.053663 -2.212741,0.442548 -5.302051,-0.06602 -7.886014,-1.298235 C 23.839114,55.906923 15.198054,44.34055 15.647913,40.835843 c 0.159046,-1.239071 -0.147273,-3.820444 -0.680708,-5.736385 -0.694043,-2.492794 -0.31762,-4.694706 1.323542,-7.74216 1.261383,-2.342247 2.679805,-4.258631 3.15205,-4.258631 0.472243,0 1.214235,-1.619089 1.648872,-3.597974 0.489087,-2.226801 2.558315,-4.823245 5.429677,-6.8131 5.349614,-3.707286 7.213692,-3.9515406 10.11548,-1.325459 1.899813,1.719307 2.537615,1.440113 7.074593,-3.0968644 5.227719,-5.2277199 10.900381,-6.678067 12.260142,-3.1345884 0.527382,1.3743346 1.876016,1.6655947 5.229375,1.1293715 3.492829,-0.5585259 5.291297,-0.1148565 7.921684,1.9542016 1.871632,1.4722256 3.402967,3.7136217 3.402967,4.9808797 0,1.267259 1.034396,2.632412 2.298658,3.033673 1.264263,0.401261 3.757876,2.780439 5.541364,5.28706 3.025149,4.251728 3.106501,4.707999 1.212568,6.80077 -1.888611,2.086893 -1.832539,2.665154 0.804341,8.295004 1.558963,3.32845 2.467817,6.644999 2.019675,7.370107 -0.448142,0.72511 -2.786529,1.688278 -5.196415,2.140376 -2.97418,0.557959 -4.726063,1.727974 -5.453961,3.642489 -1.102992,2.901093 -8.51263,9.257676 -10.791335,9.257676 -1.624548,0 -6.538588,19.391182 -6.538588,25.801773 0,3.043925 0.969308,6.065031 2.618713,8.16191 1.440293,1.831035 2.226479,3.717876 1.747082,4.192978 -0.479397,0.475104 -2.212485,-0.808482 -3.851306,-2.852412 -3.769405,-4.701185 -3.882944,-10.962605 -0.443089,-24.435183 1.599925,-6.266291 2.11317,-10.41874 1.378559,-11.153351 -1.691031,-1.691031 -2.680711,0.469962 -3.5407,7.731224 -0.891021,7.52328 -2.760472,7.484346 -5.127746,-0.106792 -0.940256,-3.015117 -3.085356,-6.513735 -4.766891,-7.77471 l -3.057334,-2.292679 2.618023,5.13175 c 3.383347,6.631908 5.387337,17.604405 4.343566,23.782437 -0.913135,5.404798 -5.921593,12.214168 -8.983818,12.214168 -1.505958,0 -1.202005,-0.815267 1.270055,-3.406551 z M 52.705657,62.119153 c 0,-1.021965 -0.557436,-1.858119 -1.238746,-1.858119 -0.68131,0 -1.238745,0.836154 -1.238745,1.858119 0,1.021965 0.557435,1.858118 1.238745,1.858118 0.68131,0 1.238746,-0.836153 1.238746,-1.858118 z m -1.01784,-5.75033 c 1.485317,-2.237008 2.176719,-2.431427 4.405264,-1.238746 1.453887,0.778096 3.775551,1.414721 5.159254,1.414721 3.322348,0 11.40502,-7.172078 10.984233,-9.746749 -0.243429,-1.489468 0.810459,-2.12606 4.005256,-2.41934 2.384585,-0.218902 4.801122,-0.851646 5.370083,-1.406097 1.190058,-1.159709 -2.048247,-8.102283 -5.587627,-11.979263 -2.395257,-2.623725 -2.392086,-2.637955 0.764273,-3.430151 1.743229,-0.437523 3.169507,-1.571477 3.169507,-2.519896 0,-2.372809 -7.087963,-8.138363 -10.005007,-8.138363 -2.746517,0 -3.052414,-1.302744 -0.834017,-3.551881 1.241173,-1.25837 1.056816,-1.940774 -0.929059,-3.4389648 -2.463392,-1.8584404 -8.502558,-1.7493751 -13.459465,0.2430738 -1.943974,0.781389 -2.176504,0.505827 -1.464957,-1.7360595 1.964299,-6.1889577 -6.415809,-1.6537031 -12.242797,6.6257135 -1.73282,2.46212 -1.762045,2.460198 -4.710487,-0.309687 -3.447725,-3.238933 -5.689079,-3.549972 -6.694818,-0.929059 -0.392165,1.021965 -1.469928,1.858118 -2.395029,1.858118 -2.642445,0 -4.716559,4.754312 -2.984557,6.841247 1.148683,1.384079 0.817079,1.882741 -1.666514,2.506082 -3.966941,0.99564 -6.561415,6.715307 -4.658748,10.270475 0.73592,1.375078 1.017617,3.33514 0.625994,4.355693 -1.119949,2.918539 7.286635,15.006766 11.710602,16.839234 3.305351,1.369121 4.306022,1.307317 6.957013,-0.429679 1.702999,-1.115848 2.960518,-2.519959 2.794488,-3.120248 -0.668445,-2.41678 1.831961,-1.201597 4.810048,2.337657 3.756167,4.463952 4.559446,4.592691 6.877067,1.102169 z"
       id="path837" />
  </g>
</svg>
