<?xml version="1.0" encoding="UTF-8" standalone="no"?>
<svg
   xmlns:dc="http://purl.org/dc/elements/1.1/"
   xmlns:cc="http://creativecommons.org/ns#"
   xmlns:rdf="http://www.w3.org/1999/02/22-rdf-syntax-ns#"
   xmlns:svg="http://www.w3.org/2000/svg"
   xmlns="http://www.w3.org/2000/svg"
   xmlns:sodipodi="http://sodipodi.sourceforge.net/DTD/sodipodi-0.dtd"
   xmlns:inkscape="http://www.inkscape.org/namespaces/inkscape"
   version="1.1"
   id="svg2"
   width="100"
   height="100"
   viewBox="0 0 100 100"
   sodipodi:docname="shark.svg"
   inkscape:version="1.0.2 (e86c870879, 2021-01-15)">
  <metadata
     id="metadata8">
    <rdf:RDF>
      <cc:Work
         rdf:about="">
        <dc:format>image/svg+xml</dc:format>
        <dc:type
           rdf:resource="http://purl.org/dc/dcmitype/StillImage" />
        <dc:title></dc:title>
      </cc:Work>
    </rdf:RDF>
  </metadata>
  <defs
     id="defs6" />
  <sodipodi:namedview
     pagecolor="#ffffff"
     bordercolor="#666666"
     borderopacity="1"
     objecttolerance="10"
     gridtolerance="10"
     guidetolerance="10"
     inkscape:pageopacity="0"
     inkscape:pageshadow="2"
     inkscape:window-width="1360"
     inkscape:window-height="731"
     id="namedview4"
     showgrid="false"
     borderlayer="true"
     inkscape:zoom="2.2084277"
     inkscape:cx="82.405434"
     inkscape:cy="-21.282894"
     inkscape:window-x="0"
     inkscape:window-y="0"
     inkscape:window-maximized="1"
     inkscape:current-layer="g10" />
  <g
     inkscape:groupmode="layer"
     inkscape:label="Image"
     id="g10">
    <path
       style="fill:#000000;stroke-width:1"
       d="m 61.351716,81.457473 c -0.869932,-0.330716 -1.581695,-1.69267 -1.581695,-3.026565 0,-2.844854 0.458089,-2.950858 3.781848,-0.875135 2.089527,1.304931 2.76927,1.157472 4.297291,-0.93222 1.776348,-2.4293 1.871154,-2.431654 4.4364,-0.110136 2.138224,1.935068 2.972428,2.080767 4.526915,0.790656 1.048111,-0.869854 2.849369,-1.219416 4.002796,-0.776803 1.193418,0.457956 3.121731,-0.122499 4.474759,-1.346966 1.55584,-1.408016 2.807041,-1.72229 3.620055,-0.909276 2.050408,2.050408 -3.397996,6.77761 -7.994646,6.936399 -2.234713,0.07719 -7.19487,0.300327 -11.022571,0.49585 -3.827702,0.195523 -7.67122,0.08491 -8.541152,-0.245804 z M 49.014497,72.245878 c -1.391892,-0.578149 -4.880226,-0.755096 -7.751854,-0.393217 -2.871627,0.36188 -6.251629,0.08127 -7.511117,-0.62357 -1.548243,-0.866442 -3.208161,-0.86318 -5.124734,0.01012 -3.554211,1.619353 -9.348158,0.264823 -9.348158,-2.185502 0,-1.355195 0.963792,-1.649534 3.645231,-1.113246 2.310298,0.46206 4.793541,-0.02336 6.780861,-1.325498 2.801675,-1.835728 3.305918,-1.849359 4.734519,-0.128002 1.838612,2.215393 5.4676,2.488062 8.871134,0.666547 1.724441,-0.922893 3.401315,-0.668991 6.267697,0.949017 3.29022,1.857255 4.090633,1.927881 5.02655,0.443531 0.775172,-1.229411 2.3597,-1.516173 5.218468,-0.944419 2.446524,0.489304 4.816439,0.230859 5.865311,-0.639629 1.335749,-1.108572 2.476013,-1.077498 4.730199,0.128906 1.796761,0.961597 4.529168,1.24718 6.916323,0.722873 3.023728,-0.664122 3.946143,-0.431195 3.946143,0.996476 0,2.915751 -3.550262,3.594669 -14.021205,2.681277 -6.616641,-0.577178 -9.964254,-0.396764 -10.561238,0.56918 -1.005797,1.627413 -4.036108,1.70043 -7.68413,0.185153 z M 4.1270802,59.836952 C 1.9590379,58.081377 1.4047445,56.759236 2.1026048,55.008023 c 0.9164362,-2.29971 1.0506462,-2.279524 2.8960589,0.435588 2.3942746,3.522639 3.4211881,3.54341 8.1655093,0.165156 l 3.766374,-2.681895 1.928277,2.753 c 1.422553,2.030981 2.974942,2.651386 5.919128,2.365556 l 3.990851,-0.387444 0.396587,-10.122846 c 0.426474,-10.885719 -1.425982,-23.120352 -4.359636,-28.793412 -1.624946,-3.142298 -1.597175,-3.603959 0.259654,-4.316491 1.143564,-0.438827 5.216653,0.191126 9.051309,1.399895 12.159489,3.83294 23.454084,16.885732 29.055792,33.578822 2.682246,7.993094 2.916184,8.266682 7.399921,8.654154 3.056983,0.264177 5.447773,-0.339852 7.036697,-1.777809 2.278069,-2.061624 2.539366,-2.057768 4.89296,0.0722 1.680046,1.520421 3.526633,1.994372 5.694101,1.46147 1.76425,-0.433764 4.631254,-1.139749 6.371119,-1.568852 4.966006,-1.224771 3.794279,1.745877 -1.581695,4.010026 C 90.19865,61.4289 86.67403,61.949355 84.44446,61.516349 82.356623,61.110869 80.078982,60.831932 79.383037,60.89649 71.186003,61.656863 52.178725,61.540382 50.00831,60.716474 48.249036,60.04864 46.892529,60.160009 46.363685,61.015697 45.82903,61.880785 43.385952,62.066141 39.675771,61.523106 36.460722,61.05254 32.833759,60.736039 31.615854,60.81977 28.599321,61.027157 18.655407,60.971665 15.166228,60.72797 13.60035,60.618605 11.147681,60.917315 9.715852,61.391769 8.0136397,61.955818 6.079146,61.417629 4.1270802,59.836946 Z M 50.679367,56.948355 c 5.980073,1.973601 9.553297,1.412581 10.131685,-1.590744 C 61.05163,54.10839 59.22745,48.830614 56.75732,43.629221 51.456394,32.466978 41.312822,21.624744 34.152653,19.467605 c -4.722681,-1.422799 -4.736476,-1.416148 -4.00672,1.931707 0.402751,1.847683 1.053582,4.213537 1.446289,5.257456 0.392707,1.043918 1.056911,8.161544 1.476009,15.816947 l 0.761996,13.918913 4.428745,1.479613 c 3.730388,1.246299 4.674507,1.163274 5.987282,-0.526514 1.34713,-1.734011 2.219737,-1.787911 6.433113,-0.397372 z"
       id="path837" />
  </g>
</svg>
