<?xml version="1.0" encoding="UTF-8" standalone="no"?>
<svg
   xmlns:dc="http://purl.org/dc/elements/1.1/"
   xmlns:cc="http://creativecommons.org/ns#"
   xmlns:rdf="http://www.w3.org/1999/02/22-rdf-syntax-ns#"
   xmlns:svg="http://www.w3.org/2000/svg"
   xmlns="http://www.w3.org/2000/svg"
   xmlns:sodipodi="http://sodipodi.sourceforge.net/DTD/sodipodi-0.dtd"
   xmlns:inkscape="http://www.inkscape.org/namespaces/inkscape"
   version="1.1"
   id="svg2"
   width="100"
   height="100"
   viewBox="0 0 100 100"
   sodipodi:docname="galaxy.svg"
   inkscape:version="1.0.2 (e86c870879, 2021-01-15)">
  <metadata
     id="metadata8">
    <rdf:RDF>
      <cc:Work
         rdf:about="">
        <dc:format>image/svg+xml</dc:format>
        <dc:type
           rdf:resource="http://purl.org/dc/dcmitype/StillImage" />
        <dc:title></dc:title>
      </cc:Work>
    </rdf:RDF>
  </metadata>
  <defs
     id="defs6" />
  <sodipodi:namedview
     pagecolor="#ffffff"
     bordercolor="#666666"
     borderopacity="1"
     objecttolerance="10"
     gridtolerance="10"
     guidetolerance="10"
     inkscape:pageopacity="0"
     inkscape:pageshadow="2"
     inkscape:window-width="1360"
     inkscape:window-height="731"
     id="namedview4"
     showgrid="false"
     borderlayer="true"
     inkscape:zoom="3.1098268"
     inkscape:cx="57.848654"
     inkscape:cy="28.587033"
     inkscape:window-x="0"
     inkscape:window-y="0"
     inkscape:window-maximized="1"
     inkscape:current-layer="g10" />
  <g
     inkscape:groupmode="layer"
     inkscape:label="Image"
     id="g10">
    <path
       style="fill:#000000;stroke-width:1"
       d="m 32.000994,96.242813 c 0.02477,-2.412852 10.885279,-9.778815 13.141511,-8.913017 2.88504,1.107094 1.680501,2.926975 -4.593844,6.940625 -6.974465,4.461512 -8.577019,4.831304 -8.547667,1.972392 z m -9.561643,-12.6516 C 18.092683,78.7882 21.792299,63.551664 31.639696,45.700423 41.351422,28.095124 51.335258,16.542429 55.467631,18.12817 c 1.387956,0.532608 0.69906,1.821619 -3.233901,6.051036 -14.838372,15.956845 -26.316083,39.72011 -22.567759,46.723917 1.067508,1.994657 1.56108,2.083106 4.568323,0.818656 1.854329,-0.779687 4.705914,-2.577865 6.336855,-3.99595 2.736401,-2.37927 2.825991,-2.732324 1.160381,-4.572803 -5.43219,-6.002502 2.909939,-22.556871 20.220723,-40.126605 8.178878,-8.301225 8.946618,-8.797319 13.614474,-8.797319 5.95764,0 7.574182,1.633098 8.339745,8.425158 0.627987,5.571479 -2.682181,18.075496 -7.077638,26.735484 -3.743015,7.374535 -18.009594,28.768251 -21.169206,31.744678 -4.432823,4.175821 -6.579306,4.983384 -7.420326,2.79172 -0.500809,-1.305084 0.377712,-2.856415 2.759745,-4.873287 C 56.10426,74.73026 72.503358,49.139391 74.520179,42.348018 79.116232,26.871431 74.05462,19.235012 65.331148,28.484587 l -3.809498,4.039244 3.020258,2.597917 c 2.96055,2.546558 2.990027,2.705891 1.491033,8.059771 -1.82392,6.514403 -5.939175,12.828835 -16.960747,26.024513 -8.919693,10.679183 -14.63805,15.146196 -20.634856,16.119344 -2.987491,0.484802 -4.345066,0.0923 -5.997987,-1.734163 z M 57.788602,13.550556 c -1.395091,-1.39509 0.718214,-4.011296 5.507337,-6.8179085 2.71765,-1.5926502 5.467269,-2.5705876 6.110264,-2.1731951 2.191233,1.3542566 1.175854,3.7157249 -2.198695,5.1135098 -1.852279,0.7672378 -3.958073,2.1062408 -4.679544,2.9755598 -1.367268,1.647458 -3.573946,2.06745 -4.739362,0.902034 z M 73.553714,4.5374611 C 72.831918,2.6564925 75.396317,1.0803942 77.282177,2.24592 c 1.50135,0.9278854 0.270028,4.0372175 -1.598772,4.0372175 -0.802897,0 -1.761259,-0.7855545 -2.129691,-1.7456764 z"
       id="path837" />
  </g>
</svg>
