<?xml version="1.0" encoding="UTF-8" standalone="no"?>
<svg
   xmlns:dc="http://purl.org/dc/elements/1.1/"
   xmlns:cc="http://creativecommons.org/ns#"
   xmlns:rdf="http://www.w3.org/1999/02/22-rdf-syntax-ns#"
   xmlns:svg="http://www.w3.org/2000/svg"
   xmlns="http://www.w3.org/2000/svg"
   xmlns:sodipodi="http://sodipodi.sourceforge.net/DTD/sodipodi-0.dtd"
   xmlns:inkscape="http://www.inkscape.org/namespaces/inkscape"
   version="1.1"
   id="svg2"
   width="100"
   height="100"
   viewBox="0 0 100 100"
   sodipodi:docname="A-round.svg"
   inkscape:version="1.0.1 (3bc2e813f5, 2020-09-07)">
  <metadata
     id="metadata8">
    <rdf:RDF>
      <cc:Work
         rdf:about="">
        <dc:format>image/svg+xml</dc:format>
        <dc:type
           rdf:resource="http://purl.org/dc/dcmitype/StillImage" />
        <dc:title></dc:title>
      </cc:Work>
    </rdf:RDF>
  </metadata>
  <defs
     id="defs6">
    <marker
       style="overflow:visible"
       id="DotL"
       refX="0.0"
       refY="0.0"
       orient="auto"
       inkscape:stockid="DotL"
       inkscape:isstock="true">
      <path
         transform="scale(0.8) translate(7.4, 1)"
         style="fill-rule:evenodd;stroke:#fefefe;stroke-width:1pt;stroke-opacity:1;fill:#fefefe;fill-opacity:1"
         d="M -2.5,-1.0 C -2.5,1.7600000 -4.7400000,4.0 -7.5,4.0 C -10.260000,4.0 -12.5,1.7600000 -12.5,-1.0 C -12.5,-3.7600000 -10.260000,-6.0 -7.5,-6.0 C -4.7400000,-6.0 -2.5,-3.7600000 -2.5,-1.0 z "
         id="path923" />
    </marker>
    <marker
       style="overflow:visible"
       id="Arrow1Lstart"
       refX="0.0"
       refY="0.0"
       orient="auto"
       inkscape:stockid="Arrow1Lstart"
       inkscape:isstock="true">
      <path
         transform="scale(0.8) translate(12.5,0)"
         style="fill-rule:evenodd;stroke:#fefefe;stroke-width:1pt;stroke-opacity:1;fill:#fefefe;fill-opacity:1"
         d="M 0.0,0.0 L 5.0,-5.0 L -12.5,0.0 L 5.0,5.0 L 0.0,0.0 z "
         id="path862" />
    </marker>
  </defs>
  <sodipodi:namedview
     pagecolor="#ffffff"
     bordercolor="#666666"
     borderopacity="1"
     objecttolerance="10"
     gridtolerance="10"
     guidetolerance="10"
     inkscape:pageopacity="0"
     inkscape:pageshadow="2"
     inkscape:window-width="1872"
     inkscape:window-height="1016"
     id="namedview4"
     showgrid="false"
     units="px"
     height="100mm"
     width="100mm"
     fit-margin-top="0"
     fit-margin-left="0"
     fit-margin-right="0"
     fit-margin-bottom="0"
     inkscape:zoom="2.9168155"
     inkscape:cx="66.550952"
     inkscape:cy="99.4871"
     inkscape:window-x="48"
     inkscape:window-y="795"
     inkscape:window-maximized="1"
     inkscape:current-layer="layer1" />
  <g
     inkscape:groupmode="layer"
     id="layer1"
     inkscape:label="Icon"
     style="display:inline">
    <path
       style="fill:#000000;fill-opacity:1;stroke:none;stroke-width:1px;stroke-linecap:butt;stroke-linejoin:miter;stroke-opacity:1"
       d="M 27.423006,18.202333 C 30.827243,8.6627976 33.699443,1.3414149 41.947974,1.1406928 c 6.669783,0.060133 9.899208,2.5079711 16.033004,11.8019732 6.133796,9.294002 33.973615,54.839358 37.629911,69.100303 1.960098,7.147065 1.786475,11.420904 -3.447135,14.743638 -1.949363,1.201991 -4.6761,1.769244 -7.506026,1.00891 C 81.827802,97.035183 80.443421,96.358799 76.74253,91.670688 73.04164,86.982579 64.742318,68.573909 64.742318,68.573909 L 32.583097,74.42545 c 0,0 -3.726158,11.465388 -4.792468,14.882327 C 25.611674,97.643811 17.248391,102.45163 11.848124,99.642716 6.4478559,96.833793 3.9978878,94.496211 4.9936924,85.562022 5.989497,76.62783 24.018769,27.741867 27.423006,18.202333 Z"
       id="path838"
       sodipodi:nodetypes="zczcczzccczzz" />
    <path
       style="fill:#ffffff;fill-opacity:1;stroke:#000000;stroke-width:1px;stroke-linecap:butt;stroke-linejoin:miter;stroke-opacity:1"
       d="M 55.32794,49.358951 39.771119,52.72943 46.319759,30.327654 Z"
       id="path858"
       sodipodi:nodetypes="cccc" />
    <path
       style="fill:none;stroke:#fefefe;stroke-width:3;stroke-linecap:round;stroke-linejoin:round;stroke-miterlimit:4;stroke-dasharray:none;stroke-opacity:1"
       d="m 38.318686,5.664932 c 0,0 3.148377,-1.8539653 5.253572,-1.566243 2.105194,0.2877222 4.888752,1.8372305 6.151178,3.8684981 1.262425,2.0312685 28.765763,46.3426799 40.629519,70.8441989 1.087713,2.24639 2.426417,4.800477 2.785331,6.950283 0.358915,2.149806 -0.281049,5.582666 -0.281049,5.582666"
       id="path860"
       sodipodi:nodetypes="czzazc" />
    <path
       style="display:inline;fill:none;stroke:#fefefe;stroke-width:3;stroke-linecap:round;stroke-linejoin:round;stroke-miterlimit:4;stroke-dasharray:none;stroke-opacity:1"
       d="M 44.217132,26.383476 35.665978,56.505103 57.481114,52.157566"
       id="path860-7"
       sodipodi:nodetypes="ccc" />
    <path
       style="display:inline;fill:none;stroke:#fefefe;stroke-width:3;stroke-linecap:round;stroke-linejoin:round;stroke-miterlimit:4;stroke-dasharray:none;stroke-opacity:1"
       d="m 28.061183,76.248789 c 0,0 -3.117467,10.89909 -3.752136,12.7328 -0.63467,1.83371 -2.409066,4.450285 -2.409066,4.450285"
       id="path860-7-9"
       sodipodi:nodetypes="ccc" />
    <ellipse
       style="fill:#ffffff;fill-opacity:1;stroke:none;stroke-width:3;stroke-linecap:round;stroke-linejoin:round;stroke-miterlimit:4;stroke-dasharray:none;stroke-opacity:1"
       id="path1208"
       cx="18.767643"
       cy="96.338982"
       rx="1.4317015"
       ry="1.5264945" />
    <ellipse
       style="display:inline;fill:#ffffff;fill-opacity:1;stroke:none;stroke-width:3;stroke-linecap:round;stroke-linejoin:round;stroke-miterlimit:4;stroke-dasharray:none;stroke-opacity:1"
       id="path1208-3"
       cx="90.071236"
       cy="94.17926"
       rx="1.4317015"
       ry="1.5264945" />
  </g>
</svg>
