<?xml version="1.0" encoding="UTF-8" standalone="no"?>
<svg
   xmlns:dc="http://purl.org/dc/elements/1.1/"
   xmlns:cc="http://creativecommons.org/ns#"
   xmlns:rdf="http://www.w3.org/1999/02/22-rdf-syntax-ns#"
   xmlns:svg="http://www.w3.org/2000/svg"
   xmlns="http://www.w3.org/2000/svg"
   xmlns:sodipodi="http://sodipodi.sourceforge.net/DTD/sodipodi-0.dtd"
   xmlns:inkscape="http://www.inkscape.org/namespaces/inkscape"
   version="1.1"
   id="svg2"
   width="100"
   height="100"
   viewBox="0 0 100 100"
   sodipodi:docname="asterisk.svg"
   inkscape:version="1.0.2 (e86c870879, 2021-01-15)">
  <metadata
     id="metadata8">
    <rdf:RDF>
      <cc:Work
         rdf:about="">
        <dc:format>image/svg+xml</dc:format>
        <dc:type
           rdf:resource="http://purl.org/dc/dcmitype/StillImage" />
        <dc:title></dc:title>
      </cc:Work>
    </rdf:RDF>
  </metadata>
  <defs
     id="defs6" />
  <sodipodi:namedview
     pagecolor="#ffffff"
     bordercolor="#666666"
     borderopacity="1"
     objecttolerance="10"
     gridtolerance="10"
     guidetolerance="10"
     inkscape:pageopacity="0"
     inkscape:pageshadow="2"
     inkscape:window-width="1360"
     inkscape:window-height="731"
     id="namedview4"
     showgrid="false"
     borderlayer="true"
     inkscape:zoom="3.6718436"
     inkscape:cx="63.34238"
     inkscape:cy="57.097483"
     inkscape:window-x="0"
     inkscape:window-y="0"
     inkscape:window-maximized="1"
     inkscape:current-layer="g10" />
  <g
     inkscape:groupmode="layer"
     inkscape:label="Image"
     id="g10">
    <path
       style="fill:#000000;stroke-width:0.999999"
       d="m 52.775631,94.720111 c -1.885519,-2.877666 -1.998263,-4.245398 -0.679368,-8.241686 0.869725,-2.635293 1.232825,-7.581257 0.80689,-10.991029 -0.425937,-3.409774 -1.118859,-8.962321 -1.539832,-12.338993 l -0.765402,-6.139404 -6.884862,7.84863 C 35.797342,73.881416 33.715225,77.530348 32.429869,84.631537 30.866138,93.270659 22.634201,96.788491 18.553964,90.561261 14.880936,84.955512 16.443902,81.300249 24.070079,77.660891 31.642303,74.047279 50.517003,56.115351 48.575893,54.379119 47.897743,53.772546 41.037548,49.974781 33.331015,45.939642 20.133235,39.029288 19.060719,38.700605 14.871379,40.282503 11.017364,41.737783 9.9672827,41.622777 7.0051702,39.420989 5.1250221,38.023445 3.4222205,35.711088 3.2211666,34.282421 2.6794127,30.432775 7.8735607,22.796871 11.033946,22.796871 c 3.285454,0 7.956541,4.658969 10.424251,10.397209 1.003814,2.334197 3.342014,5.237906 5.196002,6.452684 7.247987,4.749065 21.667127,12.026147 22.392286,11.300989 0.420739,-0.420739 -0.220464,-5.234675 -1.424895,-10.697635 -1.204433,-5.46296 -2.545183,-12.177687 -2.979448,-14.921614 -0.434265,-2.743928 -2.004044,-6.53291 -3.488397,-8.419959 -3.441656,-4.375355 -3.429422,-8.4222623 0.03594,-11.8876201 3.658176,-3.658176 7.61568,-3.4476704 11.684888,0.6215366 4.096598,4.0965988 4.130938,5.1191205 0.428757,12.7668055 -2.551008,5.269681 -2.821796,7.545887 -2.105381,17.697557 0.452185,6.407536 1.143246,11.971157 1.535691,12.3636 0.392444,0.392444 3.173913,-1.993124 6.181043,-5.301261 6.121362,-6.734098 12.187651,-18.26691 13.338378,-25.358011 0.955409,-5.887494 4.160325,-7.769523 9.851982,-5.785401 9.536465,3.32443 8.050678,11.393809 -3.312396,17.989766 -7.797521,4.52625 -12.318254,8.515554 -20.035506,17.680255 l -5.422263,6.439264 11.297265,5.680153 c 8.218339,4.132099 13.550743,5.871364 19.565786,6.381745 9.159971,0.777232 14.421734,4.175809 14.421734,9.31501 0,4.194655 -3.118252,6.346209 -8.454849,5.83374 -3.68738,-0.354096 -4.966438,-1.362634 -6.867338,-5.414901 -2.586318,-5.513417 -6.81253,-8.520628 -20.784368,-14.789369 l -9.400568,-4.217749 0.915118,8.932087 c 1.128832,11.018055 2.703315,15.330768 7.390576,20.243754 3.44814,3.614193 3.533697,4.022324 1.57654,7.520592 -2.800842,5.006295 -7.339532,5.494849 -10.219139,1.100013 z"
       id="path837" />
  </g>
</svg>
